<svg width="110" height="110" viewBox="0 0 110 110" fill="none" xmlns="http://www.w3.org/2000/svg">
<rect width="110" height="110" fill="#F2F7FB"/>
<mask id="path-2-inside-1_14_1344" fill="white">
<path d="M76.5679 54.2888C76.5679 54.2888 80.1654 50.9389 79.9941 47.2885L79.7798 46.988C79.7798 46.988 78.4095 47.8039 77.4672 47.6322L76.9105 47.9756C76.9105 47.9756 76.4394 47.5892 75.6256 48.2335C75.6256 48.2335 74.9404 47.1168 74.1697 47.4604L74.6836 46.945C74.6836 46.945 74.3836 45.9142 71.9854 44.7118C71.9854 44.7118 71.5143 44.1964 70.8718 42.6504L69.9297 42.0492C69.9297 42.0492 69.8012 41.1472 69.6727 40.2025C69.6727 40.2025 69.1588 39.5154 68.6021 39.4724C68.6021 39.4724 68.5165 39.0859 68.4736 38.2699C68.4736 38.2699 68.0025 38.2269 67.3172 36.7238C67.3172 36.7238 66.5037 35.3066 66.2894 35.1778L65.9467 34.5335L66.1181 34.2759C66.1181 34.2759 66.889 35.5643 67.4457 35.779C67.4457 35.779 68.1739 34.8771 67.403 33.3311C67.403 33.3311 66.5892 33.7176 65.4756 33.1592C65.4756 33.1592 64.405 33.3739 63.9339 33.7176C63.9339 33.7176 63.5485 33.3311 62.7348 33.5888C62.7348 33.5888 62.9918 32.9874 60.6363 33.1164L61.3216 32.9445L59.9082 32.6869C59.9082 32.6869 60.0794 32.558 59.9511 32.3003C59.8226 32.0426 58.2379 31.9138 57.6812 33.0734C57.6812 33.0734 58.2807 33.6746 57.3386 34.0182C57.3386 34.0182 56.1395 33.2451 55.1972 33.3311C55.1972 33.3311 54.7261 32.9017 54.7261 32.4722C54.7261 32.4722 53.9552 32.0426 53.1844 32.3003C53.1844 32.3003 52.7133 31.5272 52.028 31.7849C52.028 31.7849 51.0859 31.2697 52.2421 30.6683C52.2421 30.6683 52.4563 30.0671 51.8139 29.7235C51.8139 29.7235 52.1994 29.6807 52.2421 29.1223C52.2421 29.1223 51.4284 28.7358 50.7433 29.337C50.7433 29.337 50.0581 28.8646 48.8588 29.38C48.8588 29.38 47.0173 28.6499 45.4327 29.6377H44.6619C44.6619 29.6377 43.2485 30.6255 41.9208 29.2512C41.9208 29.2512 41.3641 29.423 40.9786 30.2819C40.9786 30.2819 39.8652 31.0549 39.0086 31.2697C39.0086 31.2697 38.2378 32.0426 38.3234 32.9874C38.3234 32.9874 37.4669 34.0182 36.0964 34.2759C36.0964 34.2759 35.454 34.7054 35.2827 35.3496C35.2827 35.3496 34.469 35.3496 33.9979 36.6809C33.9979 36.6809 32.4989 37.8834 32.1134 39C32.1134 39 33.0985 40.8895 31 43.8099L31.5139 44.7118L31.1284 45.7425C31.1284 45.7425 32.8844 46.3438 33.484 49.4789C33.484 49.4789 34.9829 50.5525 36.8673 51.8839C36.8673 51.8839 40.3363 50.8531 41.4498 51.7979C41.4498 51.7979 46.3321 49.1782 46.9316 52.0125C46.9316 52.0125 46.8888 52.4851 49.1587 51.9267C49.1587 51.9267 50.6148 52.8286 49.587 54.2888C49.587 54.2888 49.8011 55.1047 49.2443 55.8348C49.2443 55.8348 49.4584 56.522 49.4584 56.6508C49.4584 56.6508 52.542 59.5712 52.4991 61.5038L52.1994 61.7614C52.1994 61.7614 53.0559 63.3505 52.7561 64.0806C52.4563 64.8105 51.5569 64.2953 51.5142 68.1175C51.5142 68.1175 53.4841 70.9091 53.4841 71.8538C53.4841 71.8538 53.1844 74.2159 54.7261 75.676C54.7261 75.676 55.5826 77.2651 55.5826 77.5657C55.5826 77.5657 56.3534 78.0381 55.7539 78.6823C55.7539 78.6823 55.8824 79.9278 57.0387 80.0136C57.0387 80.0136 58.4092 79.2835 60.0367 79.67C61.6642 80.0566 63.5056 78.124 64.3621 76.7067L65.39 75.9337C65.39 75.9337 66.2466 74.8172 65.7328 74.087C65.7328 74.087 65.9467 73.4858 66.5463 73.3999C66.5463 73.3999 68.5592 73.3999 67.7457 70.4366C67.7457 70.4366 66.9748 69.9212 68.7306 69.1482C68.7306 69.1482 69.2874 68.8047 69.4586 68.3323C69.4586 68.3323 71.8569 67.8169 72.1138 66.3567C72.1138 66.3567 72.071 64.4672 72.071 63.9088C72.071 63.9088 72.7563 63.4362 71.6428 62.9639C71.6428 62.9639 71.7285 62.2769 71.2146 61.8044C71.2146 61.8044 72.071 60.8596 71.0861 60.3014C71.0861 60.3014 71.4287 58.2398 73.4416 56.7368C73.4416 56.7368 74.7692 54.6323 76.5679 54.2888ZM78.0051 65.1694C78.0051 65.1694 76.9832 67.0804 75.0499 67.4682C75.0499 67.4682 74.2766 67.5513 74.2214 68.4097C74.2214 68.4097 74.691 69.9053 73.89 70.7361C73.89 70.7361 73.1996 71.4008 73.5588 72.7301C73.5588 72.7301 73.2825 73.4502 73.6968 73.921C73.6968 73.921 74.1939 74.2256 74.2214 74.3919C74.2214 74.3919 75.188 73.8379 75.6576 73.921C75.6576 73.921 76.8175 71.3731 77.6461 69.2405C77.6461 69.2405 78.2814 68.2159 78.3916 67.0804L78.5852 67.5235C78.5852 67.5235 79.4137 66.582 78.3916 64.9201C78.3916 64.9201 78.0327 64.8372 78.0051 65.1694Z"/>
</mask>
<path d="M79.9941 47.2885L80.8083 46.7081L80.9792 46.9477L80.993 47.2417L79.9941 47.2885ZM79.7798 46.988L79.2682 46.1288L80.0595 45.6576L80.5941 46.4075L79.7798 46.988ZM77.4672 47.6322L76.9422 46.7811L77.2688 46.5796L77.6464 46.6484L77.4672 47.6322ZM76.9105 47.9756L77.4355 48.8267L76.8281 49.2014L76.2763 48.7488L76.9105 47.9756ZM75.6256 48.2335L76.2463 49.0175L75.3627 49.717L74.7733 48.7565L75.6256 48.2335ZM74.1697 47.4604L74.5768 48.3738L73.4616 46.7543L74.1697 47.4604ZM74.6836 46.945L75.6438 46.6656L75.8089 47.2328L75.3917 47.6511L74.6836 46.945ZM71.9854 44.7118L71.5372 45.6057L71.3719 45.5229L71.2472 45.3864L71.9854 44.7118ZM70.8718 42.6504L71.4098 41.8074L71.6747 41.9765L71.7953 42.2667L70.8718 42.6504ZM69.9297 42.0492L69.3918 42.8921L69.0045 42.645L68.9397 42.1902L69.9297 42.0492ZM69.6727 40.2025L70.4735 39.6035L70.6287 39.811L70.6636 40.0677L69.6727 40.2025ZM68.6021 39.4724L68.5251 40.4694L67.786 40.4123L67.6257 39.6886L68.6021 39.4724ZM68.4736 38.2699L68.5645 37.2741L69.4268 37.3528L69.4722 38.2174L68.4736 38.2699ZM67.3172 36.7238L68.1845 36.2259L68.2077 36.2664L68.2271 36.3089L67.3172 36.7238ZM66.2894 35.1778L65.7741 36.0347L65.5367 35.892L65.4066 35.6474L66.2894 35.1778ZM65.9467 34.5335L65.0639 35.0032L64.7837 34.4766L65.114 33.9798L65.9467 34.5335ZM66.1181 34.2759L65.2854 33.7221L66.1627 32.4028L66.9762 33.7624L66.1181 34.2759ZM67.4457 35.779L68.2238 36.4072L67.7659 36.9743L67.0859 36.712L67.4457 35.779ZM67.403 33.3311L66.9739 32.4278L67.8601 32.0069L68.2979 32.8848L67.403 33.3311ZM65.4756 33.1592L65.279 32.1788L65.6164 32.1111L65.9239 32.2653L65.4756 33.1592ZM63.9339 33.7176L64.5233 34.5255L63.831 35.0306L63.2258 34.4237L63.9339 33.7176ZM62.7348 33.5888L63.0367 34.5421L60.9588 35.2002L61.8152 33.1958L62.7348 33.5888ZM60.6363 33.1164L60.6909 34.1149L60.393 32.1464L60.6363 33.1164ZM61.3216 32.9445L61.5009 31.9608L61.5648 33.9145L61.3216 32.9445ZM59.9082 32.6869L59.7288 33.6706L57.4821 33.261L59.3069 31.8878L59.9082 32.6869ZM59.9511 32.3003L60.846 31.8541L60.8462 31.8545L59.9511 32.3003ZM57.6812 33.0734L56.9731 33.7795L56.4735 33.2785L56.7797 32.6406L57.6812 33.0734ZM57.3386 34.0182L57.6812 34.9577L57.2144 35.1279L56.7967 34.8586L57.3386 34.0182ZM55.1972 33.3311L55.2881 34.3269L54.8492 34.367L54.5235 34.0701L55.1972 33.3311ZM54.7261 32.4722L55.2128 31.5986L55.7261 31.8846V32.4722H54.7261ZM53.1844 32.3003L53.5015 33.2487L52.7453 33.5015L52.3304 32.8207L53.1844 32.3003ZM52.028 31.7849L52.38 32.721L51.9506 32.8824L51.5482 32.6623L52.028 31.7849ZM52.2421 30.6683L53.1841 31.004L53.0522 31.3742L52.7035 31.5555L52.2421 30.6683ZM51.8139 29.7235L51.3423 30.6054L48.5005 29.0857L51.7034 28.7297L51.8139 29.7235ZM52.2421 29.1223L52.6712 28.2191L53.2916 28.5138L53.2392 29.1986L52.2421 29.1223ZM50.7433 29.337L51.4028 30.0887L50.8172 30.6026L50.1757 30.1603L50.7433 29.337ZM48.8588 29.38L49.2537 30.2988L48.8742 30.4618L48.4903 30.3096L48.8588 29.38ZM45.4327 29.6377L45.9617 30.4863L45.7189 30.6377H45.4327V29.6377ZM44.6619 29.6377L44.089 28.818L44.347 28.6377H44.6619V29.6377ZM41.9208 29.2512L41.6259 28.2956L42.2131 28.1144L42.64 28.5564L41.9208 29.2512ZM40.9786 30.2819L41.891 30.6914L41.7772 30.9449L41.5489 31.1034L40.9786 30.2819ZM39.0086 31.2697L38.3006 30.5635L38.4964 30.3672L38.7654 30.2997L39.0086 31.2697ZM38.3234 32.9874L39.3193 32.8971L39.3566 33.3087L39.0925 33.6265L38.3234 32.9874ZM36.0964 34.2759L35.5406 33.4446L35.7106 33.3309L35.9116 33.2931L36.0964 34.2759ZM35.2827 35.3496L36.2491 35.6066L36.0515 36.3496H35.2827L35.2827 35.3496ZM33.9979 36.6809L34.9406 37.0145L34.8456 37.2829L34.6236 37.461L33.9979 36.6809ZM32.1134 39L31.2267 39.4623L31.0277 39.0806L31.1682 38.6737L32.1134 39ZM31 43.8099L30.1311 44.3049L29.8135 43.7474L30.1879 43.2263L31 43.8099ZM31.5139 44.7118L32.3827 44.2167L32.6145 44.6235L32.4505 45.062L31.5139 44.7118ZM31.1284 45.7425L30.8045 46.6886L29.8316 46.3555L30.1918 45.3923L31.1284 45.7425ZM33.484 49.4789L32.9017 50.2919L32.5768 50.0592L32.5018 49.6668L33.484 49.4789ZM36.8673 51.8839L37.1521 52.8424L36.6868 52.9807L36.2903 52.7006L36.8673 51.8839ZM41.4498 51.7979L41.9226 52.679L41.3222 53.0011L40.8028 52.5604L41.4498 51.7979ZM46.9316 52.0125L47.91 51.8056L47.9412 51.9529L47.9276 52.1029L46.9316 52.0125ZM49.1587 51.9267L48.9198 50.9556L49.3279 50.8553L49.6853 51.0766L49.1587 51.9267ZM49.587 54.2888L48.6198 54.5426L48.5018 54.0932L48.7693 53.7132L49.587 54.2888ZM49.2443 55.8348L48.2895 56.1322L48.1359 55.6391L48.4492 55.2283L49.2443 55.8348ZM49.4584 56.6508L48.7708 57.3769L48.4584 57.0811V56.6508H49.4584ZM52.4991 61.5038L53.4988 61.526L53.4889 61.9717L53.1508 62.2623L52.4991 61.5038ZM52.1994 61.7614L51.3191 62.2359L50.9373 61.5274L51.5476 61.0029L52.1994 61.7614ZM52.7561 64.0806L51.831 63.7008L51.831 63.7007L52.7561 64.0806ZM51.5142 68.1175L50.6971 68.694L50.5106 68.4297L50.5143 68.1063L51.5142 68.1175ZM53.4841 71.8538H54.4841V71.917L54.4761 71.9797L53.4841 71.8538ZM54.7261 75.676L55.4137 74.95L55.5302 75.0603L55.6064 75.2015L54.7261 75.676ZM55.5826 77.5657L55.0601 78.4183L54.5826 78.1257V77.5657H55.5826ZM55.7539 78.6823L54.7591 78.7849L54.7126 78.3333L55.0219 78.001L55.7539 78.6823ZM57.0387 80.0136L57.5089 80.8962L57.2534 81.0323L56.9647 81.0109L57.0387 80.0136ZM60.0367 79.67L60.2677 78.6971L60.2678 78.6971L60.0367 79.67ZM64.3621 76.7067L63.5063 76.1894L63.6064 76.0238L63.7611 75.9074L64.3621 76.7067ZM65.39 75.9337L66.1834 76.5423L66.1003 76.6508L65.9911 76.7329L65.39 75.9337ZM65.7328 74.087L64.9149 74.6625L64.6171 74.2392L64.7906 73.7517L65.7328 74.087ZM66.5463 73.3999L66.4045 72.41L66.475 72.3999H66.5463V73.3999ZM67.7457 70.4366L68.3015 69.6053L68.6113 69.8125L68.71 70.1719L67.7457 70.4366ZM68.7306 69.1482L69.2555 69.9993L69.1967 70.0356L69.1335 70.0634L68.7306 69.1482ZM69.4586 68.3323L68.5185 67.9916L68.7071 67.471L69.2485 67.3546L69.4586 68.3323ZM72.1138 66.3567L73.1136 66.334L73.1158 66.4327L73.0987 66.53L72.1138 66.3567ZM72.071 63.9088H71.071V63.3836L71.5033 63.0855L72.071 63.9088ZM71.6428 62.9639L71.2522 63.8844L70.5569 63.5895L70.6505 62.84L71.6428 62.9639ZM71.2146 61.8044L70.5378 62.5405L69.8068 61.8685L70.4737 61.1328L71.2146 61.8044ZM71.0861 60.3014L70.593 61.1714L69.9851 60.8268L70.0996 60.1374L71.0861 60.3014ZM73.4416 56.7368L74.2874 57.2704L74.1885 57.4272L74.0399 57.5381L73.4416 56.7368ZM75.0499 67.4682L75.2466 68.4487L75.202 68.4576L75.1568 68.4625L75.0499 67.4682ZM74.2214 68.4097L73.2673 68.7093L73.2115 68.5315L73.2235 68.3455L74.2214 68.4097ZM73.89 70.7361L74.6099 71.4302L74.597 71.4436L74.5836 71.4565L73.89 70.7361ZM73.5588 72.7301L74.5241 72.4692L74.6092 72.7839L74.4924 73.0883L73.5588 72.7301ZM73.6968 73.921L73.1744 74.7737L73.0458 74.6949L72.9462 74.5817L73.6968 73.921ZM74.2214 74.3919L74.7187 75.2595L73.4695 75.9754L73.2348 74.5549L74.2214 74.3919ZM75.6576 73.921L76.5677 74.3353L76.2466 75.0408L75.4833 74.9057L75.6576 73.921ZM77.6461 69.2405L76.714 68.8783L76.7475 68.7921L76.7962 68.7136L77.6461 69.2405ZM78.3916 67.0804L77.3963 66.9838L77.7678 63.155L79.308 66.68L78.3916 67.0804ZM78.5852 67.5235L79.3359 68.1841L78.2979 69.3638L77.6688 67.9239L78.5852 67.5235ZM78.3916 64.9201L78.6168 63.9458L79.0243 64.04L79.2434 64.3963L78.3916 64.9201ZM76.5679 54.2888C75.8864 53.5569 75.8863 53.5571 75.8861 53.5573C75.886 53.5573 75.8859 53.5575 75.8858 53.5575C75.8856 53.5577 75.8855 53.5578 75.8855 53.5578C75.8854 53.5579 75.8855 53.5578 75.8858 53.5575C75.8864 53.557 75.8879 53.5556 75.8901 53.5534C75.8947 53.5491 75.9025 53.5417 75.9133 53.5312C75.9349 53.5103 75.9686 53.4774 76.0126 53.4331C76.1005 53.3445 76.2292 53.2111 76.3847 53.0387C76.6965 52.6928 77.1105 52.1962 77.5178 51.596C78.352 50.3667 79.0657 48.8384 78.9952 47.3354L80.993 47.2417C81.0938 49.3891 80.0944 51.3609 79.1727 52.7191C78.7021 53.4126 78.2273 53.9817 77.87 54.378C77.6909 54.5767 77.5398 54.7335 77.4317 54.8423C77.3777 54.8968 77.3342 54.9394 77.3032 54.9693C77.2877 54.9843 77.2754 54.9961 77.2663 55.0047C77.2618 55.009 77.2581 55.0125 77.2553 55.0151C77.2538 55.0165 77.2526 55.0176 77.2517 55.0185C77.2512 55.019 77.2507 55.0194 77.2504 55.0197C77.2502 55.0199 77.2499 55.0201 77.2498 55.0202C77.2496 55.0204 77.2494 55.0206 76.5679 54.2888ZM79.1798 47.869L78.9655 47.5685L80.5941 46.4075L80.8083 46.7081L79.1798 47.869ZM79.7798 46.988C80.2914 47.8472 80.2912 47.8473 80.2911 47.8474C80.291 47.8475 80.2908 47.8476 80.2907 47.8477C80.2904 47.8478 80.2901 47.848 80.2898 47.8482C80.2892 47.8485 80.2885 47.8489 80.2877 47.8494C80.2862 47.8503 80.2843 47.8515 80.282 47.8528C80.2775 47.8554 80.2717 47.8588 80.2646 47.8629C80.2504 47.8711 80.2311 47.8822 80.207 47.8956C80.159 47.9224 80.0919 47.959 80.0092 48.0017C79.8449 48.0863 79.6136 48.1978 79.3454 48.3041C78.8612 48.4961 78.055 48.7558 77.2879 48.616L77.6464 46.6484C77.8217 46.6804 78.1718 46.618 78.6083 46.4449C78.8005 46.3687 78.9706 46.2869 79.0928 46.2239C79.1533 46.1928 79.2005 46.167 79.2312 46.1499C79.2464 46.1413 79.2574 46.135 79.2638 46.1313C79.267 46.1295 79.2689 46.1283 79.2697 46.1279C79.2701 46.1277 79.2702 46.1276 79.2699 46.1278C79.2698 46.1278 79.2696 46.128 79.2693 46.1281C79.2692 46.1282 79.269 46.1283 79.2688 46.1284C79.2687 46.1285 79.2686 46.1286 79.2685 46.1286C79.2684 46.1287 79.2682 46.1288 79.7798 46.988ZM77.9922 48.4833L77.4355 48.8267L76.3855 47.1245L76.9422 46.7811L77.9922 48.4833ZM76.9105 47.9756C76.2763 48.7488 76.2769 48.7493 76.2776 48.7498C76.2778 48.75 76.2784 48.7505 76.2788 48.7509C76.2796 48.7515 76.2805 48.7522 76.2813 48.7529C76.2829 48.7542 76.2846 48.7555 76.2862 48.7568C76.2895 48.7594 76.2926 48.7619 76.2958 48.7644C76.3021 48.7692 76.3082 48.7738 76.3141 48.7782C76.3259 48.7868 76.3371 48.7945 76.3477 48.8013C76.3688 48.8149 76.3883 48.8255 76.4064 48.8338C76.4433 48.8509 76.4754 48.8585 76.5002 48.8603C76.5743 48.8657 76.4942 48.8213 76.2463 49.0175L75.0049 47.4494C75.5709 47.0014 76.1332 46.8281 76.6462 46.8656C76.8906 46.8835 77.0912 46.9475 77.242 47.0168C77.317 47.0513 77.3796 47.087 77.4296 47.1192C77.4547 47.1354 77.4768 47.1507 77.4959 47.1647C77.5055 47.1717 77.5143 47.1784 77.5224 47.1847C77.5265 47.1879 77.5304 47.1909 77.5341 47.1939C77.5359 47.1954 77.5378 47.1968 77.5395 47.1982C77.5404 47.199 77.5413 47.1997 77.5421 47.2004C77.5426 47.2007 77.5432 47.2012 77.5434 47.2014C77.5441 47.2019 77.5447 47.2024 76.9105 47.9756ZM75.6256 48.2335C74.7733 48.7565 74.7734 48.7567 74.7736 48.757C74.7737 48.7571 74.7738 48.7573 74.7739 48.7575C74.7741 48.7578 74.7743 48.7581 74.7745 48.7584C74.7748 48.759 74.7752 48.7595 74.7754 48.76C74.776 48.7609 74.7764 48.7616 74.7767 48.762C74.7773 48.7629 74.7773 48.7629 74.7767 48.762C74.7755 48.7602 74.7722 48.7551 74.7669 48.7472C74.7561 48.7313 74.7379 48.7053 74.7134 48.6735C74.662 48.6065 74.5957 48.5302 74.525 48.4679C74.4491 48.4009 74.4087 48.3858 74.4119 48.3869C74.4376 48.3952 74.5098 48.4036 74.5768 48.3738L73.7626 46.547C74.7114 46.1241 75.5056 46.6658 75.8484 46.9683C76.0453 47.1422 76.1985 47.3236 76.2996 47.4552C76.3514 47.5227 76.3927 47.5813 76.4224 47.6251C76.4373 47.6471 76.4495 47.6656 76.4588 47.68C76.4634 47.6872 76.4673 47.6934 76.4705 47.6985C76.4721 47.7011 76.4736 47.7034 76.4748 47.7053C76.4754 47.7063 76.476 47.7073 76.4765 47.7081C76.4768 47.7085 76.477 47.709 76.4773 47.7093C76.4774 47.7095 76.4776 47.7098 76.4776 47.7099C76.4778 47.7102 76.4779 47.7105 75.6256 48.2335ZM73.4616 46.7543L73.9755 46.2389L75.3917 47.6511L74.8778 48.1665L73.4616 46.7543ZM74.6836 46.945C73.7234 47.2245 73.7237 47.2253 73.7239 47.2262C73.724 47.2264 73.7243 47.2273 73.7244 47.2278C73.7248 47.229 73.7251 47.2301 73.7254 47.2311C73.7261 47.2333 73.7267 47.2354 73.7273 47.2374C73.7286 47.2415 73.7298 47.2454 73.7309 47.2489C73.7333 47.2561 73.7354 47.2623 73.7372 47.2675C73.7409 47.278 73.7436 47.2845 73.7447 47.2872C73.7471 47.2928 73.7433 47.283 73.7299 47.2593C73.7031 47.2122 73.6359 47.1066 73.4974 46.9558C73.22 46.6538 72.65 46.1637 71.5372 45.6057L72.4336 43.8178C73.719 44.4623 74.4981 45.0888 74.9703 45.6028C75.2065 45.86 75.3642 46.0872 75.4687 46.2711C75.5208 46.3628 75.5592 46.4429 75.5873 46.5095C75.6014 46.5428 75.6128 46.5726 75.6221 46.5988C75.6267 46.6118 75.6308 46.6239 75.6344 46.6351C75.6362 46.6406 75.6379 46.646 75.6394 46.6511C75.6402 46.6536 75.641 46.6561 75.6417 46.6585C75.6421 46.6597 75.6424 46.6609 75.6428 46.6621C75.6429 46.6627 75.6432 46.6635 75.6433 46.6638C75.6435 46.6647 75.6438 46.6656 74.6836 46.945ZM71.9854 44.7118C71.2472 45.3864 71.247 45.3862 71.2467 45.3859C71.2466 45.3857 71.2463 45.3854 71.2462 45.3852C71.2458 45.3848 71.2454 45.3844 71.245 45.384C71.2442 45.3832 71.2435 45.3823 71.2426 45.3814C71.241 45.3795 71.2392 45.3776 71.2374 45.3755C71.2337 45.3713 71.2295 45.3667 71.225 45.3614C71.2159 45.351 71.2052 45.3384 71.1929 45.3235C71.1683 45.2937 71.1375 45.2549 71.1009 45.206C71.0278 45.1082 70.9319 44.9704 70.8177 44.7847C70.5894 44.4134 70.2877 43.8506 69.9484 43.0341L71.7953 42.2667C72.0985 42.9962 72.3535 43.4641 72.5213 43.737C72.6052 43.8734 72.6672 43.961 72.7025 44.0082C72.7202 44.0318 72.7311 44.0453 72.7348 44.0497C72.7367 44.052 72.7367 44.0519 72.7348 44.0498C72.7339 44.0487 72.7325 44.0471 72.7306 44.045C72.7297 44.0439 72.7286 44.0427 72.7274 44.0414C72.7268 44.0408 72.7262 44.0401 72.7255 44.0394C72.7252 44.039 72.7249 44.0386 72.7245 44.0383C72.7244 44.0381 72.7241 44.0378 72.724 44.0377C72.7238 44.0374 72.7235 44.0371 71.9854 44.7118ZM70.3339 43.4934L69.3918 42.8921L70.4676 41.2062L71.4098 41.8074L70.3339 43.4934ZM69.9297 42.0492C68.9397 42.1902 68.9397 42.1902 68.9397 42.1902C68.9397 42.1902 68.9397 42.1902 68.9397 42.1901C68.9397 42.1901 68.9397 42.1901 68.9397 42.19C68.9397 42.1899 68.9396 42.1897 68.9396 42.1895C68.9395 42.189 68.9394 42.1884 68.9393 42.1875C68.9391 42.1857 68.9387 42.1831 68.9382 42.1796C68.9372 42.1727 68.9358 42.1625 68.9339 42.1492C68.9301 42.1225 68.9245 42.0834 68.9175 42.0336C68.9034 41.9339 68.8832 41.7912 68.8591 41.619C68.8108 41.2746 68.7463 40.8115 68.6818 40.3372L70.6636 40.0677C70.7276 40.5383 70.7916 40.9985 70.8397 41.3412C70.8637 41.5125 70.8838 41.6544 70.8978 41.7534C70.9048 41.8028 70.9103 41.8416 70.914 41.868C70.9159 41.8811 70.9173 41.8912 70.9183 41.898C70.9187 41.9014 70.9191 41.9039 70.9193 41.9056C70.9195 41.9065 70.9196 41.9071 70.9196 41.9075C70.9197 41.9077 70.9197 41.9079 70.9197 41.908C70.9197 41.908 70.9197 41.9081 70.9197 41.9081C70.9197 41.9081 70.9197 41.9081 70.9197 41.9081C70.9197 41.9081 70.9197 41.9081 69.9297 42.0492ZM69.6727 40.2025C68.872 40.8015 68.8721 40.8016 68.8722 40.8018C68.8723 40.8019 68.8724 40.8021 68.8725 40.8022C68.8727 40.8024 68.8729 40.8027 68.873 40.8029C68.8733 40.8033 68.8736 40.8037 68.8739 40.8041C68.8745 40.8048 68.8749 40.8053 68.8752 40.8057C68.8758 40.8066 68.876 40.8068 68.8758 40.8065C68.8753 40.8059 68.8732 40.8032 68.8696 40.7987C68.8622 40.7895 68.8489 40.7733 68.8307 40.7525C68.7933 40.7096 68.7405 40.6535 68.6795 40.5989C68.6165 40.5426 68.5605 40.5021 68.5175 40.4782C68.4718 40.4527 68.4764 40.4657 68.5251 40.4694L68.6791 38.4754C69.3004 38.5234 69.7781 38.8982 70.0128 39.1082C70.1499 39.2308 70.2604 39.3491 70.3367 39.4364C70.3754 39.4807 70.4066 39.5185 70.4295 39.5471C70.441 39.5614 70.4505 39.5735 70.4578 39.583C70.4615 39.5877 70.4647 39.5918 70.4673 39.5953C70.4686 39.597 70.4697 39.5985 70.4708 39.5999C70.4713 39.6006 70.4718 39.6012 70.4722 39.6018C70.4725 39.6021 70.4727 39.6024 70.4729 39.6027C70.473 39.6028 70.4731 39.603 70.4732 39.6031C70.4733 39.6033 70.4735 39.6035 69.6727 40.2025ZM68.6021 39.4724C67.6257 39.6886 67.6257 39.6885 67.6257 39.6883C67.6257 39.6882 67.6256 39.6881 67.6256 39.688C67.6255 39.6877 67.6255 39.6875 67.6254 39.6873C67.6253 39.6868 67.6252 39.6863 67.6251 39.6858C67.6249 39.6847 67.6246 39.6836 67.6244 39.6823C67.6238 39.6798 67.6232 39.677 67.6225 39.6737C67.6212 39.6672 67.6195 39.6592 67.6176 39.6497C67.6138 39.6306 67.609 39.6054 67.6034 39.574C67.5923 39.5112 67.5781 39.4237 67.5629 39.3107C67.5324 39.0846 67.4978 38.757 67.475 38.3224L69.4722 38.2174C69.4923 38.5988 69.5219 38.8724 69.545 39.0436C69.5565 39.1292 69.5664 39.1893 69.5726 39.2245C69.5758 39.2421 69.578 39.2534 69.579 39.2587C69.5796 39.2613 69.5798 39.2624 69.5797 39.262C69.5797 39.2618 69.5795 39.2612 69.5793 39.2602C69.5792 39.2597 69.5791 39.2591 69.5789 39.2585C69.5789 39.2581 69.5788 39.2578 69.5787 39.2574C69.5787 39.2572 69.5786 39.257 69.5786 39.2568C69.5785 39.2567 69.5785 39.2565 69.5785 39.2565C69.5785 39.2563 69.5784 39.2561 68.6021 39.4724ZM68.4736 38.2699C68.3827 39.2658 68.3812 39.2657 68.3797 39.2655C68.3792 39.2655 68.3778 39.2653 68.3768 39.2652C68.3748 39.265 68.3728 39.2648 68.3708 39.2646C68.3668 39.2642 68.3628 39.2638 68.3587 39.2633C68.3506 39.2624 68.3424 39.2613 68.3341 39.2602C68.3174 39.2579 68.3004 39.2551 68.2829 39.2518C68.2479 39.2452 68.2117 39.2366 68.1742 39.2258C68.0992 39.2041 68.0211 39.1738 67.941 39.1336C67.7808 39.0532 67.6178 38.9362 67.4538 38.776C67.1316 38.4614 66.78 37.9561 66.4073 37.1386L68.2271 36.3089C68.5397 36.9946 68.7663 37.2624 68.851 37.3451C68.8904 37.3835 68.8881 37.3712 68.8376 37.3458C68.8123 37.3332 68.7764 37.318 68.7298 37.3045C68.7066 37.2978 68.6811 37.2916 68.6534 37.2864C68.6395 37.2838 68.6252 37.2814 68.6104 37.2793C68.6029 37.2783 68.5954 37.2774 68.5878 37.2765C68.5839 37.276 68.5801 37.2756 68.5762 37.2752C68.5743 37.275 68.5723 37.2748 68.5704 37.2746C68.5694 37.2745 68.5679 37.2744 68.5674 37.2743C68.566 37.2742 68.5645 37.2741 68.4736 38.2699ZM67.3172 36.7238C66.4499 37.2216 66.45 37.2217 66.45 37.2217L66.45 37.2217C66.45 37.2217 66.45 37.2217 66.4499 37.2216C66.4499 37.2215 66.4498 37.2214 66.4496 37.2211C66.4494 37.2206 66.4489 37.2198 66.4482 37.2186C66.4469 37.2163 66.4448 37.2127 66.442 37.2078C66.4364 37.1982 66.428 37.1837 66.4172 37.165C66.3955 37.1277 66.3641 37.0739 66.3256 37.0087C66.2483 36.8778 66.1441 36.7035 66.0343 36.5269C65.9229 36.3477 65.813 36.1774 65.723 36.0497C65.6773 35.9849 65.6458 35.944 65.6282 35.923C65.5834 35.8694 65.6415 35.955 65.7741 36.0347L66.8048 34.3208C66.991 34.4328 67.1213 34.5908 67.162 34.6394C67.2299 34.7205 67.2971 34.8115 67.3578 34.8977C67.4807 35.072 67.6142 35.2801 67.733 35.4713C67.8534 35.665 67.9659 35.8531 68.0479 35.992C68.089 36.0617 68.1228 36.1195 68.1465 36.1602C68.1583 36.1806 68.1676 36.1967 68.174 36.2078C68.1773 36.2134 68.1798 36.2178 68.1815 36.2208C68.1824 36.2223 68.1831 36.2235 68.1836 36.2244C68.1838 36.2248 68.184 36.2252 68.1842 36.2254C68.1842 36.2255 68.1843 36.2257 68.1844 36.2257C68.1844 36.2258 68.1844 36.2258 68.1844 36.2258C68.1844 36.2259 68.1845 36.2259 67.3172 36.7238ZM65.4066 35.6474L65.0639 35.0032L66.8296 34.0639L67.1723 34.7081L65.4066 35.6474ZM65.114 33.9798L65.2854 33.7221L66.9508 34.8296L66.7794 35.0873L65.114 33.9798ZM66.1181 34.2759C66.9762 33.7624 66.9761 33.7623 66.9761 33.7622C66.9761 33.7622 66.976 33.7621 66.976 33.7621C66.9759 33.762 66.9759 33.7619 66.9758 33.7618C66.9758 33.7617 66.9757 33.7617 66.9758 33.7617C66.9758 33.7617 66.976 33.7621 66.9764 33.7627C66.9772 33.764 66.9787 33.7665 66.9808 33.77C66.9851 33.7771 66.9921 33.7885 67.0015 33.8036C67.0204 33.8339 67.0488 33.8789 67.0848 33.9342C67.1576 34.0459 67.2584 34.1943 67.3725 34.346C67.4888 34.5008 67.6062 34.6419 67.7115 34.7475C67.8367 34.873 67.868 34.8701 67.8055 34.846L67.0859 36.712C66.745 36.5806 66.4712 36.3361 66.2953 36.1597C66.0995 35.9633 65.9198 35.742 65.7738 35.5478C65.6255 35.3506 65.4988 35.1635 65.4096 35.0268C65.3647 34.958 65.3286 34.9007 65.3031 34.8597C65.2903 34.8392 65.2802 34.8226 65.2729 34.8107C65.2693 34.8048 65.2664 34.8 65.2642 34.7964C65.2631 34.7946 65.2622 34.7931 65.2615 34.7919C65.2612 34.7913 65.2609 34.7908 65.2606 34.7904C65.2605 34.7901 65.2603 34.7899 65.2602 34.7898C65.2602 34.7897 65.2601 34.7896 65.2601 34.7895C65.26 34.7894 65.26 34.7893 66.1181 34.2759ZM67.4457 35.779C66.6676 35.1508 66.6672 35.1513 66.6668 35.1518C66.6667 35.152 66.6663 35.1525 66.666 35.1528C66.6655 35.1535 66.6649 35.1542 66.6644 35.1548C66.6634 35.1561 66.6624 35.1573 66.6615 35.1585C66.6596 35.1609 66.6579 35.1631 66.6563 35.1652C66.6531 35.1692 66.6506 35.1726 66.6486 35.1753C66.6446 35.1807 66.6428 35.1834 66.6428 35.1835C66.6427 35.1837 66.6492 35.1738 66.6592 35.1546C66.6792 35.1159 66.7118 35.0416 66.7337 34.9343C66.7741 34.7371 66.7949 34.3526 66.5081 33.7773L68.2979 32.8848C68.7819 33.8556 68.8241 34.6951 68.6931 35.3353C68.6294 35.6467 68.5281 35.8945 68.4357 36.0733C68.3894 36.1627 68.3451 36.2354 68.3082 36.2909C68.2897 36.3187 68.273 36.3423 68.2588 36.3617C68.2516 36.3714 68.2451 36.38 68.2392 36.3876C68.2363 36.3914 68.2335 36.3949 68.231 36.3982C68.2297 36.3998 68.2284 36.4014 68.2272 36.4029C68.2266 36.4036 68.226 36.4044 68.2255 36.4051C68.2252 36.4055 68.2247 36.406 68.2246 36.4062C68.2242 36.4067 68.2238 36.4072 67.4457 35.779ZM67.403 33.3311C67.832 34.2344 67.8315 34.2346 67.831 34.2348C67.8309 34.2349 67.8304 34.2351 67.83 34.2353C67.8294 34.2356 67.8287 34.2359 67.828 34.2363C67.8266 34.2369 67.8251 34.2376 67.8236 34.2383C67.8206 34.2397 67.8174 34.2412 67.8139 34.2428C67.807 34.2459 67.7991 34.2494 67.7904 34.2532C67.773 34.2607 67.752 34.2694 67.7276 34.2789C67.6788 34.2978 67.6159 34.32 67.5402 34.3422C67.3889 34.3867 67.1839 34.432 66.935 34.4515C66.4301 34.491 65.7635 34.4223 65.0274 34.0532L65.9239 32.2653C66.3013 32.4546 66.5983 32.4717 66.7788 32.4576C66.8725 32.4503 66.9405 32.4339 66.9767 32.4233C66.9856 32.4206 66.9924 32.4184 66.9971 32.4168C67.0017 32.4153 67.0041 32.4143 67.0041 32.4143C67.0041 32.4143 67.0016 32.4153 66.9967 32.4174C66.9942 32.4185 66.9911 32.4199 66.9873 32.4216C66.9854 32.4224 66.9833 32.4234 66.9811 32.4244C66.98 32.4249 66.9788 32.4255 66.9776 32.426C66.977 32.4263 66.9764 32.4266 66.9758 32.4269C66.9755 32.427 66.975 32.4273 66.9749 32.4273C66.9744 32.4276 66.9739 32.4278 67.403 33.3311ZM65.4756 33.1592C65.6723 34.1397 65.6724 34.1397 65.6725 34.1397C65.6725 34.1397 65.6726 34.1397 65.6726 34.1396C65.6727 34.1396 65.6728 34.1396 65.6729 34.1396C65.6731 34.1396 65.6732 34.1395 65.6732 34.1395C65.6733 34.1395 65.6731 34.1396 65.6727 34.1396C65.6718 34.1398 65.67 34.1402 65.6673 34.1408C65.6619 34.1419 65.6528 34.1438 65.6405 34.1465C65.6158 34.1518 65.5783 34.1601 65.5313 34.1713C65.4365 34.1937 65.3065 34.2266 65.1652 34.2684C64.8408 34.3644 64.6059 34.4652 64.5233 34.5255L63.3445 32.9098C63.733 32.6264 64.269 32.4479 64.5977 32.3507C64.7829 32.2958 64.95 32.2536 65.0707 32.225C65.1314 32.2107 65.1813 32.1995 65.217 32.1918C65.2349 32.1879 65.2492 32.1849 65.2597 32.1827C65.2649 32.1816 65.2692 32.1808 65.2724 32.1801C65.2741 32.1798 65.2754 32.1795 65.2765 32.1793C65.2771 32.1792 65.2775 32.1791 65.278 32.179C65.2782 32.1789 65.2784 32.1789 65.2785 32.1789C65.2786 32.1788 65.2788 32.1788 65.2788 32.1788C65.2789 32.1788 65.279 32.1788 65.4756 33.1592ZM63.9339 33.7176C63.2258 34.4237 63.2263 34.4242 63.2268 34.4247C63.227 34.4249 63.2274 34.4253 63.2277 34.4257C63.2284 34.4263 63.229 34.4269 63.2296 34.4275C63.2309 34.4288 63.2321 34.43 63.2333 34.4312C63.2358 34.4336 63.2382 34.4359 63.2405 34.4381C63.2452 34.4426 63.2497 34.4468 63.2539 34.4507C63.2625 34.4585 63.2702 34.4653 63.2772 34.471C63.291 34.4826 63.3021 34.4906 63.3105 34.4961C63.3274 34.5072 63.3342 34.5088 63.3302 34.5075C63.3273 34.5066 63.307 34.5002 63.2654 34.5002C63.2236 34.5002 63.1486 34.5067 63.0367 34.5421L62.4329 32.6354C63.0335 32.4452 63.5471 32.4749 63.9488 32.6056C64.1428 32.6687 64.2969 32.7509 64.4115 32.8264C64.4687 32.8641 64.5163 32.9003 64.5544 32.932C64.5735 32.9478 64.5903 32.9626 64.6049 32.976C64.6122 32.9826 64.6189 32.989 64.6251 32.9949C64.6282 32.9979 64.6311 33.0007 64.634 33.0035C64.6354 33.0049 64.6367 33.0062 64.6381 33.0076C64.6388 33.0082 64.6394 33.0089 64.6401 33.0096C64.6404 33.0099 64.6409 33.0104 64.6411 33.0105C64.6415 33.011 64.642 33.0115 63.9339 33.7176ZM62.7348 33.5888C61.8152 33.1958 61.8146 33.1973 61.814 33.1987C61.8138 33.1992 61.8132 33.2007 61.8128 33.2017C61.812 33.2036 61.8111 33.2056 61.8103 33.2075C61.8087 33.2115 61.8071 33.2154 61.8055 33.2194C61.8023 33.2274 61.7992 33.2356 61.7962 33.2439C61.7902 33.2604 61.7844 33.2777 61.779 33.2957C61.7683 33.3315 61.7588 33.3714 61.7523 33.415C61.7392 33.5027 61.7374 33.6092 61.7644 33.7245C61.8263 33.989 61.9924 34.1257 62.0652 34.1681C62.113 34.196 62.0733 34.1579 61.8344 34.1281C61.6055 34.0996 61.2433 34.0846 60.6909 34.1149L60.5816 32.1179C61.2069 32.0836 61.696 32.0955 62.0814 32.1434C62.4568 32.1902 62.7945 32.2782 63.0726 32.4403C63.3755 32.617 63.6246 32.8959 63.7119 33.2691C63.7516 33.4389 63.7482 33.5913 63.7302 33.7114C63.7212 33.7712 63.7086 33.8239 63.6952 33.8684C63.6885 33.8908 63.6816 33.9114 63.6747 33.9303C63.6713 33.9397 63.6679 33.9487 63.6645 33.9572C63.6628 33.9615 63.6611 33.9657 63.6594 33.9698C63.6585 33.9718 63.6577 33.9738 63.6569 33.9758C63.6564 33.9768 63.6558 33.9783 63.6556 33.9788C63.655 33.9803 63.6544 33.9817 62.7348 33.5888ZM60.393 32.1464L61.0784 31.9746L61.5648 33.9145L60.8795 34.0864L60.393 32.1464ZM61.1422 33.9283L59.7288 33.6706L60.0876 31.7031L61.5009 31.9608L61.1422 33.9283ZM59.9082 32.6869C59.3069 31.8878 59.3064 31.8882 59.3059 31.8886C59.3057 31.8887 59.3052 31.8891 59.3049 31.8894C59.3042 31.8899 59.3035 31.8904 59.3028 31.8909C59.3014 31.892 59.3001 31.893 59.2987 31.8941C59.296 31.8962 59.2933 31.8983 59.2906 31.9004C59.2852 31.9046 59.2798 31.9089 59.2745 31.9133C59.2639 31.9221 59.2533 31.9312 59.2428 31.9407C59.222 31.9597 59.2005 31.9811 59.1793 32.0054C59.1377 32.0531 59.0905 32.1194 59.0543 32.2066C59.0165 32.2976 58.9949 32.4019 58.9994 32.5107C59.0038 32.6186 59.0326 32.6992 59.056 32.7461L60.8462 31.8545C61.0349 32.2333 61.0431 32.6323 60.9013 32.9739C60.8383 33.1254 60.7563 33.2401 60.6866 33.32C60.6513 33.3604 60.6175 33.3939 60.5878 33.4209C60.5729 33.4345 60.5588 33.4466 60.5457 33.4574C60.5391 33.4628 60.5328 33.4678 60.5268 33.4726C60.5238 33.4749 60.5208 33.4772 60.518 33.4795C60.5165 33.4806 60.5151 33.4817 60.5137 33.4827C60.513 33.4833 60.5123 33.4838 60.5116 33.4843C60.5112 33.4846 60.5107 33.485 60.5105 33.4851C60.51 33.4855 60.5095 33.4859 59.9082 32.6869ZM59.0562 32.7465C59.1337 32.902 59.235 32.9947 59.2916 33.0392C59.3514 33.0864 59.401 33.1111 59.4238 33.1215C59.4681 33.1417 59.4821 33.1402 59.4508 33.1348C59.3924 33.1248 59.2782 33.1189 59.1416 33.1417C58.8641 33.1881 58.6758 33.3122 58.5827 33.5062L56.7797 32.6406C57.2433 31.6749 58.1257 31.2837 58.8119 31.169C59.1571 31.1114 59.4979 31.1135 59.7902 31.1638C59.9342 31.1886 60.0975 31.2304 60.2552 31.3025C60.3716 31.3557 60.6733 31.5078 60.846 31.8541L59.0562 32.7465ZM57.6812 33.0734C58.3893 32.3673 58.3896 32.3676 58.39 32.368C58.3902 32.3681 58.3905 32.3685 58.3908 32.3688C58.3913 32.3693 58.3918 32.3698 58.3924 32.3704C58.3934 32.3715 58.3946 32.3726 58.3957 32.3738C58.398 32.3761 58.4005 32.3787 58.4032 32.3814C58.4084 32.3869 58.4144 32.3932 58.4209 32.4003C58.434 32.4143 58.4495 32.4316 58.4668 32.452C58.501 32.4922 58.5446 32.5471 58.5901 32.6149C58.6739 32.7395 58.8012 32.9616 58.8497 33.253C58.9033 33.5755 58.8539 33.9631 58.5978 34.3146C58.3628 34.637 58.0231 34.833 57.6812 34.9577L56.996 33.0787C57.1251 33.0316 57.0639 33.0235 56.9814 33.1367C56.9374 33.197 56.9008 33.2746 56.8822 33.3636C56.8641 33.4499 56.8675 33.5253 56.8767 33.5809C56.893 33.6791 56.9294 33.7293 56.9302 33.7305C56.9342 33.7366 56.9383 33.7419 56.9434 33.7478C56.9461 33.751 56.9497 33.7551 56.9544 33.7602C56.9568 33.7627 56.9595 33.7656 56.9626 33.7688C56.9641 33.7704 56.9658 33.7721 56.9675 33.7739C56.9684 33.7748 56.9693 33.7757 56.9702 33.7766C56.9707 33.7771 56.9712 33.7776 56.9716 33.7781C56.9719 33.7783 56.9722 33.7787 56.9724 33.7788C56.9727 33.7791 56.9731 33.7795 57.6812 33.0734ZM57.3386 34.0182C56.7967 34.8586 56.7969 34.8587 56.7971 34.8588C56.7971 34.8589 56.7973 34.859 56.7974 34.859C56.7976 34.8592 56.7977 34.8593 56.7979 34.8594C56.7982 34.8596 56.7984 34.8597 56.7986 34.8598C56.7989 34.86 56.799 34.8601 56.7988 34.8599C56.7984 34.8597 56.7969 34.8587 56.7943 34.8572C56.7893 34.854 56.7801 34.8483 56.7672 34.8405C56.7414 34.8248 56.7008 34.8008 56.6483 34.7714C56.5422 34.7121 56.3927 34.6338 56.2207 34.5587C55.8392 34.3919 55.4977 34.3078 55.2881 34.3269L55.1063 32.3352C55.8389 32.2684 56.5682 32.5278 57.0218 32.7261C57.2674 32.8334 57.4765 32.9431 57.6248 33.026C57.6994 33.0678 57.7599 33.1035 57.8032 33.1297C57.825 33.1429 57.8425 33.1537 57.8555 33.1619C57.8619 33.1659 57.8673 33.1693 57.8715 33.172C57.8736 33.1733 57.8754 33.1744 57.8769 33.1754C57.8776 33.1759 57.8783 33.1763 57.8789 33.1767C57.8792 33.1769 57.8795 33.1771 57.8797 33.1772C57.8799 33.1773 57.88 33.1774 57.8801 33.1775C57.8803 33.1776 57.8805 33.1777 57.3386 34.0182ZM55.1972 33.3311C54.5235 34.0701 54.5233 34.07 54.5232 34.0698C54.5231 34.0697 54.5229 34.0696 54.5228 34.0695C54.5225 34.0692 54.5223 34.069 54.522 34.0687C54.5215 34.0682 54.5209 34.0677 54.5203 34.0672C54.5191 34.0661 54.5178 34.0648 54.5163 34.0635C54.5134 34.0608 54.5101 34.0577 54.5062 34.0541C54.4986 34.0469 54.4892 34.0379 54.4782 34.0272C54.4564 34.0058 54.4279 33.9772 54.3951 33.9423C54.3304 33.8736 54.2434 33.7746 54.1545 33.653C54.0043 33.4477 53.7261 33.0156 53.7261 32.4722H55.7261C55.7261 32.4006 55.7078 32.3683 55.7154 32.3858C55.7221 32.4009 55.7386 32.4311 55.7688 32.4724C55.7976 32.5118 55.8284 32.5471 55.8521 32.5723C55.8634 32.5843 55.8718 32.5926 55.8756 32.5964C55.8775 32.5982 55.8782 32.5989 55.8775 32.5982C55.8772 32.5979 55.8765 32.5972 55.8753 32.5962C55.8748 32.5957 55.8741 32.5951 55.8734 32.5944C55.873 32.594 55.8726 32.5937 55.8722 32.5933C55.872 32.5931 55.8718 32.5929 55.8715 32.5927C55.8714 32.5926 55.8712 32.5924 55.8712 32.5924C55.871 32.5922 55.8708 32.592 55.1972 33.3311ZM54.7261 32.4722C54.2394 33.3457 54.2397 33.3459 54.24 33.346C54.24 33.3461 54.2403 33.3462 54.2405 33.3463C54.2409 33.3466 54.2412 33.3467 54.2416 33.3469C54.2423 33.3473 54.2429 33.3477 54.2435 33.348C54.2447 33.3487 54.2458 33.3493 54.2467 33.3497C54.2484 33.3507 54.2496 33.3513 54.2501 33.3516C54.2511 33.3521 54.2496 33.3513 54.2459 33.3494C54.2383 33.3457 54.2222 33.3379 54.1987 33.3278C54.1507 33.3072 54.0787 33.2798 53.9926 33.2574C53.8079 33.2094 53.6358 33.2038 53.5015 33.2487L52.8673 31.3519C53.5037 31.1391 54.1026 31.2195 54.496 31.3218C54.699 31.3746 54.8678 31.4385 54.9885 31.4903C55.0494 31.5165 55.0994 31.5402 55.1371 31.559C55.1559 31.5684 55.1718 31.5766 55.1845 31.5832C55.1908 31.5866 55.1963 31.5896 55.2011 31.5921C55.2034 31.5934 55.2056 31.5946 55.2076 31.5957C55.2085 31.5962 55.2095 31.5967 55.2103 31.5972C55.2108 31.5975 55.2112 31.5977 55.2116 31.5979C55.2118 31.598 55.2121 31.5982 55.2122 31.5983C55.2125 31.5984 55.2128 31.5986 54.7261 32.4722ZM53.1844 32.3003C52.3304 32.8207 52.3306 32.821 52.3308 32.8213C52.3309 32.8214 52.3311 32.8218 52.3312 32.822C52.3315 32.8224 52.3317 32.8228 52.332 32.8232C52.3325 32.824 52.333 32.8248 52.3334 32.8255C52.3343 32.8269 52.3351 32.8282 52.3358 32.8293C52.3372 32.8316 52.3383 32.8333 52.339 32.8344C52.3404 32.8366 52.3405 32.8367 52.3394 32.835C52.337 32.8315 52.3302 32.822 52.3198 32.809C52.2967 32.7802 52.2687 32.7508 52.2425 32.73C52.2149 32.7082 52.2158 32.7167 52.2481 32.7251C52.2946 32.7371 52.3475 32.7332 52.38 32.721L51.676 30.8489C52.4745 30.5487 53.1322 30.8835 53.4839 31.162C53.6611 31.3022 53.7937 31.45 53.8803 31.5581C53.9248 31.6136 53.9602 31.6624 53.9862 31.7002C53.9993 31.7192 54.0102 31.7356 54.0189 31.749C54.0232 31.7557 54.027 31.7617 54.0302 31.7669C54.0319 31.7695 54.0334 31.7719 54.0347 31.774C54.0354 31.7751 54.036 31.7762 54.0366 31.7772C54.0369 31.7776 54.0372 31.7781 54.0375 31.7786C54.0377 31.7788 54.0379 31.7792 54.0379 31.7793C54.0381 31.7796 54.0383 31.78 53.1844 32.3003ZM52.028 31.7849C51.5482 32.6623 51.5478 32.6621 51.5473 32.6618C51.5472 32.6617 51.5467 32.6615 51.5464 32.6613C51.5458 32.661 51.5452 32.6607 51.5445 32.6603C51.5432 32.6596 51.5419 32.6588 51.5405 32.658C51.5376 32.6565 51.5345 32.6547 51.5312 32.6528C51.5245 32.649 51.5167 32.6445 51.508 32.6394C51.4907 32.6291 51.4694 32.6161 51.4451 32.6003C51.3973 32.5692 51.3338 32.525 51.2642 32.4678C51.1407 32.3664 50.9247 32.1654 50.7882 31.8596C50.6291 31.5029 50.6027 31.0473 50.848 30.6086C51.0591 30.2308 51.414 29.9719 51.7807 29.7811L52.7035 31.5555C52.4921 31.6655 52.5311 31.6964 52.5937 31.5844C52.6312 31.5175 52.6636 31.4216 52.666 31.3069C52.6684 31.1958 52.6418 31.1054 52.6147 31.0447C52.589 30.9872 52.5617 30.953 52.5507 30.94C52.5443 30.9326 52.5395 30.9278 52.5371 30.9255C52.5359 30.9243 52.5349 30.9235 52.5344 30.923C52.5338 30.9225 52.5335 30.9223 52.5335 30.9222C52.5335 30.9222 52.5336 30.9223 52.5338 30.9225C52.534 30.9226 52.5343 30.9228 52.5345 30.923C52.5351 30.9234 52.5352 30.9235 52.5344 30.9229C52.5336 30.9224 52.5314 30.921 52.5274 30.9186C52.5253 30.9174 52.5227 30.9159 52.5195 30.9141C52.5179 30.9132 52.5161 30.9122 52.5142 30.9111C52.5132 30.9105 52.5122 30.91 52.5111 30.9094C52.5106 30.9091 52.5101 30.9088 52.5095 30.9085C52.5092 30.9083 52.5088 30.9081 52.5087 30.908C52.5082 30.9078 52.5078 30.9076 52.028 31.7849ZM52.2421 30.6683C51.3001 30.3327 51.2999 30.3332 51.2997 30.3337C51.2997 30.3339 51.2995 30.3344 51.2994 30.3347C51.2991 30.3354 51.2989 30.3361 51.2987 30.3367C51.2982 30.3381 51.2978 30.3394 51.2973 30.3407C51.2964 30.3432 51.2956 30.3457 51.2948 30.3481C51.2932 30.3528 51.2917 30.3572 51.2905 30.3613C51.2879 30.3694 51.2859 30.3762 51.2844 30.382C51.2813 30.3934 51.2796 30.4018 51.2785 30.4084C51.2768 30.4188 51.2748 30.4363 51.2784 30.4618C51.2825 30.4915 51.2946 30.5332 51.3215 30.5734C51.35 30.6158 51.371 30.6207 51.3423 30.6054L52.2855 28.8417C52.9116 29.1765 53.1925 29.7038 53.2595 30.1877C53.2898 30.4065 53.2743 30.5957 53.2525 30.7296C53.2414 30.798 53.228 30.856 53.2157 30.9016C53.2095 30.9245 53.2036 30.9446 53.1982 30.9617C53.1955 30.9702 53.193 30.978 53.1906 30.9851C53.1894 30.9886 53.1883 30.992 53.1872 30.9951C53.1867 30.9967 53.1861 30.9982 53.1856 30.9997C53.1853 31.0004 53.1851 31.0012 53.1848 31.0019C53.1847 31.0022 53.1845 31.0028 53.1845 31.0029C53.1843 31.0035 53.1841 31.004 52.2421 30.6683ZM51.8139 29.7235C51.7034 28.7297 51.7027 28.7297 51.702 28.7298C51.7018 28.7299 51.7011 28.7299 51.7007 28.73C51.6998 28.7301 51.6988 28.7302 51.6979 28.7303C51.6961 28.7305 51.6943 28.7307 51.6925 28.7309C51.689 28.7314 51.6854 28.7318 51.6819 28.7323C51.6749 28.7332 51.6681 28.7342 51.6613 28.7353C51.6479 28.7374 51.6349 28.7399 51.6223 28.7425C51.5972 28.7479 51.5723 28.7546 51.5476 28.7632C51.499 28.78 51.4442 28.8063 51.3913 28.8483C51.3353 28.8926 51.2929 28.9454 51.2666 28.9971C51.241 29.0471 51.2431 29.0711 51.245 29.046L53.2392 29.1986C53.1984 29.7312 52.9717 30.148 52.6326 30.4164C52.478 30.5388 52.3242 30.6108 52.202 30.6531C52.1405 30.6744 52.0852 30.6888 52.0388 30.6987C52.0156 30.7036 51.9942 30.7075 51.9751 30.7105C51.9656 30.7121 51.9566 30.7134 51.9481 30.7145C51.9439 30.7151 51.9398 30.7156 51.9358 30.7161C51.9339 30.7163 51.9319 30.7166 51.93 30.7168C51.9291 30.7169 51.9281 30.717 51.9272 30.7171C51.9267 30.7172 51.926 30.7172 51.9258 30.7173C51.9251 30.7174 51.9244 30.7174 51.8139 29.7235ZM52.2421 29.1223C51.813 30.0256 51.8134 30.0258 51.8138 30.026C51.8139 30.026 51.8143 30.0262 51.8146 30.0263C51.8151 30.0266 51.8156 30.0268 51.8162 30.0271C51.8172 30.0275 51.8181 30.028 51.8191 30.0284C51.8209 30.0293 51.8226 30.0301 51.8241 30.0308C51.8272 30.0322 51.8297 30.0333 51.8315 30.0341C51.8352 30.0357 51.8365 30.0362 51.8358 30.0359C51.8341 30.0352 51.8248 30.0316 51.8094 30.0269C51.7768 30.0168 51.7289 30.0054 51.6755 30.0015C51.5774 29.9942 51.4925 30.01 51.4028 30.0887L50.0837 28.5854C50.6792 28.0628 51.3437 27.9713 51.8237 28.007C52.0594 28.0245 52.2577 28.0722 52.3991 28.1158C52.4707 28.1379 52.5303 28.1597 52.5758 28.1779C52.5987 28.187 52.6182 28.1952 52.6341 28.2022C52.6421 28.2057 52.6492 28.2089 52.6553 28.2117C52.6584 28.2131 52.6613 28.2144 52.664 28.2157C52.6653 28.2163 52.6665 28.2169 52.6677 28.2174C52.6683 28.2177 52.6689 28.218 52.6695 28.2183C52.6698 28.2184 52.6702 28.2186 52.6704 28.2187C52.6708 28.2189 52.6712 28.2191 52.2421 29.1223ZM50.7433 29.337C50.1757 30.1603 50.1762 30.1607 50.1767 30.161C50.1769 30.1612 50.1774 30.1615 50.1778 30.1618C50.1785 30.1622 50.1791 30.1627 50.1798 30.1632C50.1812 30.1641 50.1825 30.165 50.1838 30.1659C50.1864 30.1676 50.1888 30.1692 50.1912 30.1708C50.1958 30.1738 50.2 30.1765 50.2036 30.1788C50.2109 30.1834 50.2162 30.1865 50.2195 30.1883C50.2262 30.1921 50.2253 30.1912 50.2173 30.1877C50.2013 30.1807 50.1571 30.1634 50.086 30.1516C49.9543 30.1296 49.6775 30.1166 49.2537 30.2988L48.464 28.4613C49.2394 28.128 49.9048 28.0936 50.4156 28.1789C50.6657 28.2207 50.8677 28.2893 51.0177 28.3548C51.0926 28.3875 51.1546 28.4195 51.2034 28.4471C51.2279 28.4609 51.249 28.4736 51.2669 28.4849C51.2759 28.4905 51.284 28.4958 51.2914 28.5006C51.295 28.503 51.2985 28.5053 51.3017 28.5075C51.3034 28.5086 51.3049 28.5096 51.3065 28.5107C51.3072 28.5112 51.308 28.5117 51.3087 28.5122C51.3091 28.5125 51.3096 28.5129 51.3098 28.513C51.3103 28.5134 51.3109 28.5137 50.7433 29.337ZM48.8588 29.38C48.4903 30.3096 48.4906 30.3098 48.4909 30.3099C48.4911 30.3099 48.4914 30.3101 48.4916 30.3101C48.492 30.3103 48.4924 30.3104 48.4927 30.3106C48.4934 30.3109 48.494 30.3111 48.4945 30.3113C48.4955 30.3117 48.4961 30.3119 48.4962 30.312C48.4966 30.3121 48.4953 30.3116 48.4924 30.3105C48.4866 30.3084 48.4746 30.3041 48.4569 30.2981C48.4214 30.2861 48.3634 30.2677 48.287 30.2472C48.1328 30.2057 47.9109 30.1578 47.6507 30.1344C47.1212 30.087 46.5065 30.1467 45.9617 30.4863L44.9037 28.7891C45.9434 28.1409 47.0419 28.0718 47.8293 28.1424C48.2275 28.1782 48.565 28.251 48.8057 28.3156C48.9266 28.3481 49.0249 28.379 49.0963 28.403C49.132 28.4151 49.1611 28.4255 49.1831 28.4336C49.1941 28.4376 49.2033 28.4411 49.2107 28.4439C49.2144 28.4454 49.2177 28.4466 49.2204 28.4477C49.2218 28.4482 49.2231 28.4487 49.2243 28.4492C49.2248 28.4494 49.2254 28.4496 49.2259 28.4498C49.2262 28.4499 49.2265 28.4501 49.2267 28.4501C49.227 28.4503 49.2274 28.4504 48.8588 29.38ZM45.4327 30.6377H44.6619V28.6377H45.4327V30.6377ZM44.6619 29.6377C45.2347 30.4574 45.2343 30.4577 45.2338 30.458C45.2337 30.4581 45.2332 30.4584 45.2329 30.4586C45.2322 30.4591 45.2316 30.4595 45.2309 30.46C45.2296 30.4609 45.2281 30.4619 45.2265 30.463C45.2234 30.4651 45.22 30.4675 45.2161 30.4701C45.2084 30.4753 45.1991 30.4814 45.1884 30.4883C45.167 30.5022 45.1396 30.5193 45.1066 30.5388C45.0408 30.5776 44.9513 30.6266 44.8413 30.6776C44.6239 30.7785 44.3112 30.8947 43.9324 30.9495C43.1314 31.0654 42.1132 30.8896 41.2016 29.946L42.64 28.5564C43.0561 28.9871 43.4085 29.0045 43.646 28.9701C43.7865 28.9498 43.9102 28.9049 43.9993 28.8635C44.0425 28.8434 44.0738 28.826 44.0905 28.8161C44.0987 28.8113 44.1029 28.8085 44.1029 28.8086C44.1029 28.8086 44.1017 28.8093 44.0994 28.8109C44.0983 28.8116 44.0968 28.8126 44.0951 28.8138C44.0942 28.8144 44.0933 28.8151 44.0923 28.8158C44.0918 28.8161 44.0912 28.8165 44.0907 28.8169C44.0904 28.817 44.09 28.8173 44.0899 28.8174C44.0894 28.8177 44.089 28.818 44.6619 29.6377ZM41.9208 29.2512C42.2158 30.2067 42.2163 30.2065 42.2169 30.2063C42.2171 30.2063 42.2176 30.2061 42.218 30.206C42.2187 30.2058 42.2195 30.2055 42.2202 30.2053C42.2217 30.2048 42.2231 30.2044 42.2245 30.204C42.2273 30.2031 42.2299 30.2022 42.2325 30.2014C42.2376 30.1997 42.2423 30.1981 42.2465 30.1966C42.2549 30.1936 42.2617 30.191 42.2668 30.189C42.2772 30.1849 42.2813 30.1827 42.2802 30.1833C42.2782 30.1843 42.2555 30.196 42.2201 30.2244C42.1536 30.2778 42.0175 30.4094 41.891 30.6914L40.0663 29.8725C40.3252 29.2955 40.6603 28.9118 40.9685 28.6645C41.1204 28.5426 41.261 28.4577 41.3754 28.3996C41.4326 28.3706 41.4832 28.3483 41.5255 28.3315C41.5466 28.323 41.5657 28.3159 41.5825 28.31C41.5909 28.3071 41.5987 28.3044 41.606 28.302C41.6096 28.3008 41.6131 28.2997 41.6164 28.2986C41.618 28.2981 41.6197 28.2976 41.6213 28.2971C41.6221 28.2968 41.6228 28.2966 41.6236 28.2964C41.624 28.2962 41.6246 28.2961 41.6248 28.296C41.6253 28.2958 41.6259 28.2956 41.9208 29.2512ZM40.9786 30.2819C41.5489 31.1034 41.5488 31.1035 41.5487 31.1035C41.5486 31.1036 41.5485 31.1036 41.5485 31.1037C41.5483 31.1038 41.5481 31.1039 41.5479 31.1041C41.5475 31.1043 41.5471 31.1046 41.5466 31.105C41.5455 31.1057 41.5442 31.1066 41.5426 31.1077C41.5395 31.1099 41.5352 31.1128 41.53 31.1164C41.5194 31.1236 41.5048 31.1335 41.4863 31.1459C41.4495 31.1706 41.3973 31.2052 41.3326 31.2469C41.2036 31.3299 41.0222 31.4429 40.8107 31.5636C40.409 31.793 39.8187 32.0975 39.2519 32.2397L38.7654 30.2997C39.0551 30.2271 39.4498 30.0376 39.819 29.8269C39.9929 29.7275 40.1434 29.6338 40.2499 29.5652C40.303 29.5311 40.3445 29.5036 40.3719 29.4852C40.3855 29.476 40.3956 29.4692 40.4019 29.4649C40.405 29.4628 40.4071 29.4613 40.4082 29.4606C40.4087 29.4602 40.409 29.46 40.4091 29.46C40.4091 29.46 40.409 29.46 40.4089 29.4601C40.4089 29.4601 40.4088 29.4602 40.4087 29.4602C40.4086 29.4603 40.4086 29.4603 40.4085 29.4603C40.4085 29.4604 40.4084 29.4605 40.9786 30.2819ZM39.0086 31.2697C39.7167 31.9759 39.7169 31.9756 39.7172 31.9754C39.7172 31.9753 39.7174 31.9751 39.7176 31.975C39.7179 31.9747 39.7181 31.9744 39.7184 31.9741C39.7189 31.9736 39.7194 31.9731 39.7199 31.9727C39.7207 31.9718 39.7214 31.9711 39.722 31.9705C39.7231 31.9694 39.7235 31.969 39.7233 31.9692C39.7229 31.9695 39.7201 31.9725 39.7153 31.9778C39.7056 31.9885 39.688 32.0083 39.6654 32.0361C39.6193 32.0929 39.5569 32.1768 39.4972 32.279C39.3688 32.4985 39.3028 32.7145 39.3193 32.8971L37.3275 33.0777C37.2584 32.3155 37.535 31.6726 37.7706 31.2696C37.8929 31.0604 38.0179 30.892 38.1137 30.7743C38.162 30.7149 38.204 30.667 38.2361 30.6317C38.2521 30.6141 38.2658 30.5995 38.2767 30.5881C38.2822 30.5824 38.2869 30.5775 38.2909 30.5734C38.2929 30.5713 38.2947 30.5695 38.2963 30.5678C38.2971 30.567 38.2979 30.5663 38.2986 30.5655C38.299 30.5652 38.2993 30.5648 38.2996 30.5645C38.2998 30.5643 38.3 30.5641 38.3001 30.564C38.3004 30.5638 38.3006 30.5635 39.0086 31.2697ZM38.3234 32.9874C39.0925 33.6265 39.0923 33.6268 39.0921 33.627C39.092 33.6271 39.0918 33.6274 39.0917 33.6276C39.0914 33.6279 39.091 33.6283 39.0907 33.6287C39.09 33.6295 39.0893 33.6304 39.0885 33.6313C39.087 33.6331 39.0852 33.6352 39.0832 33.6376C39.0792 33.6423 39.0744 33.6479 39.0686 33.6546C39.0571 33.6678 39.0421 33.6848 39.0236 33.7051C38.9868 33.7457 38.9358 33.7997 38.8716 33.8633C38.7435 33.99 38.5596 34.1576 38.3249 34.3342C37.8611 34.6831 37.1639 35.0927 36.2812 35.2586L35.9116 33.2931C36.3993 33.2014 36.8157 32.9667 37.1227 32.7358C37.2735 32.6224 37.3894 32.5163 37.4647 32.4417C37.5022 32.4046 37.5289 32.3761 37.5442 32.3593C37.5518 32.3509 37.5566 32.3455 37.5583 32.3435C37.5592 32.3425 37.5593 32.3424 37.5586 32.3432C37.5583 32.3436 37.5577 32.3442 37.557 32.345C37.5567 32.3454 37.5563 32.3459 37.5558 32.3465C37.5556 32.3467 37.5553 32.347 37.5551 32.3473C37.555 32.3475 37.5548 32.3477 37.5547 32.3478C37.5545 32.348 37.5543 32.3483 38.3234 32.9874ZM36.0964 34.2759C36.6522 35.1072 36.6524 35.107 36.6527 35.1069C36.6527 35.1068 36.653 35.1067 36.6531 35.1066C36.6534 35.1064 36.6537 35.1062 36.654 35.106C36.6545 35.1056 36.655 35.1053 36.6555 35.105C36.6564 35.1043 36.6572 35.1038 36.6579 35.1033C36.6592 35.1024 36.66 35.1019 36.6603 35.1017C36.6609 35.1013 36.6594 35.1023 36.6562 35.1046C36.6496 35.1094 36.6363 35.1193 36.6181 35.1338C36.5809 35.1636 36.5279 35.2092 36.472 35.2669C36.3475 35.3955 36.2727 35.5178 36.2491 35.6066L34.3162 35.0926C34.4639 34.5372 34.796 34.1226 35.0355 33.8754C35.1616 33.7452 35.2799 33.6431 35.3686 33.5722C35.4133 33.5365 35.4515 33.5078 35.4807 33.4865C35.4954 33.4758 35.5079 33.467 35.518 33.46C35.523 33.4565 35.5274 33.4535 35.5312 33.4509C35.5331 33.4496 35.5348 33.4484 35.5364 33.4474C35.5372 33.4468 35.5379 33.4463 35.5386 33.4459C35.539 33.4456 35.5393 33.4454 35.5396 33.4452C35.5398 33.4451 35.54 33.4449 35.5401 33.4449C35.5403 33.4447 35.5406 33.4446 36.0964 34.2759ZM35.2827 35.3496C35.2827 36.3496 35.2835 36.3496 35.2843 36.3496C35.2845 36.3496 35.2853 36.3496 35.2858 36.3496C35.2869 36.3496 35.2879 36.3496 35.2889 36.3496C35.291 36.3496 35.293 36.3496 35.295 36.3495C35.299 36.3495 35.3028 36.3494 35.3065 36.3493C35.3138 36.3491 35.3206 36.3489 35.3268 36.3485C35.3393 36.3478 35.3498 36.3469 35.3583 36.346C35.3754 36.3441 35.3853 36.3419 35.3895 36.3409C35.3988 36.3386 35.3837 36.3407 35.3527 36.3604C35.3048 36.3908 35.1122 36.5296 34.9406 37.0145L33.0552 36.3473C33.3547 35.5009 33.8045 34.9741 34.2812 34.6716C34.5125 34.5249 34.7303 34.4439 34.9068 34.4C34.9947 34.3781 35.0719 34.3656 35.1353 34.3585C35.167 34.3549 35.1953 34.3527 35.22 34.3514C35.2323 34.3507 35.2437 34.3503 35.2542 34.35C35.2594 34.3499 35.2644 34.3498 35.2691 34.3497C35.2715 34.3497 35.2738 34.3497 35.2761 34.3496C35.2772 34.3496 35.2783 34.3496 35.2794 34.3496C35.28 34.3496 35.2808 34.3496 35.2811 34.3496C35.2819 34.3496 35.2827 34.3496 35.2827 35.3496ZM33.9979 36.6809C34.6236 37.461 34.6237 37.4609 34.6238 37.4608C34.6239 37.4608 34.624 37.4607 34.624 37.4606C34.6242 37.4605 34.6243 37.4604 34.6243 37.4604C34.6245 37.4602 34.6246 37.4602 34.6245 37.4602C34.6245 37.4602 34.6241 37.4606 34.6234 37.4612C34.6219 37.4623 34.6191 37.4646 34.615 37.468C34.6068 37.4747 34.5936 37.4856 34.5759 37.5005C34.5404 37.5303 34.4874 37.5756 34.4217 37.6339C34.2897 37.7512 34.1102 37.9179 33.9213 38.1146C33.5141 38.5384 33.1761 38.9863 33.0587 39.3263L31.1682 38.6737C31.4363 37.8971 32.0405 37.1854 32.4791 36.7289C32.7131 36.4854 32.9325 36.2817 33.0935 36.1386C33.1744 36.0668 33.2415 36.0094 33.2895 35.9691C33.3136 35.9489 33.3329 35.9329 33.3469 35.9214C33.3538 35.9157 33.3595 35.9111 33.3637 35.9077C33.3659 35.906 33.3676 35.9045 33.369 35.9034C33.3697 35.9028 33.3703 35.9023 33.3709 35.9019C33.3711 35.9017 33.3713 35.9015 33.3716 35.9014C33.3717 35.9013 33.3718 35.9012 33.3719 35.9011C33.372 35.901 33.3721 35.9009 33.9979 36.6809ZM32.1134 39C33.0002 38.5377 33.0005 38.5384 33.0009 38.5391C33.001 38.5393 33.0013 38.54 33.0016 38.5404C33.0021 38.5414 33.0026 38.5423 33.0031 38.5433C33.0041 38.5453 33.0052 38.5474 33.0063 38.5497C33.0086 38.5542 33.0111 38.5592 33.0138 38.5647C33.0192 38.5756 33.0254 38.5886 33.0323 38.6036C33.0461 38.6335 33.0626 38.6714 33.0808 38.7171C33.1171 38.8083 33.1601 38.9308 33.2006 39.0826C33.282 39.3867 33.3535 39.8077 33.3435 40.329C33.3233 41.3843 32.9706 42.7812 31.8121 44.3934L30.1879 43.2263C31.128 41.9182 31.332 40.9101 31.3439 40.2907C31.3499 39.9745 31.3063 39.7406 31.2685 39.5992C31.2495 39.5282 31.2319 39.4802 31.2226 39.4567C31.2179 39.445 31.2153 39.4395 31.2157 39.4403C31.2159 39.4407 31.2168 39.4427 31.2186 39.4464C31.2195 39.4482 31.2206 39.4504 31.222 39.4531C31.2227 39.4544 31.2234 39.4558 31.2242 39.4574C31.2246 39.4581 31.225 39.4589 31.2254 39.4598C31.2256 39.4602 31.2259 39.4608 31.226 39.461C31.2264 39.4616 31.2267 39.4623 32.1134 39ZM31.8689 43.3148L32.3827 44.2167L30.645 45.2068L30.1311 44.3049L31.8689 43.3148ZM32.4505 45.062L32.0651 46.0928L30.1918 45.3923L30.5772 44.3615L32.4505 45.062ZM31.1284 45.7425C31.4524 44.7965 31.4531 44.7967 31.4538 44.7969C31.454 44.797 31.4547 44.7973 31.4552 44.7974C31.4562 44.7978 31.4572 44.7981 31.4582 44.7985C31.4603 44.7992 31.4625 44.8 31.4648 44.8008C31.4693 44.8024 31.4744 44.8042 31.4798 44.8062C31.4907 44.8103 31.5033 44.8151 31.5176 44.8207C31.5461 44.8321 31.5812 44.8468 31.622 44.8656C31.7037 44.903 31.8085 44.9564 31.9301 45.0301C32.1738 45.1776 32.4835 45.4057 32.8071 45.7471C33.4617 46.4376 34.133 47.5491 34.4662 49.2911L32.5018 49.6668C32.2353 48.2736 31.7289 47.5169 31.3556 47.123C31.1653 46.9222 30.9985 46.804 30.8942 46.7409C30.8418 46.7092 30.8048 46.6911 30.7881 46.6834C30.7797 46.6796 30.7765 46.6784 30.779 46.6794C30.7802 46.6799 30.7829 46.6809 30.7872 46.6825C30.7893 46.6833 30.7918 46.6842 30.7947 46.6852C30.7961 46.6857 30.7976 46.6862 30.7993 46.6868C30.8001 46.6871 30.8009 46.6874 30.8018 46.6877C30.8022 46.6878 30.8029 46.6881 30.8031 46.6882C30.8038 46.6884 30.8045 46.6886 31.1284 45.7425ZM33.484 49.4789C34.0663 48.666 34.0663 48.666 34.0663 48.666C34.0663 48.666 34.0663 48.666 34.0663 48.666C34.0664 48.666 34.0664 48.6661 34.0665 48.6661C34.0667 48.6663 34.067 48.6664 34.0673 48.6667C34.068 48.6672 34.0691 48.668 34.0705 48.669C34.0734 48.671 34.0777 48.6741 34.0834 48.6782C34.0947 48.6863 34.1117 48.6985 34.1339 48.7144C34.1784 48.7462 34.2442 48.7932 34.329 48.8539C34.4987 48.9751 34.7445 49.1506 35.0493 49.3677C35.6587 49.802 36.5035 50.4024 37.4443 51.0671L36.2903 52.7006C35.3467 52.034 34.4998 51.4319 33.8887 50.9966C33.5832 50.7789 33.3365 50.6028 33.1662 50.4811C33.0811 50.4203 33.015 50.373 32.9702 50.3409C32.9478 50.3249 32.9307 50.3127 32.9192 50.3044C32.9134 50.3003 32.9091 50.2972 32.9061 50.2951C32.9047 50.294 32.9036 50.2932 32.9028 50.2927C32.9024 50.2924 32.9022 50.2922 32.902 50.2921C32.9019 50.292 32.9018 50.292 32.9018 50.292C32.9017 50.2919 32.9017 50.2919 32.9017 50.2919C32.9017 50.2919 32.9017 50.2919 33.484 49.4789ZM36.8673 51.8839C36.5825 50.9253 36.5827 50.9252 36.5828 50.9252C36.5829 50.9251 36.5831 50.9251 36.5833 50.925C36.5836 50.9249 36.584 50.9248 36.5844 50.9247C36.5852 50.9245 36.5863 50.9241 36.5876 50.9238C36.5901 50.923 36.5935 50.922 36.5977 50.9208C36.6061 50.9184 36.6177 50.915 36.6324 50.9108C36.6619 50.9024 36.7038 50.8907 36.7566 50.8763C36.8621 50.8477 37.0119 50.8085 37.1943 50.7649C37.5573 50.6782 38.0589 50.5716 38.6036 50.496C39.1418 50.4214 39.758 50.3718 40.339 50.4155C40.889 50.4569 41.5748 50.5925 42.0967 51.0354L40.8028 52.5604C40.768 52.5309 40.6026 52.441 40.189 52.4099C39.8065 52.3811 39.3466 52.4121 38.8784 52.4771C38.4166 52.5411 37.9814 52.6332 37.6592 52.7102C37.499 52.7484 37.3691 52.7824 37.2805 52.8065C37.2363 52.8185 37.2025 52.828 37.1806 52.8342C37.1697 52.8373 37.1617 52.8396 37.1569 52.841C37.1545 52.8417 37.1529 52.8422 37.1521 52.8424C37.1517 52.8426 37.1515 52.8426 37.1515 52.8426C37.1515 52.8426 37.1516 52.8426 37.1517 52.8426C37.1517 52.8426 37.1518 52.8425 37.1519 52.8425C37.152 52.8425 37.1521 52.8424 36.8673 51.8839ZM41.4498 51.7979C40.977 50.9167 40.9772 50.9166 40.9775 50.9164C40.9776 50.9164 40.9778 50.9162 40.9781 50.9161C40.9785 50.9159 40.979 50.9156 40.9796 50.9153C40.9808 50.9146 40.9822 50.9139 40.984 50.9129C40.9876 50.911 40.9923 50.9085 40.9982 50.9054C41.0099 50.8993 41.0262 50.8908 41.0468 50.8801C41.088 50.8589 41.1466 50.8292 41.2201 50.7931C41.367 50.721 41.5752 50.6227 41.8262 50.5145C42.3226 50.3006 43.012 50.0371 43.7398 49.8682C44.4429 49.7051 45.3081 49.5991 46.0938 49.8209C46.504 49.9366 46.9108 50.1472 47.2467 50.4985C47.5842 50.8514 47.8023 51.2967 47.91 51.8056L45.9533 52.2195C45.9111 52.0199 45.8455 51.9269 45.8012 51.8807C45.7553 51.8327 45.6824 51.7829 45.5505 51.7457C45.2521 51.6615 44.7844 51.679 44.1919 51.8165C43.6242 51.9482 43.0556 52.1625 42.6178 52.3512C42.4017 52.4443 42.2237 52.5284 42.1013 52.5885C42.0402 52.6185 41.9932 52.6424 41.9626 52.6581C41.9474 52.666 41.9362 52.6718 41.9294 52.6754C41.926 52.6772 41.9237 52.6784 41.9226 52.679C41.922 52.6793 41.9217 52.6795 41.9217 52.6795C41.9217 52.6795 41.9218 52.6794 41.9219 52.6794C41.922 52.6793 41.9221 52.6792 41.9222 52.6792C41.9224 52.6791 41.9226 52.679 41.4498 51.7979ZM46.9316 52.0125C47.9276 52.1029 47.9278 52.1006 47.928 52.0984C47.928 52.0976 47.9282 52.0953 47.9283 52.0938C47.9286 52.0908 47.9288 52.0877 47.929 52.0846C47.9295 52.0784 47.9299 52.0722 47.9302 52.0659C47.9309 52.0534 47.9313 52.0405 47.9315 52.0274C47.9319 52.0012 47.9312 51.9739 47.9291 51.9457C47.925 51.8891 47.9155 51.8286 47.8983 51.766C47.8625 51.6361 47.7982 51.5156 47.7096 51.4154C47.6232 51.3176 47.5331 51.261 47.4691 51.2304C47.4375 51.2153 47.412 51.2063 47.3952 51.2012C47.3785 51.1961 47.3688 51.1944 47.3683 51.1943C47.3677 51.1942 47.3745 51.1954 47.3901 51.1967C47.4057 51.198 47.4288 51.1991 47.4604 51.1993C47.5243 51.1995 47.617 51.1954 47.7451 51.1815C48.0032 51.1535 48.3804 51.0883 48.9198 50.9556L49.3975 52.8978C48.2444 53.1814 47.5127 53.251 47.0196 53.1637C46.7596 53.1177 46.4475 53.0073 46.2112 52.74C46.0911 52.6042 46.0125 52.451 45.9702 52.2975C45.9497 52.2231 45.9389 52.153 45.9343 52.0898C45.932 52.0582 45.9313 52.0283 45.9317 52.0004C45.9319 51.9864 45.9323 51.9729 45.933 51.9598C45.9334 51.9533 45.9338 51.9469 45.9342 51.9407C45.9345 51.9375 45.9347 51.9344 45.9349 51.9313C45.9351 51.9298 45.9353 51.9275 45.9353 51.9267C45.9355 51.9245 45.9357 51.9222 46.9316 52.0125ZM49.1587 51.9267C49.6853 51.0766 49.6857 51.0768 49.6861 51.0771C49.6863 51.0772 49.6867 51.0775 49.6871 51.0777C49.6877 51.0781 49.6883 51.0785 49.689 51.0789C49.6903 51.0797 49.6918 51.0806 49.6933 51.0816C49.6964 51.0835 49.6998 51.0857 49.7036 51.0882C49.7112 51.093 49.7202 51.0989 49.7306 51.1059C49.7512 51.1197 49.7773 51.1377 49.8076 51.1597C49.868 51.2037 49.9472 51.2652 50.0355 51.344C50.2083 51.4979 50.4376 51.7368 50.6243 52.0602C50.8143 52.3893 50.9674 52.82 50.9533 53.3314C50.939 53.8468 50.7569 54.364 50.4048 54.8644L48.7693 53.7132C48.931 53.4834 48.9523 53.3404 48.9541 53.276C48.9559 53.2077 48.9378 53.1391 48.8922 53.0602C48.8434 52.9756 48.7729 52.8977 48.7047 52.8369C48.6726 52.8083 48.646 52.7879 48.6308 52.7769C48.6234 52.7714 48.6192 52.7686 48.619 52.7685C48.6189 52.7685 48.6199 52.7691 48.622 52.7705C48.6231 52.7712 48.6245 52.7721 48.6261 52.7731C48.627 52.7736 48.6279 52.7742 48.6289 52.7748C48.6294 52.7751 48.6299 52.7755 48.6304 52.7758C48.6307 52.776 48.6311 52.7762 48.6313 52.7763C48.6317 52.7766 48.6321 52.7768 49.1587 51.9267ZM49.587 54.2888C50.5543 54.035 50.5544 54.0354 50.5545 54.0358C50.5545 54.0359 50.5546 54.0363 50.5547 54.0366C50.5549 54.0372 50.555 54.0378 50.5552 54.0384C50.5555 54.0396 50.5558 54.0408 50.5561 54.0421C50.5568 54.0447 50.5575 54.0476 50.5583 54.0506C50.5598 54.0567 50.5614 54.0637 50.5633 54.0715C50.5669 54.0871 50.5711 54.1061 50.5756 54.1284C50.5845 54.1728 50.5946 54.2304 50.6035 54.2994C50.6212 54.4363 50.6349 54.6232 50.623 54.8424C50.5991 55.2805 50.4701 55.8765 50.0394 56.4412L48.4492 55.2283C48.5753 55.063 48.6176 54.8859 48.6259 54.7336C48.6301 54.6576 48.6251 54.5948 48.62 54.556C48.6176 54.537 48.6153 54.5252 48.6147 54.5221C48.6144 54.5207 48.6145 54.5215 48.6153 54.5248C48.6157 54.5264 48.6162 54.5287 48.617 54.5317C48.6173 54.5332 48.6178 54.5348 48.6182 54.5366C48.6185 54.5375 48.6187 54.5385 48.619 54.5395C48.6191 54.54 48.6192 54.5405 48.6193 54.541C48.6194 54.5413 48.6195 54.5416 48.6196 54.5418C48.6197 54.5422 48.6198 54.5426 49.587 54.2888ZM49.2443 55.8348C50.199 55.5373 50.199 55.5374 50.199 55.5374C50.199 55.5374 50.1991 55.5374 50.1991 55.5375C50.1991 55.5375 50.1991 55.5376 50.1991 55.5377C50.1992 55.5378 50.1992 55.538 50.1993 55.5382C50.1995 55.5387 50.1996 55.5393 50.1999 55.5401C50.2004 55.5417 50.2011 55.5439 50.202 55.5468C50.2037 55.5524 50.2062 55.5605 50.2093 55.5707C50.2156 55.5911 50.2244 55.62 50.235 55.655C50.256 55.7246 50.2844 55.8199 50.3131 55.9206C50.3413 56.0195 50.3721 56.1317 50.3966 56.2327C50.4088 56.2827 50.4216 56.3388 50.4319 56.3939C50.4387 56.4299 50.4584 56.534 50.4584 56.6508H48.4584C48.4584 56.7355 48.4714 56.79 48.4664 56.7637C48.4651 56.7565 48.4612 56.7378 48.4532 56.7053C48.4377 56.6411 48.4149 56.5574 48.3896 56.4684C48.3647 56.3812 48.3396 56.2966 48.3205 56.2334C48.311 56.2019 48.3031 56.1761 48.2976 56.1584C48.2949 56.1496 48.2928 56.1428 48.2914 56.1383C48.2907 56.136 48.2902 56.1344 48.2899 56.1334C48.2897 56.1329 48.2896 56.1325 48.2896 56.1323C48.2895 56.1322 48.2895 56.1322 48.2895 56.1321C48.2895 56.1321 48.2895 56.1321 48.2895 56.1321C48.2895 56.1322 48.2895 56.1322 48.2895 56.1322C48.2895 56.1322 48.2895 56.1322 49.2443 55.8348ZM49.4584 56.6508C50.146 55.9248 50.1461 55.9249 50.1463 55.925C50.1463 55.9251 50.1465 55.9253 50.1466 55.9254C50.1469 55.9256 50.1472 55.9259 50.1475 55.9262C50.1482 55.9269 50.1491 55.9277 50.1502 55.9287C50.1523 55.9308 50.1552 55.9335 50.1588 55.937C50.1659 55.9438 50.176 55.9535 50.1887 55.9657C50.214 55.9903 50.2501 56.0256 50.2953 56.0705C50.3857 56.1602 50.5131 56.289 50.665 56.4491C50.9676 56.768 51.3733 57.2171 51.7803 57.7337C52.1845 58.2467 52.607 58.8477 52.9297 59.4697C53.2429 60.0734 53.515 60.7962 53.4988 61.526L51.4993 61.4817C51.5046 61.2452 51.4073 60.8782 51.1544 60.3907C50.911 59.9216 50.5707 59.4301 50.2093 58.9715C49.8508 58.5164 49.4883 58.1146 49.2141 57.8256C49.0776 57.6817 48.9643 57.5673 48.8862 57.4898C48.8472 57.451 48.8171 57.4216 48.7973 57.4025C48.7875 57.3929 48.7802 57.3859 48.7757 57.3816C48.7734 57.3795 48.7719 57.378 48.7711 57.3772C48.7706 57.3768 48.7704 57.3766 48.7704 57.3765C48.7703 57.3765 48.7704 57.3765 48.7704 57.3766C48.7705 57.3766 48.7705 57.3767 48.7706 57.3767C48.7707 57.3768 48.7708 57.3769 49.4584 56.6508ZM53.1508 62.2623L52.8511 62.5198L51.5476 61.0029L51.8473 60.7454L53.1508 62.2623ZM52.1994 61.7614C53.0796 61.2869 53.0797 61.2871 53.0798 61.2872C53.0798 61.2873 53.0799 61.2875 53.08 61.2876C53.0801 61.2878 53.0803 61.2881 53.0804 61.2884C53.0807 61.289 53.0811 61.2897 53.0815 61.2904C53.0824 61.292 53.0834 61.294 53.0847 61.2963C53.0871 61.301 53.0904 61.3072 53.0944 61.3148C53.1025 61.3301 53.1134 61.3512 53.1268 61.3776C53.1536 61.4303 53.1904 61.5043 53.233 61.5947C53.3175 61.7739 53.4286 62.0252 53.5306 62.3072C53.6308 62.5843 53.7326 62.9194 53.7843 63.2604C53.8324 63.578 53.8582 64.0293 53.6811 64.4605L51.831 63.7007C51.8038 63.7669 51.835 63.7458 51.8069 63.5601C51.7823 63.3978 51.7262 63.1987 51.6497 62.9873C51.5751 62.7807 51.4907 62.5891 51.424 62.4475C51.391 62.3775 51.3632 62.3217 51.3443 62.2846C51.3349 62.2661 51.3278 62.2524 51.3234 62.244C51.3212 62.2398 51.3197 62.237 51.319 62.2356C51.3186 62.235 51.3184 62.2346 51.3184 62.2346C51.3185 62.2347 51.3185 62.2348 51.3186 62.235C51.3187 62.2351 51.3187 62.2352 51.3188 62.2353C51.3189 62.2354 51.3189 62.2355 51.3189 62.2356C51.319 62.2357 51.3191 62.2359 52.1994 61.7614ZM53.6811 64.4604C53.5126 64.8708 53.2443 65.1052 53.1094 65.2262C52.9826 65.3399 52.9426 65.3777 52.8932 65.459C52.7733 65.6562 52.5351 66.2502 52.5141 68.1287L50.5143 68.1063C50.536 66.1626 50.7689 65.1031 51.1843 64.4199C51.4025 64.061 51.6463 63.8518 51.7738 63.7375C51.8932 63.6304 51.8496 63.6554 51.831 63.7008L53.6811 64.4604ZM51.5142 68.1175C52.3312 67.5409 52.3313 67.541 52.3314 67.5411C52.3314 67.5411 52.3315 67.5412 52.3315 67.5413C52.3316 67.5415 52.3318 67.5417 52.332 67.5419C52.3323 67.5424 52.3328 67.5431 52.3334 67.544C52.3346 67.5457 52.3363 67.548 52.3384 67.551C52.3426 67.5571 52.3487 67.5657 52.3564 67.5768C52.3719 67.599 52.3942 67.6311 52.4223 67.6719C52.4785 67.7535 52.5582 67.8702 52.6535 68.013C52.8437 68.2976 53.0988 68.6896 53.3553 69.1146C53.6098 69.5363 53.8761 70.0076 54.082 70.4475C54.1849 70.6674 54.28 70.8948 54.351 71.1146C54.418 71.3218 54.4841 71.5836 54.4841 71.8538H52.4841C52.4841 71.8878 52.4887 71.8558 52.4479 71.7294C52.4112 71.6157 52.3524 71.47 52.2706 71.2954C52.1072 70.9462 51.881 70.5424 51.643 70.1481C51.4071 69.7572 51.1697 69.3922 50.9904 69.1239C50.9011 68.9901 50.8269 68.8814 50.7754 68.8066C50.7496 68.7693 50.7296 68.7405 50.7162 68.7213C50.7096 68.7117 50.7045 68.7046 50.7013 68.7C50.6997 68.6977 50.6985 68.696 50.6978 68.695C50.6975 68.6945 50.6973 68.6942 50.6971 68.694C50.6971 68.694 50.6971 68.6939 50.6971 68.6939L50.6971 68.6939C50.6971 68.694 50.6971 68.694 51.5142 68.1175ZM53.4841 71.8538C54.4761 71.9797 54.4762 71.9794 54.4762 71.979C54.4762 71.9789 54.4763 71.9786 54.4763 71.9784C54.4764 71.978 54.4764 71.9777 54.4764 71.9773C54.4765 71.9767 54.4766 71.9762 54.4766 71.9758C54.4767 71.975 54.4768 71.9748 54.4767 71.9751C54.4766 71.9757 54.4763 71.9784 54.4758 71.9832C54.4749 71.9927 54.4732 72.0101 54.4713 72.0348C54.4675 72.0843 54.4629 72.1621 54.4612 72.2621C54.4579 72.4637 54.4669 72.7472 54.5156 73.0668C54.6151 73.7199 54.8651 74.4304 55.4137 74.95L54.0385 76.4021C53.0454 75.4616 52.6744 74.261 52.5384 73.368C52.4693 72.9146 52.4568 72.5163 52.4615 72.2293C52.4639 72.0851 52.4706 71.9669 52.4772 71.8815C52.4805 71.8388 52.4837 71.8041 52.4864 71.7783C52.4877 71.7653 52.4889 71.7546 52.4899 71.7462C52.4903 71.742 52.4908 71.7384 52.4911 71.7353C52.4913 71.7338 52.4915 71.7324 52.4916 71.7312C52.4917 71.7306 52.4918 71.73 52.4919 71.7295C52.4919 71.7292 52.4919 71.7288 52.492 71.7287C52.492 71.7283 52.4921 71.728 53.4841 71.8538ZM54.7261 75.676C55.6064 75.2015 55.6064 75.2016 55.6064 75.2016C55.6064 75.2017 55.6065 75.2017 55.6065 75.2018C55.6065 75.2018 55.6066 75.202 55.6067 75.2021C55.6068 75.2024 55.607 75.2028 55.6073 75.2032C55.6078 75.2042 55.6085 75.2055 55.6094 75.2072C55.6113 75.2106 55.6139 75.2155 55.6172 75.2218C55.6239 75.2343 55.6336 75.2524 55.6458 75.2753C55.6702 75.3212 55.7048 75.3866 55.7462 75.4659C55.8288 75.6239 55.9398 75.8395 56.0515 76.0664C56.1619 76.2906 56.2791 76.5381 56.3708 76.7565C56.4163 76.8647 56.4615 76.9801 56.4971 77.0897C56.5217 77.1656 56.5826 77.3558 56.5826 77.5657H54.5826C54.5826 77.7005 54.6168 77.7753 54.5946 77.7067C54.5833 77.6719 54.5616 77.6138 54.5268 77.5308C54.4579 77.3667 54.361 77.1605 54.2573 76.9499C54.1548 76.742 54.0517 76.5415 53.9736 76.3921C53.9348 76.3177 53.9025 76.2567 53.88 76.2145C53.8688 76.1934 53.8601 76.177 53.8542 76.1661C53.8513 76.1607 53.8491 76.1566 53.8477 76.154C53.847 76.1526 53.8465 76.1517 53.8462 76.1511C53.846 76.1508 53.8459 76.1506 53.8458 76.1505C53.8458 76.1505 53.8458 76.1505 53.8458 76.1504C53.8458 76.1504 53.8458 76.1505 53.8458 76.1505C53.8458 76.1505 53.8458 76.1505 54.7261 75.676ZM55.5826 77.5657C56.1052 76.7131 56.1056 76.7134 56.106 76.7136C56.1062 76.7137 56.1066 76.7139 56.1069 76.7141C56.1074 76.7145 56.108 76.7148 56.1086 76.7152C56.1097 76.7159 56.111 76.7167 56.1122 76.7174C56.1148 76.719 56.1175 76.7208 56.1205 76.7227C56.1265 76.7264 56.1332 76.7308 56.1407 76.7357C56.1558 76.7456 56.174 76.758 56.1947 76.7727C56.2358 76.802 56.2888 76.8422 56.3476 76.893C56.4594 76.9896 56.621 77.1493 56.7533 77.3725C56.8892 77.6018 57.0114 77.9296 56.9761 78.3251C56.9402 78.7263 56.7531 79.0765 56.4859 79.3636L55.0219 78.001C55.0544 77.9661 54.9958 78.0156 54.984 78.1471C54.9728 78.2728 55.0147 78.3617 55.0329 78.3924C55.0474 78.4169 55.0538 78.4183 55.0398 78.4062C55.0357 78.4026 55.0332 78.4009 55.0345 78.4018C55.0353 78.4024 55.0375 78.404 55.0416 78.4066C55.0436 78.4079 55.0461 78.4096 55.0492 78.4115C55.0507 78.4125 55.0523 78.4135 55.0542 78.4146C55.0551 78.4152 55.056 78.4158 55.057 78.4164C55.0575 78.4167 55.058 78.417 55.0585 78.4173C55.0588 78.4175 55.0591 78.4177 55.0593 78.4178C55.0597 78.418 55.0601 78.4183 55.5826 77.5657ZM55.7539 78.6823C56.7486 78.5797 56.7485 78.5792 56.7485 78.5788C56.7485 78.5787 56.7484 78.5782 56.7484 78.578C56.7483 78.5774 56.7483 78.5769 56.7482 78.5763C56.7481 78.5753 56.748 78.5743 56.7479 78.5734C56.7477 78.5716 56.7475 78.57 56.7474 78.5687C56.7471 78.566 56.7468 78.5644 56.7468 78.5637C56.7466 78.5623 56.7468 78.5644 56.7477 78.5697C56.7495 78.5804 56.7536 78.6022 56.761 78.6312C56.7767 78.6926 56.8022 78.7671 56.8394 78.8348C56.9026 78.95 56.9633 79.0053 57.1128 79.0164L56.9647 81.0109C55.9578 80.9361 55.3761 80.3257 55.0859 79.7967C54.9464 79.5424 54.8676 79.3001 54.823 79.1253C54.8003 79.0362 54.7853 78.96 54.7756 78.9023C54.7707 78.8733 54.7671 78.8486 54.7644 78.8289C54.7631 78.8191 54.762 78.8104 54.7612 78.8031C54.7607 78.7994 54.7603 78.796 54.76 78.793C54.7598 78.7915 54.7597 78.7901 54.7595 78.7887C54.7595 78.788 54.7594 78.7874 54.7593 78.7868C54.7593 78.7864 54.7593 78.786 54.7592 78.7858C54.7592 78.7854 54.7591 78.7849 55.7539 78.6823ZM57.0387 80.0136C56.5686 79.131 56.5689 79.1309 56.5692 79.1307C56.5693 79.1306 56.5697 79.1305 56.5699 79.1303C56.5703 79.1301 56.5708 79.1298 56.5713 79.1296C56.5723 79.1291 56.5734 79.1285 56.5745 79.1279C56.5769 79.1266 56.5796 79.1252 56.5826 79.1237C56.5887 79.1205 56.5961 79.1167 56.6049 79.1123C56.6225 79.1034 56.6455 79.0921 56.6736 79.0788C56.7298 79.0523 56.8069 79.0176 56.9026 78.9789C57.0933 78.9015 57.3615 78.8062 57.6887 78.7258C58.3383 78.5661 59.2556 78.4567 60.2677 78.6971L59.8057 80.643C59.1903 80.4968 58.6087 80.5592 58.1661 80.668C57.9472 80.7218 57.7712 80.7848 57.6541 80.8323C57.5958 80.8559 57.5531 80.8753 57.528 80.8872C57.5155 80.8931 57.5075 80.8971 57.5042 80.8987C57.5025 80.8995 57.5021 80.8998 57.5028 80.8994C57.5032 80.8992 57.5039 80.8988 57.5049 80.8983C57.5054 80.898 57.506 80.8977 57.5067 80.8974C57.507 80.8972 57.5074 80.897 57.5077 80.8968C57.5079 80.8967 57.5082 80.8966 57.5083 80.8965C57.5086 80.8964 57.5089 80.8962 57.0387 80.0136ZM60.2678 78.6971C60.6257 78.7821 61.1715 78.6336 61.8667 78.0816C62.5273 77.5571 63.1272 76.8166 63.5063 76.1894L65.218 77.2239C64.7405 78.014 63.9914 78.9484 63.1103 79.648C62.2639 80.32 61.0752 80.9445 59.8056 80.6429L60.2678 78.6971ZM63.7611 75.9074L64.789 75.1344L65.9911 76.7329L64.9632 77.5059L63.7611 75.9074ZM65.39 75.9337C64.5966 75.325 64.5964 75.3252 64.5963 75.3254C64.5962 75.3255 64.596 75.3257 64.5959 75.3259C64.5957 75.3261 64.5955 75.3264 64.5953 75.3267C64.5949 75.3272 64.5946 75.3276 64.5943 75.328C64.5938 75.3287 64.5934 75.3292 64.5932 75.3295C64.5928 75.33 64.5931 75.3296 64.5941 75.3283C64.596 75.3256 64.6006 75.3194 64.6072 75.31C64.6205 75.2909 64.6417 75.2598 64.6669 75.2193C64.7191 75.1355 64.7799 75.0255 64.8271 74.909C64.9487 74.6086 64.8619 74.5871 64.9149 74.6625L66.5506 73.5115C67.1174 74.3171 66.8593 75.2189 66.681 75.6593C66.5783 75.9132 66.4571 76.1279 66.3647 76.2763C66.3177 76.3519 66.276 76.4137 66.2445 76.4586C66.2287 76.4811 66.2153 76.4996 66.205 76.5136C66.1998 76.5206 66.1954 76.5266 66.1918 76.5314C66.19 76.5338 66.1884 76.5359 66.187 76.5377C66.1863 76.5386 66.1856 76.5395 66.185 76.5403C66.1848 76.5406 66.1845 76.541 66.1842 76.5414C66.1841 76.5415 66.1839 76.5418 66.1838 76.5419C66.1836 76.5421 66.1834 76.5423 65.39 75.9337ZM65.7328 74.087C64.7906 73.7517 64.7908 73.7513 64.7909 73.7509C64.791 73.7508 64.7911 73.7504 64.7912 73.7501C64.7914 73.7496 64.7916 73.7491 64.7918 73.7485C64.7922 73.7474 64.7926 73.7462 64.793 73.745C64.7939 73.7426 64.7949 73.7401 64.7959 73.7374C64.7979 73.7319 64.8002 73.7258 64.8028 73.7191C64.808 73.7057 64.8144 73.6897 64.8221 73.6716C64.8373 73.6354 64.858 73.5898 64.8847 73.5374C64.9373 73.4344 65.0176 73.2967 65.1329 73.1521C65.362 72.8648 65.7732 72.5004 66.4045 72.41L66.688 74.3898C66.7198 74.3852 66.7242 74.3644 66.6965 74.3991C66.6833 74.4157 66.6727 74.4336 66.6664 74.446C66.6637 74.4513 66.663 74.4533 66.6642 74.4504C66.6648 74.4488 66.6661 74.4459 66.6678 74.4413C66.6687 74.439 66.6698 74.4363 66.6709 74.4332C66.6715 74.4316 66.6721 74.4299 66.6728 74.4281C66.6731 74.4272 66.6735 74.4262 66.6738 74.4252C66.674 74.4248 66.6742 74.4243 66.6743 74.4238C66.6744 74.4235 66.6746 74.4231 66.6746 74.423C66.6748 74.4226 66.6749 74.4222 65.7328 74.087ZM66.5463 73.3999C66.5463 72.3999 66.5456 72.3999 66.5449 72.3999C66.5446 72.3999 66.5439 72.3999 66.5435 72.3999C66.5426 72.3999 66.5417 72.3999 66.5408 72.3999C66.5391 72.3999 66.5375 72.3999 66.536 72.3999C66.533 72.4 66.5304 72.4 66.5281 72.4001C66.5237 72.4002 66.5207 72.4003 66.519 72.4004C66.5158 72.4006 66.5176 72.4006 66.5235 72.3999C66.5361 72.3986 66.5616 72.3949 66.5937 72.3865C66.6621 72.3685 66.7256 72.3382 66.773 72.2945C66.7923 72.2767 67.1349 71.9893 66.7814 70.7014L68.71 70.1719C69.17 71.8472 68.9129 73.0415 68.1291 73.7645C67.7749 74.0912 67.3861 74.2461 67.1025 74.3207C66.9586 74.3585 66.8332 74.3781 66.7388 74.3883C66.6913 74.3934 66.6507 74.3963 66.6184 74.3979C66.6022 74.3987 66.588 74.3992 66.5759 74.3995C66.5699 74.3997 66.5644 74.3998 66.5595 74.3998C66.557 74.3998 66.5546 74.3999 66.5525 74.3999C66.5514 74.3999 66.5503 74.3999 66.5493 74.3999C66.5487 74.3999 66.548 74.3999 66.5477 74.3999C66.547 74.3999 66.5463 74.3999 66.5463 73.3999ZM67.7457 70.4366C67.1899 71.2679 67.1892 71.2674 67.1885 71.267C67.1882 71.2668 67.1875 71.2663 67.187 71.266C67.186 71.2653 67.185 71.2647 67.184 71.264C67.182 71.2626 67.1799 71.2612 67.1778 71.2597C67.1735 71.2567 67.1689 71.2536 67.1641 71.2502C67.1546 71.2434 67.144 71.2356 67.1325 71.2269C67.1098 71.2096 67.083 71.1881 67.0537 71.1622C66.9964 71.1115 66.9224 71.038 66.8497 70.9401C66.7035 70.7431 66.5345 70.4043 66.5867 69.9645C66.6379 69.5327 66.8807 69.1897 67.1673 68.932C67.4511 68.6769 67.8375 68.4487 68.3276 68.2329L69.1335 70.0634C68.7458 70.2341 68.5701 70.3603 68.5046 70.4192C68.4419 70.4755 68.5483 70.4064 68.5727 70.2C68.5982 69.9857 68.5121 69.8241 68.4556 69.7479C68.4278 69.7104 68.4003 69.6832 68.3783 69.6637C68.3667 69.6534 68.3547 69.6437 68.3424 69.6344C68.3362 69.6296 68.3297 69.6249 68.3229 69.6201C68.3196 69.6177 68.3161 69.6152 68.3125 69.6128C68.3107 69.6115 68.3089 69.6103 68.3071 69.6091C68.3062 69.6084 68.3052 69.6078 68.3043 69.6072C68.3039 69.6069 68.3032 69.6064 68.3029 69.6062C68.3022 69.6058 68.3015 69.6053 67.7457 70.4366ZM68.7306 69.1482C68.2056 68.297 68.2054 68.2972 68.2052 68.2973C68.2052 68.2973 68.205 68.2974 68.2049 68.2975C68.2046 68.2977 68.2044 68.2978 68.2041 68.298C68.2037 68.2982 68.2032 68.2985 68.2028 68.2988C68.202 68.2993 68.2013 68.2997 68.2008 68.3001C68.1996 68.3008 68.199 68.3012 68.1987 68.3013C68.1983 68.3016 68.1996 68.3008 68.2024 68.299C68.2081 68.2952 68.2196 68.2874 68.2353 68.2761C68.2676 68.2528 68.313 68.2178 68.3605 68.1749C68.409 68.1312 68.4507 68.0873 68.4816 68.0473C68.5136 68.0059 68.5203 67.9864 68.5185 67.9916L70.3988 68.673C70.2305 69.1373 69.9062 69.474 69.7003 69.6599C69.5872 69.7619 69.4827 69.8423 69.4052 69.8982C69.3661 69.9264 69.3327 69.9492 69.3073 69.966C69.2946 69.9745 69.2837 69.9815 69.275 69.987C69.2707 69.9898 69.2669 69.9922 69.2636 69.9943C69.262 69.9953 69.2605 69.9962 69.2591 69.9971C69.2585 69.9975 69.2578 69.9979 69.2572 69.9983C69.2569 69.9984 69.2566 69.9986 69.2563 69.9988C69.2562 69.9989 69.256 69.999 69.2559 69.9991C69.2557 69.9992 69.2555 69.9993 68.7306 69.1482ZM69.4586 68.3323C69.2485 67.3546 69.2482 67.3547 69.248 67.3547C69.2479 67.3548 69.2477 67.3548 69.2475 67.3548C69.2472 67.3549 69.247 67.355 69.2468 67.355C69.2464 67.3551 69.2461 67.3552 69.2459 67.3552C69.2456 67.3553 69.2458 67.3552 69.2466 67.355C69.2481 67.3547 69.2518 67.3539 69.2574 67.3525C69.2687 67.3499 69.2878 67.3453 69.3138 67.3386C69.3658 67.3253 69.4441 67.304 69.5405 67.274C69.736 67.2133 69.992 67.1212 70.2477 66.9951C70.8341 66.706 71.0898 66.4059 71.129 66.1833L73.0987 66.53C72.8809 67.7676 71.809 68.4553 71.132 68.789C70.756 68.9743 70.3964 69.1024 70.1342 69.1839C70.0017 69.2251 69.8907 69.2554 69.8106 69.276C69.7704 69.2863 69.7378 69.2942 69.7138 69.2998C69.7018 69.3026 69.692 69.3048 69.6844 69.3065C69.6806 69.3074 69.6774 69.3081 69.6748 69.3087C69.6735 69.3089 69.6724 69.3092 69.6713 69.3094C69.6708 69.3095 69.6704 69.3096 69.6699 69.3097C69.6697 69.3098 69.6694 69.3098 69.6693 69.3099C69.669 69.3099 69.6688 69.31 69.4586 68.3323ZM72.1138 66.3567C71.1141 66.3793 71.1141 66.3793 71.1141 66.3793C71.1141 66.3793 71.1141 66.3793 71.1141 66.3793C71.1141 66.3792 71.1141 66.3791 71.1141 66.379C71.1141 66.3787 71.1141 66.3784 71.1141 66.3779C71.1141 66.377 71.114 66.3756 71.114 66.3738C71.1139 66.3702 71.1138 66.3648 71.1136 66.3578C71.1133 66.3437 71.1128 66.3231 71.1123 66.2966C71.1111 66.2437 71.1094 66.1675 71.1074 66.0743C71.1034 65.888 71.098 65.6338 71.0926 65.3619C71.082 64.8232 71.071 64.2 71.071 63.9088H73.071C73.071 64.1759 73.0814 64.7767 73.0922 65.3223C73.0976 65.5926 73.1029 65.8456 73.1069 66.0311C73.1089 66.1238 73.1106 66.1996 73.1118 66.2522C73.1123 66.2785 73.1128 66.2989 73.1131 66.3128C73.1133 66.3198 73.1134 66.3251 73.1135 66.3286C73.1135 66.3304 73.1135 66.3318 73.1136 66.3327C73.1136 66.3331 73.1136 66.3334 73.1136 66.3337C73.1136 66.3338 73.1136 66.3339 73.1136 66.3339C73.1136 66.3339 73.1136 66.3339 73.1136 66.334C73.1136 66.334 73.1136 66.334 72.1138 66.3567ZM72.071 63.9088C71.5033 63.0855 71.5028 63.0858 71.5023 63.0862C71.5022 63.0863 71.5017 63.0866 71.5014 63.0868C71.5007 63.0873 71.5001 63.0877 71.4995 63.0882C71.4982 63.0891 71.497 63.0899 71.4958 63.0908C71.4934 63.0924 71.4911 63.0941 71.4889 63.0957C71.4845 63.0988 71.4804 63.1018 71.4767 63.1046C71.4693 63.1102 71.4628 63.1153 71.457 63.1202C71.4461 63.1293 71.4336 63.1407 71.4198 63.1559C71.4046 63.1727 71.3214 63.2648 71.2905 63.435C71.2734 63.5294 71.2753 63.6352 71.3047 63.7401C71.3335 63.8431 71.3798 63.9133 71.4114 63.9512C71.4629 64.0129 71.4598 63.9725 71.2522 63.8844L72.0333 62.0433C72.3825 62.1914 72.7113 62.3872 72.9474 62.6703C73.2149 62.991 73.3313 63.3901 73.2584 63.7919C73.1954 64.1393 73.0104 64.3791 72.9015 64.4992C72.8409 64.5661 72.7835 64.6181 72.7395 64.6549C72.7171 64.6736 72.697 64.6894 72.6801 64.7021C72.6716 64.7085 72.6639 64.7142 72.6569 64.7191C72.6535 64.7216 72.6502 64.7239 72.6472 64.7261C72.6456 64.7272 72.6441 64.7282 72.6427 64.7292C72.642 64.7297 72.6413 64.7302 72.6406 64.7306C72.6403 64.7309 72.6398 64.7312 72.6396 64.7314C72.6391 64.7317 72.6386 64.732 72.071 63.9088ZM71.6428 62.9639C70.6505 62.84 70.6504 62.8404 70.6504 62.8408C70.6504 62.8409 70.6503 62.8413 70.6503 62.8415C70.6502 62.8421 70.6502 62.8426 70.6501 62.8431C70.65 62.844 70.6499 62.845 70.6498 62.8459C70.6495 62.8478 70.6493 62.8495 70.6492 62.851C70.6488 62.8541 70.6486 62.8567 70.6483 62.8588C70.6479 62.863 70.6478 62.8651 70.6478 62.8655C70.6477 62.8662 70.6481 62.8602 70.6481 62.849C70.6481 62.8254 70.6463 62.7873 70.6382 62.7437C70.6214 62.6531 70.5884 62.5871 70.5378 62.5405L71.8914 61.0682C72.3548 61.4943 72.5358 62.008 72.6046 62.379C72.6394 62.5661 72.6482 62.7293 72.6481 62.8493C72.6481 62.9099 72.6459 62.9613 72.6432 63.0013C72.6418 63.0214 72.6403 63.0388 72.6389 63.0532C72.6382 63.0604 72.6375 63.067 72.6368 63.0727C72.6365 63.0756 72.6362 63.0783 72.6359 63.0808C72.6358 63.082 72.6356 63.0832 72.6355 63.0844C72.6354 63.085 72.6353 63.0855 72.6353 63.0861C72.6352 63.0864 72.6352 63.0868 72.6352 63.0869C72.6351 63.0873 72.6351 63.0877 71.6428 62.9639ZM71.2146 61.8044C70.4737 61.1328 70.4734 61.1331 70.4731 61.1334C70.473 61.1335 70.4727 61.1338 70.4726 61.134C70.4722 61.1344 70.4719 61.1348 70.4715 61.1351C70.4709 61.1359 70.4703 61.1366 70.4697 61.1372C70.4685 61.1385 70.4676 61.1396 70.4668 61.1405C70.4652 61.1423 70.4642 61.1434 70.4638 61.1438C70.4632 61.1447 70.4647 61.1429 70.4679 61.1388C70.4747 61.1304 70.4869 61.1144 70.5011 61.0931C70.5338 61.044 70.554 61.0011 70.5611 60.9772C70.5676 60.9555 70.5459 61.0105 70.5773 61.1008C70.6142 61.2066 70.6724 61.2164 70.593 61.1714L71.5792 59.4314C71.9922 59.6655 72.3127 60.0027 72.466 60.4427C72.6139 60.8671 72.5627 61.263 72.4782 61.5473C72.3943 61.8293 72.262 62.0575 72.1649 62.203C72.1142 62.279 72.0672 62.3412 72.031 62.3866C72.0127 62.4094 71.9968 62.4285 71.9841 62.4434C71.9777 62.4509 71.972 62.4574 71.9673 62.4628C71.9649 62.4655 71.9627 62.468 71.9607 62.4702C71.9597 62.4713 71.9588 62.4723 71.9579 62.4733C71.9575 62.4738 71.9571 62.4742 71.9567 62.4747C71.9565 62.4749 71.9562 62.4752 71.9561 62.4754C71.9558 62.4757 71.9555 62.476 71.2146 61.8044ZM71.0861 60.3014C70.0996 60.1374 70.0997 60.137 70.0998 60.1366C70.0998 60.1365 70.0999 60.136 70.0999 60.1357C70.1 60.1351 70.1001 60.1345 70.1002 60.1339C70.1004 60.1325 70.1007 60.1311 70.101 60.1295C70.1015 60.1263 70.1022 60.1226 70.1029 60.1184C70.1044 60.1101 70.1063 60.0997 70.1087 60.0874C70.1135 60.0628 70.1201 60.0305 70.129 59.9911C70.1466 59.9123 70.1732 59.8049 70.2115 59.6744C70.2879 59.4137 70.412 59.0576 70.6073 58.6503C70.9978 57.836 71.6798 56.8043 72.8433 55.9356L74.0399 57.5381C73.1905 58.1724 72.6947 58.9229 72.4107 59.5152C72.2687 59.8112 72.1814 60.0643 72.1307 60.2372C72.1054 60.3234 72.0894 60.3888 72.0805 60.4287C72.076 60.4486 72.0734 60.462 72.0721 60.4683C72.0715 60.4715 72.0713 60.4729 72.0714 60.4724C72.0714 60.4722 72.0715 60.4715 72.0717 60.4703C72.0718 60.4697 72.0719 60.469 72.0721 60.4682C72.0722 60.4677 72.0722 60.4673 72.0723 60.4668C72.0723 60.4666 72.0724 60.4662 72.0724 60.4661C72.0725 60.4657 72.0726 60.4653 71.0861 60.3014ZM73.4416 56.7368C72.5958 56.2033 72.596 56.2031 72.5961 56.2028C72.5962 56.2027 72.5963 56.2025 72.5965 56.2023C72.5967 56.202 72.5969 56.2016 72.5972 56.2011C72.5978 56.2003 72.5984 56.1993 72.5991 56.1982C72.6005 56.196 72.6022 56.1932 72.6043 56.19C72.6085 56.1835 72.614 56.1751 72.6207 56.1648C72.6343 56.1441 72.653 56.1159 72.6767 56.0812C72.7242 56.0119 72.7919 55.9159 72.8782 55.8012C73.05 55.573 73.3001 55.2646 73.6154 54.9423C74.2215 54.3229 75.1804 53.5357 76.3803 53.3065L76.7555 55.271C76.1568 55.3854 75.5525 55.8223 75.0451 56.341C74.8037 56.5877 74.6094 56.827 74.4761 57.0041C74.4098 57.0921 74.3598 57.1632 74.3276 57.2103C74.3115 57.2338 74.3 57.2511 74.2932 57.2615C74.2898 57.2667 74.2876 57.2701 74.2866 57.2716C74.2861 57.2724 74.2859 57.2726 74.2861 57.2725C74.2861 57.2724 74.2863 57.2721 74.2865 57.2718C74.2866 57.2716 74.2867 57.2714 74.2869 57.2712C74.287 57.2711 74.2871 57.2709 74.2871 57.2708C74.2872 57.2706 74.2874 57.2704 73.4416 56.7368ZM78.0051 65.1694C78.8869 65.641 78.8868 65.6413 78.8866 65.6416C78.8865 65.6417 78.8864 65.642 78.8862 65.6423C78.886 65.6427 78.8857 65.6432 78.8855 65.6437C78.8849 65.6448 78.8843 65.6459 78.8836 65.6472C78.8822 65.6498 78.8805 65.6528 78.8786 65.6563C78.8748 65.6633 78.8699 65.6721 78.8639 65.6826C78.852 65.7037 78.8359 65.7317 78.8155 65.7657C78.7749 65.8337 78.717 65.9264 78.642 66.0366C78.4928 66.2559 78.2719 66.5505 77.9794 66.8601C77.4035 67.4697 76.4909 68.1991 75.2466 68.4487L74.8532 66.4877C75.5422 66.3495 76.1071 65.9296 76.5256 65.4866C76.7302 65.27 76.8856 65.0626 76.9884 64.9115C77.0395 64.8365 77.0766 64.7768 77.0993 64.7388C77.1107 64.7198 77.1184 64.7064 77.1224 64.6993C77.1244 64.6957 77.1255 64.6937 77.1256 64.6934C77.1257 64.6933 77.1256 64.6936 77.1252 64.6943C77.125 64.6947 77.1247 64.6952 77.1244 64.6957C77.1242 64.696 77.1241 64.6963 77.1239 64.6967C77.1238 64.6969 77.1236 64.6971 77.1236 64.6972C77.1234 64.6975 77.1233 64.6978 78.0051 65.1694ZM75.0499 67.4682C75.1568 68.4625 75.1573 68.4624 75.1578 68.4624C75.158 68.4623 75.1585 68.4623 75.1589 68.4623C75.1595 68.4622 75.1602 68.4621 75.1609 68.462C75.1622 68.4619 75.1635 68.4617 75.1648 68.4616C75.1673 68.4613 75.1697 68.461 75.172 68.4607C75.1765 68.4602 75.1804 68.4596 75.1839 68.4591C75.1908 68.4581 75.1958 68.4573 75.1993 68.4566C75.2059 68.4554 75.2075 68.4548 75.2059 68.4553C75.2 68.457 75.1952 68.4595 75.1952 68.4595C75.1982 68.4575 75.2113 68.4479 75.2223 68.4302C75.2354 68.4093 75.2232 68.4135 75.2193 68.4739L73.2235 68.3455C73.2739 67.5618 73.6818 67.0534 74.1175 66.7747C74.3177 66.6466 74.5097 66.5746 74.6505 66.5339C74.7222 66.5132 74.7847 66.4994 74.8338 66.4903C74.8585 66.4857 74.8803 66.4822 74.8985 66.4796C74.9076 66.4783 74.916 66.4772 74.9234 66.4762C74.9271 66.4758 74.9306 66.4753 74.9339 66.475C74.9355 66.4748 74.9371 66.4746 74.9386 66.4744C74.9394 66.4743 74.9401 66.4742 74.9408 66.4742C74.9412 66.4741 74.9418 66.4741 74.9419 66.474C74.9425 66.474 74.943 66.4739 75.0499 67.4682ZM74.2214 68.4097C75.1755 68.1101 75.1756 68.1104 75.1757 68.1108C75.1757 68.1109 75.1758 68.1112 75.1759 68.1114C75.176 68.1119 75.1762 68.1123 75.1763 68.1128C75.1766 68.1138 75.177 68.1149 75.1773 68.1161C75.1781 68.1185 75.1789 68.1212 75.1798 68.1244C75.1817 68.1306 75.184 68.1383 75.1867 68.1475C75.192 68.1658 75.1988 68.1899 75.2066 68.2192C75.2221 68.2777 75.2418 68.3578 75.2618 68.4549C75.3013 68.6469 75.3443 68.9168 75.3554 69.2252C75.3764 69.8044 75.2909 70.7239 74.6099 71.4302L73.1701 70.042C73.2902 69.9175 73.3704 69.6738 73.3567 69.2975C73.3506 69.1281 73.3263 68.9722 73.3028 68.8579C73.2912 68.8018 73.2805 68.7585 73.2734 68.732C73.2699 68.7188 73.2674 68.7099 73.2663 68.7059C73.2657 68.7039 73.2654 68.7032 73.2656 68.7037C73.2657 68.704 73.2659 68.7046 73.2662 68.7055C73.2663 68.706 73.2665 68.7065 73.2667 68.7072C73.2668 68.7075 73.2669 68.7078 73.267 68.7082C73.267 68.7084 73.2671 68.7086 73.2672 68.7087C73.2672 68.709 73.2673 68.7093 74.2214 68.4097ZM73.89 70.7361C74.5836 71.4565 74.584 71.4561 74.5845 71.4556C74.5846 71.4555 74.585 71.4551 74.5853 71.4548C74.5859 71.4542 74.5865 71.4537 74.587 71.4532C74.5881 71.4521 74.5892 71.451 74.5902 71.45C74.5923 71.448 74.5942 71.4461 74.5959 71.4444C74.5995 71.4408 74.6024 71.4378 74.6049 71.4352C74.6097 71.4302 74.6125 71.427 74.6136 71.4258C74.6157 71.4234 74.6112 71.4283 74.6026 71.4404C74.5852 71.4648 74.5529 71.5159 74.5232 71.5933C74.4687 71.735 74.4019 72.0166 74.5241 72.4692L72.5934 72.9909C72.3565 72.1142 72.4553 71.3989 72.6562 70.8759C72.7542 70.621 72.8721 70.4228 72.9729 70.281C73.0234 70.21 73.07 70.1527 73.1085 70.1087C73.1277 70.0867 73.145 70.068 73.1598 70.0525C73.1672 70.0448 73.174 70.0379 73.1801 70.0317C73.1832 70.0287 73.1861 70.0258 73.1888 70.0231C73.1902 70.0218 73.1915 70.0205 73.1928 70.0193C73.1934 70.0186 73.194 70.018 73.1946 70.0174C73.1949 70.0172 73.1954 70.0167 73.1955 70.0166C73.196 70.0161 73.1964 70.0157 73.89 70.7361ZM73.5588 72.7301C74.4924 73.0883 74.4925 73.088 74.4926 73.0876C74.4927 73.0875 74.4928 73.0872 74.4929 73.087C74.493 73.0866 74.4932 73.0862 74.4934 73.0858C74.4937 73.085 74.4939 73.0842 74.4942 73.0835C74.4948 73.082 74.4953 73.0807 74.4957 73.0796C74.4965 73.0772 74.4972 73.0755 74.4976 73.0743C74.4985 73.0718 74.4986 73.0715 74.4981 73.073C74.497 73.0762 74.4939 73.0861 74.49 73.1011C74.4816 73.1333 74.473 73.1766 74.4698 73.2211C74.4618 73.3313 74.4921 73.311 74.4475 73.2604L72.9462 74.5817C72.4872 74.0602 72.4484 73.4444 72.475 73.0768C72.4891 72.8824 72.5236 72.7163 72.5541 72.5987C72.5696 72.5389 72.5849 72.4889 72.5973 72.4508C72.6036 72.4317 72.6092 72.4155 72.6139 72.4022C72.6163 72.3956 72.6184 72.3898 72.6203 72.3847C72.6212 72.3822 72.6221 72.3798 72.6229 72.3777C72.6233 72.3766 72.6237 72.3756 72.6241 72.3746C72.6243 72.3741 72.6244 72.3736 72.6246 72.3732C72.6247 72.3729 72.6248 72.3726 72.6249 72.3725C72.625 72.3721 72.6251 72.3718 73.5588 72.7301ZM73.6968 73.921C74.2193 73.0684 74.2194 73.0684 74.2195 73.0685C74.2196 73.0685 74.2197 73.0686 74.2197 73.0686C74.2199 73.0687 74.22 73.0688 74.2202 73.0689C74.2205 73.0691 74.2208 73.0693 74.2212 73.0695C74.2219 73.07 74.2228 73.0705 74.2238 73.0711C74.2257 73.0723 74.2282 73.0738 74.2311 73.0756C74.2369 73.0793 74.2446 73.0841 74.2538 73.0899C74.2723 73.1016 74.2974 73.1178 74.3272 73.1375C74.3855 73.1762 74.4672 73.2321 74.5534 73.2976C74.6348 73.3594 74.7443 73.4476 74.845 73.5513C74.8955 73.6032 74.9609 73.6764 75.022 73.7677C75.0764 73.849 75.1717 74.0092 75.208 74.2288L73.2348 74.5549C73.2642 74.7329 73.338 74.8473 73.3599 74.8801C73.3754 74.9033 73.3885 74.9196 73.396 74.9286C73.4039 74.938 73.4092 74.9435 73.4107 74.945C73.413 74.9474 73.4085 74.9427 73.3947 74.9309C73.3816 74.9198 73.3647 74.9062 73.3442 74.8906C73.3027 74.8591 73.2584 74.8286 73.2227 74.8049C73.2054 74.7935 73.1915 74.7845 73.1827 74.7789C73.1783 74.7761 73.1753 74.7742 73.1738 74.7733C73.173 74.7729 73.1727 74.7726 73.1728 74.7727C73.1728 74.7727 73.173 74.7728 73.1732 74.773C73.1734 74.7731 73.1735 74.7732 73.1737 74.7733C73.1738 74.7733 73.1739 74.7734 73.174 74.7735C73.1741 74.7735 73.1742 74.7735 73.1742 74.7736C73.1743 74.7736 73.1744 74.7737 73.6968 73.921ZM74.2214 74.3919C73.7241 73.5243 73.7243 73.5242 73.7244 73.5241C73.7244 73.5241 73.7246 73.524 73.7247 73.524C73.7248 73.5239 73.725 73.5238 73.7253 73.5236C73.7257 73.5234 73.7262 73.5231 73.7267 73.5228C73.7278 73.5222 73.7292 73.5214 73.7308 73.5205C73.7339 73.5187 73.738 73.5164 73.743 73.5136C73.7529 73.508 73.7665 73.5005 73.7833 73.4913C73.8168 73.4729 73.8636 73.4477 73.9206 73.4183C74.0334 73.36 74.1919 73.2818 74.3711 73.2054C74.5467 73.1305 74.7625 73.0484 74.9862 72.991C75.1871 72.9394 75.5023 72.878 75.8319 72.9363L75.4833 74.9057C75.5781 74.9225 75.5964 74.8992 75.4839 74.9281C75.3943 74.9511 75.2804 74.9919 75.1557 75.0451C75.0345 75.0968 74.9221 75.152 74.839 75.1949C74.798 75.2161 74.7656 75.2336 74.7444 75.2452C74.7339 75.251 74.7262 75.2553 74.7218 75.2577C74.7196 75.259 74.7182 75.2598 74.7176 75.2601C74.7174 75.2602 74.7173 75.2602 74.7175 75.2602C74.7176 75.2601 74.7177 75.26 74.7179 75.2599C74.718 75.2599 74.7181 75.2598 74.7182 75.2597C74.7183 75.2597 74.7184 75.2596 74.7184 75.2596C74.7185 75.2595 74.7187 75.2595 74.2214 74.3919ZM75.6576 73.921C74.7475 73.5067 74.7475 73.5067 74.7475 73.5067C74.7475 73.5067 74.7475 73.5067 74.7475 73.5067C74.7475 73.5066 74.7475 73.5065 74.7476 73.5064C74.7477 73.5061 74.7479 73.5057 74.7481 73.5052C74.7487 73.5041 74.7494 73.5023 74.7505 73.5C74.7526 73.4953 74.7558 73.4883 74.7601 73.4789C74.7686 73.4602 74.7812 73.4323 74.7976 73.3959C74.8305 73.3231 74.8785 73.2163 74.9389 73.0814C75.0595 72.8116 75.229 72.4295 75.4243 71.9812C75.8157 71.0825 76.3068 69.9264 76.714 68.8783L78.5782 69.6027C78.1568 70.6872 77.6536 71.8714 77.2579 72.7798C77.0596 73.2351 76.8874 73.6232 76.7647 73.8977C76.7033 74.035 76.6543 74.144 76.6205 74.2188C76.6036 74.2563 76.5905 74.2852 76.5816 74.3048C76.5771 74.3147 76.5737 74.3222 76.5714 74.3273C76.5702 74.3298 76.5693 74.3318 76.5687 74.3331C76.5684 74.3338 76.5682 74.3343 76.568 74.3347C76.5679 74.3349 76.5679 74.335 76.5678 74.3351C76.5678 74.3352 76.5678 74.3352 76.5678 74.3353C76.5677 74.3353 76.5677 74.3353 75.6576 73.921ZM77.6461 69.2405C76.7962 68.7136 76.7961 68.7137 76.796 68.7139C76.796 68.7139 76.7959 68.7141 76.7958 68.7142C76.7957 68.7144 76.7956 68.7146 76.7955 68.7148C76.7953 68.7151 76.7951 68.7154 76.7949 68.7156C76.7947 68.7161 76.7945 68.7163 76.7945 68.7163C76.7946 68.7162 76.7952 68.7152 76.7963 68.7134C76.7986 68.7096 76.803 68.7022 76.8092 68.6915C76.8217 68.6699 76.8416 68.6351 76.8666 68.5886C76.917 68.4951 76.9869 68.3572 77.0601 68.1885C77.2104 67.8416 77.3551 67.4085 77.3963 66.9838L79.3869 67.177C79.318 67.8878 79.0898 68.5347 78.895 68.984C78.7956 69.2134 78.6998 69.4026 78.6276 69.5368C78.5913 69.6041 78.5607 69.6581 78.538 69.6971C78.5267 69.7166 78.5173 69.7323 78.5102 69.7441C78.5067 69.75 78.5037 69.7549 78.5013 69.7588C78.5001 69.7608 78.4991 69.7625 78.4982 69.7639C78.4977 69.7646 78.4973 69.7653 78.497 69.7659C78.4968 69.7662 78.4966 69.7665 78.4965 69.7667C78.4964 69.7669 78.4963 69.7671 78.4962 69.7671C78.4961 69.7673 78.496 69.7675 77.6461 69.2405ZM79.308 66.68L79.5016 67.1232L77.6688 67.9239L77.4752 67.4808L79.308 66.68ZM78.5852 67.5235C77.8345 66.8629 77.834 66.8635 77.8335 66.864C77.8334 66.8642 77.8329 66.8647 77.8326 66.8651C77.832 66.8658 77.8314 66.8665 77.8308 66.8672C77.8296 66.8685 77.8284 66.8698 77.8274 66.8711C77.8252 66.8737 77.8231 66.876 77.8213 66.8782C77.8176 66.8826 77.8146 66.8863 77.8122 66.8894C77.8074 66.8954 77.805 66.8987 77.8044 66.8995C77.8034 66.901 77.8094 66.8927 77.8188 66.8752C77.8376 66.8404 77.869 66.7711 77.8873 66.6687C77.9196 66.4884 77.9338 66.0847 77.5398 65.444L79.2434 64.3963C79.8714 65.4175 79.9824 66.3154 79.856 67.0213C79.795 67.3621 79.6831 67.6321 79.5785 67.8257C79.5263 67.9224 79.4756 68.0007 79.4332 68.0601C79.412 68.0899 79.3928 68.1151 79.3763 68.1358C79.3681 68.1461 79.3606 68.1553 79.3538 68.1633C79.3504 68.1674 79.3472 68.1711 79.3443 68.1746C79.3428 68.1763 79.3413 68.178 79.3399 68.1796C79.3392 68.1804 79.3386 68.1811 79.3379 68.1819C79.3376 68.1823 79.3371 68.1828 79.3369 68.183C79.3364 68.1836 79.3359 68.1841 78.5852 67.5235ZM78.3916 64.9201C78.1664 65.8945 78.1669 65.8946 78.1673 65.8947C78.1674 65.8947 78.1679 65.8948 78.1681 65.8949C78.1687 65.895 78.1693 65.8951 78.1698 65.8952C78.1709 65.8955 78.172 65.8957 78.1731 65.896C78.1753 65.8965 78.1774 65.8969 78.1795 65.8974C78.1837 65.8983 78.1878 65.8991 78.1917 65.8999C78.1995 65.9015 78.207 65.9029 78.2142 65.904C78.2283 65.9063 78.2432 65.9083 78.2595 65.9095C78.2851 65.9115 78.3452 65.9143 78.4265 65.8962C78.5105 65.8775 78.6609 65.8256 78.7972 65.6843C78.9438 65.5322 78.9926 65.3611 79.0017 65.2522L77.0086 65.0865C77.0314 64.8116 77.1355 64.5263 77.3571 64.2964C77.5684 64.0771 77.8138 63.9837 77.9909 63.9442C78.1654 63.9053 78.317 63.9081 78.4107 63.9152C78.461 63.9191 78.5042 63.9249 78.538 63.9304C78.5551 63.9332 78.5703 63.9361 78.5834 63.9387C78.59 63.94 78.5961 63.9412 78.6016 63.9424C78.6044 63.943 78.607 63.9436 78.6096 63.9442C78.6108 63.9445 78.6121 63.9448 78.6133 63.945C78.6139 63.9452 78.6144 63.9453 78.615 63.9454C78.6153 63.9455 78.6158 63.9456 78.6159 63.9456C78.6163 63.9457 78.6168 63.9458 78.3916 64.9201Z" fill="#576673" mask="url(#path-2-inside-1_14_1344)"/>
</svg>
