<svg width="110" height="110" viewBox="0 0 110 110" fill="none" xmlns="http://www.w3.org/2000/svg">
<rect width="110" height="110" fill="#F2F7FB"/>
<path d="M26.9779 42.1402C26.6998 42.1713 26.6647 42.5615 26.9327 42.6418L27.1845 42.7173C27.2814 42.7463 27.3581 42.8207 27.3901 42.9167L27.4731 43.1659C27.5059 43.2645 27.453 43.3711 27.3546 43.4045V43.4045C27.1709 43.4668 27.1892 43.7323 27.3796 43.7689L27.9113 43.871C27.9272 43.8741 27.9429 43.8783 27.9582 43.8837L28.7771 44.1701C29.5136 44.4276 30.3177 44.4141 31.045 44.132L31.0693 44.1226C31.3538 44.0122 31.6529 43.9445 31.9572 43.9214V43.9214C32.4915 43.881 33.0062 43.7028 33.4513 43.4044L34.1428 42.9406L35.3 42.1543C35.589 41.958 35.6896 41.5791 35.5362 41.2652V41.2652C35.4891 41.1688 35.4205 41.0846 35.3358 41.0188L34.8138 40.6138C34.7218 40.5424 34.6432 40.4552 34.5817 40.3564V40.3564C34.4078 40.0771 34.106 39.9032 33.7772 39.8929L33.4897 39.8839C33.3503 39.8795 33.2188 39.8183 33.1257 39.7145V39.7145C32.9658 39.5362 32.7035 39.4931 32.4949 39.6108L31.6154 40.1072C31.3607 40.251 31.067 40.3102 30.7766 40.2763L30.4908 40.2429C30.3396 40.2253 30.1873 40.2636 30.0625 40.3507L29.8946 40.4677C29.7911 40.5399 29.6544 40.5431 29.5477 40.4759V40.4759C29.4036 40.3852 29.2136 40.4258 29.1191 40.5674L28.7841 41.0697C28.7344 41.1441 28.6658 41.204 28.5854 41.2431V41.2431C28.3273 41.3684 28.0169 41.2531 27.9033 40.9897L27.8115 40.7767C27.7769 40.6964 27.7766 40.6055 27.8106 40.5249V40.5249C27.8793 40.3626 27.804 40.1753 27.6421 40.1056L26.8839 39.7795C26.7483 39.7212 26.6053 39.8454 26.6441 39.9878V39.9878C26.6831 40.1309 26.5388 40.2553 26.403 40.1956L26.1571 40.0875C26.0272 40.0304 25.875 40.0706 25.7902 40.1846L25.6843 40.327C25.4154 40.6885 25.6945 41.1989 26.1439 41.1678L26.683 41.1304C27.0119 41.1075 27.2783 41.3936 27.2321 41.7202L27.2037 41.9207C27.1873 42.0368 27.0944 42.1271 26.9779 42.1402V42.1402ZM27.6174 41.6415C27.6292 41.5593 27.7414 41.5444 27.7742 41.6206V41.6206C27.814 41.7131 27.8901 41.7856 27.9848 41.8206C28.026 41.8356 28.0698 41.8436 28.1131 41.8436C28.1684 41.8436 28.2233 41.8308 28.2751 41.806L28.8716 41.5161C28.9305 41.4874 28.9809 41.444 29.0176 41.3891L29.3134 40.9458C29.3611 40.8743 29.457 40.8539 29.5296 40.8997V40.8997C29.5898 40.9378 29.6584 40.9563 29.7261 40.9563C29.8004 40.9563 29.8739 40.9342 29.9372 40.8895V40.8895C30.2061 40.7022 30.5342 40.6197 30.8597 40.6576L31.1829 40.6953C31.197 40.697 31.2116 40.6979 31.2254 40.6979C31.2886 40.6979 31.351 40.6815 31.4068 40.6501L32.4886 40.0396C32.6572 39.9444 32.8693 39.9793 32.9986 40.1235V40.1235C33.0658 40.1983 33.161 40.243 33.2619 40.2461L33.5914 40.2564C33.9066 40.2663 34.196 40.4332 34.3624 40.701V40.701C34.3854 40.7386 34.4151 40.7709 34.45 40.7979L35.1107 41.3107C35.1509 41.3419 35.1834 41.3819 35.2057 41.4276V41.4276C35.2784 41.5764 35.2307 41.7561 35.0937 41.8492L33.938 42.6348L33.6282 42.8424C32.9857 43.2731 32.2427 43.5303 31.4713 43.5889V43.5889C31.435 43.5915 31.3996 43.5995 31.366 43.6128V43.6128C30.428 43.9764 29.3911 43.994 28.4413 43.6623L28.0573 43.5282C28.0401 43.5225 28.0232 43.5176 28.0051 43.5141V43.5141C27.9367 43.5011 27.8989 43.4272 27.9013 43.3576C27.9028 43.3148 27.8969 43.2711 27.8825 43.2282L27.6891 42.6476C27.6511 42.5335 27.5604 42.4454 27.4449 42.4109V42.4109C27.4318 42.4071 27.4281 42.3901 27.4377 42.3805C27.4928 42.3253 27.5305 42.2526 27.5418 42.1719L27.6174 41.6415ZM27.2976 40.7192L26.1195 40.8007C25.9845 40.8101 25.9008 40.6568 25.9815 40.5483V40.5483C26.0255 40.489 26.1046 40.4681 26.1722 40.4978L26.5935 40.6829C26.6413 40.7037 26.6917 40.7139 26.7417 40.7139C26.8285 40.7139 26.9143 40.6833 26.9829 40.6245C27.0185 40.5939 27.0472 40.5574 27.0684 40.5173C27.1177 40.4239 27.2354 40.3329 27.3325 40.3746L27.3713 40.3913C27.4162 40.4107 27.4372 40.4625 27.4183 40.5076V40.5076C27.3989 40.5536 27.3891 40.6028 27.3891 40.6519C27.3891 40.6869 27.3582 40.7178 27.3232 40.7178V40.7178C27.3148 40.7183 27.3055 40.7183 27.2975 40.7192L27.2976 40.7192Z" fill="#576673" stroke="#576673" stroke-width="0.5" stroke-linejoin="round"/>
<path d="M29.0515 60.2699C29.0515 60.2699 29.0515 60.2699 29.0515 60.2699C29.0573 60.2697 29.5331 59.9952 29.7882 59.8477C29.8929 59.7872 30.0057 59.7428 30.1236 59.7156V59.7156C30.7163 59.5789 31.1166 59.0248 31.0601 58.4191L30.9994 57.7692C30.9915 57.6847 30.9712 57.6019 30.9392 57.5233L30.7909 57.1594C30.7243 56.9961 30.7803 56.8085 30.9256 56.7086V56.7086L31.0032 56.6639C31.4141 56.428 31.5364 55.8919 31.2687 55.5011V55.5011C31.0961 55.2493 30.7969 55.1155 30.4943 55.1549L29.5683 55.2753C29.4781 55.2871 29.3867 55.2879 29.2963 55.2779L28.7754 55.22C28.6635 55.2075 28.5543 55.2598 28.4938 55.3548V55.3548C28.4233 55.4655 28.4344 55.6095 28.521 55.7081L28.5379 55.7273C28.6822 55.8915 28.6292 56.1482 28.4316 56.2419L28.029 56.4328C27.9494 56.4706 27.8631 56.4921 27.7752 56.4963L27.3176 56.5178C27.0767 56.5292 26.8708 56.695 26.8082 56.9279V56.9279C26.7662 57.0844 26.7947 57.2515 26.8864 57.3852C27.1051 57.7042 27.4973 58.2763 27.5199 58.31C27.5326 58.3292 27.4905 58.4814 27.4363 58.6544C27.3235 59.0149 27.1302 59.3442 26.8862 59.6325L26.7591 59.7828C26.7477 59.7963 26.7353 59.8089 26.7221 59.8206V59.8206C26.5333 59.9879 26.5643 60.2911 26.783 60.4168L27.1774 60.6434C27.1765 60.643 29.0426 60.27 29.0515 60.2699C29.0515 60.2699 29.0515 60.2699 29.0515 60.2699V60.2699ZM26.9863 60.0796C26.9996 60.0677 27.0125 60.0548 27.024 60.0416L27.5373 59.4349C27.5665 59.4008 27.5886 59.3614 27.6041 59.3189C27.9479 58.3427 27.9351 58.2671 27.8276 58.1055C27.8041 58.0698 27.4134 57.5004 27.1918 57.1765C27.1613 57.1319 27.1519 57.0763 27.1659 57.024V57.024C27.1868 56.946 27.2557 56.8905 27.3364 56.8867L27.9267 56.859C27.9754 56.8563 28.0236 56.8448 28.0674 56.8236L28.9847 56.3886C29.0896 56.339 29.1648 56.2434 29.1879 56.1297C29.2113 56.016 29.1803 55.8983 29.1033 55.8111V55.8111C29.0401 55.7391 29.0986 55.627 29.1938 55.6377L29.3914 55.6598C29.4047 55.6611 29.4189 55.6624 29.4321 55.6624C29.4481 55.6624 29.464 55.6611 29.4799 55.6593L30.5421 55.5212C30.7071 55.4998 30.8702 55.5727 30.9642 55.71V55.71C31.1101 55.9231 31.0433 56.2153 30.8193 56.3438L30.742 56.3881C30.7331 56.393 30.7247 56.3983 30.7168 56.4041L30.4681 56.5753C30.3251 56.6736 30.2703 56.8581 30.3353 57.0187L30.5454 57.5326C30.5989 57.6634 30.6327 57.8013 30.6458 57.942L30.6764 58.2708C30.7254 58.7966 30.378 59.2775 29.8636 59.3964V59.3964C29.8282 59.4048 29.7932 59.4181 29.7614 59.4362C29.6487 59.5013 29.5094 59.5818 29.3751 59.6593C29.0759 59.8319 28.7501 59.9521 28.4113 60.0194C28.1608 60.0692 27.8075 60.1397 27.307 60.2396C27.2652 60.2479 27.2213 60.2409 27.1843 60.2196L26.9889 60.107C26.9788 60.1012 26.9775 60.0872 26.9863 60.0796V60.0796Z" fill="#576673" stroke="#576673" stroke-width="0.5" stroke-linejoin="round"/>
<path d="M33.6957 50.8488C33.5825 50.7369 33.5737 50.5569 33.6755 50.4345L34.2059 49.7961C34.2966 49.687 34.2781 49.5242 34.1652 49.4382V49.4382C34.1133 49.3986 34.0479 49.381 33.9831 49.3891L33.6474 49.4311C33.5733 49.4404 33.4984 49.4419 33.424 49.4357L32.9672 49.3976C32.8034 49.3839 32.64 49.4282 32.5055 49.5226V49.5226C32.3184 49.654 32.207 49.8684 32.207 50.097V50.1155C32.207 50.2841 32.1492 50.4477 32.0432 50.5788L31.8558 50.8108C31.7965 50.8843 31.7641 50.9759 31.7641 51.0704V51.2069C31.7641 51.3286 31.6766 51.4327 31.5568 51.4537V51.4537C31.4907 51.4653 31.4226 51.4498 31.368 51.4108L31.0978 51.2179C31.0793 51.2046 31.0585 51.1947 31.0366 51.1884L30.9592 51.1663C30.8702 51.1408 30.7817 51.2076 30.7817 51.3001V51.3001C30.7817 51.3473 30.8056 51.3912 30.8451 51.4169L31.3299 51.7315V51.7315C31.4674 51.8139 31.4881 52.0048 31.3715 52.1148L31.2423 52.2366C31.1669 52.3077 31.1242 52.4067 31.1242 52.5103V52.6095C31.1242 52.7759 31.2202 52.9274 31.3707 52.9985V52.9985C31.5212 53.0695 31.6171 53.221 31.6171 53.3874V53.582C31.6171 53.6359 31.6231 53.6896 31.6348 53.7422L31.7143 54.0993C31.7431 54.2289 31.8581 54.3211 31.9909 54.3211V54.3211C32.0831 54.3211 32.1696 54.2762 32.2226 54.2008L32.3709 53.99C32.3891 53.9642 32.4051 53.9369 32.4188 53.9084L32.5364 53.6645C32.5609 53.6136 32.6124 53.5812 32.6689 53.5812V53.5812C32.7475 53.5812 32.8122 53.643 32.8159 53.7214L32.8557 54.5617C32.8609 54.6731 32.8348 54.7838 32.7803 54.8811L32.6292 55.1509C32.5476 55.2967 32.6026 55.481 32.7508 55.5582V55.5582C32.7978 55.5827 32.8505 55.5941 32.9034 55.5912L33.368 55.5663C33.5106 55.5586 33.6453 55.4986 33.7462 55.3976L33.7772 55.3667C33.8162 55.3277 33.8632 55.2976 33.9149 55.2786L33.9314 55.2726C34.1714 55.1845 34.4258 55.3621 34.4258 55.6177V55.6177C34.4258 55.6392 34.4239 55.6606 34.4202 55.6817L34.4161 55.7047C34.372 55.954 34.4819 56.2066 34.6934 56.3456V56.3456C34.8042 56.4184 34.8901 56.5244 34.9381 56.6479L34.962 56.7094C35.0232 56.8668 35.0358 57.039 34.9981 57.2037L34.9403 57.4563C34.853 57.8375 34.5419 58.1266 34.1554 58.1858L33.9967 58.21C33.8758 58.2285 33.7522 58.2035 33.648 58.1393L33.5802 58.0975C33.5431 58.0746 33.5005 58.0626 33.457 58.0626V58.0626C33.3273 58.0626 33.2222 58.1677 33.2222 58.2974V58.4391C33.2222 58.4621 33.22 58.4851 33.2159 58.5077L33.2128 58.5242C33.1762 58.7216 33.2484 58.9236 33.4019 59.0531L33.5107 59.1449C33.5636 59.1895 33.6008 59.2498 33.617 59.3171V59.3171C33.6509 59.4584 33.5868 59.6051 33.4599 59.6761L32.4436 60.2448C32.3641 60.2893 32.3307 60.3864 32.3661 60.4704V60.4704C32.3948 60.5384 32.4622 60.5818 32.5359 60.5797L33.1678 60.5622C33.3209 60.5579 33.4733 60.5856 33.6151 60.6434L34.3217 60.9314C34.4433 60.981 34.578 60.9884 34.7043 60.9523L35.0339 60.8582C35.1187 60.834 35.2086 60.8745 35.2466 60.954V60.954C35.2923 61.0495 35.2466 61.1636 35.1477 61.2011L34.6556 61.3877C34.5771 61.4175 34.4937 61.4321 34.4098 61.4308L34.1254 61.4264C33.796 61.4213 33.4732 61.5188 33.2017 61.7053L33.0403 61.8162C32.9615 61.8703 32.8951 61.9405 32.8455 62.0222L32.3622 62.8175C32.3005 62.9189 32.3736 63.0488 32.4923 63.0488V63.0488C32.5213 63.0488 32.5496 63.0405 32.5741 63.025L32.8708 62.8361C33.0418 62.7272 33.2509 62.6954 33.4466 62.7486L33.6296 62.7983C33.8194 62.8499 34.0209 62.7743 34.13 62.6106V62.6106C34.189 62.522 34.2771 62.4568 34.379 62.4262L35.1807 62.1855L35.7877 62.0357C36.08 61.9636 36.387 61.978 36.6713 62.0771V62.0771C36.8763 62.1485 37.0939 62.1762 37.3103 62.1584L38.2401 62.0818C38.5097 62.0596 38.7744 61.9965 39.025 61.8948L39.5382 61.6865C39.5737 61.6721 39.6054 61.6499 39.6311 61.6214V61.6214C39.7428 61.4977 39.7071 61.3018 39.5589 61.2255L39.5091 61.1999C39.4235 61.1558 39.3646 61.0729 39.351 60.9776L39.3423 60.9159C39.3268 60.807 39.355 60.6965 39.4207 60.6082L39.7567 60.1565L40.2765 59.547C40.3915 59.4121 40.4072 59.2187 40.3153 59.067V59.067C40.2408 58.944 40.1074 58.8688 39.9635 58.8688H39.497L39.3302 58.8514C38.9034 58.807 38.5792 58.4472 38.5792 58.0181V58.0181C38.5792 57.9179 38.5612 57.8184 38.526 57.7245L38.4085 57.4103C38.2683 57.0356 38.0463 56.6969 37.7587 56.4188L37.5408 56.208C37.4205 56.0916 37.309 55.9663 37.2075 55.8333L36.9357 55.4772C36.8361 55.3468 36.7646 55.1974 36.7254 55.0381V55.0381C36.6577 54.7632 36.4946 54.5213 36.265 54.3555L35.8072 54.0249C35.7026 53.9494 35.5812 53.9006 35.4535 53.8827L34.9808 53.8163C34.8607 53.7995 34.7713 53.6967 34.7713 53.5755V53.5755C34.7713 53.5175 34.792 53.4614 34.8297 53.4173L35.4995 52.6346C35.6605 52.4463 35.7784 52.2251 35.8449 51.9865L35.9993 51.4317C36.0286 51.3264 36.0123 51.2136 35.9544 51.1208V51.1208C35.8833 51.0069 35.7584 50.9376 35.624 50.9376H33.9116C33.8307 50.9376 33.7531 50.9057 33.6957 50.8488V50.8488ZM35.6405 51.3171C35.6434 51.3218 35.6441 51.3274 35.6427 51.3327L35.4889 51.8847C35.4364 52.0736 35.3431 52.2486 35.2157 52.3976L34.49 53.2463C34.4329 53.3131 34.4011 53.3985 34.4011 53.4861V53.7875C34.4011 53.9716 34.5369 54.1273 34.7188 54.153L35.1165 54.2088C35.3714 54.2445 35.6138 54.342 35.8225 54.4927L35.8459 54.5096C36.1347 54.7182 36.34 55.0226 36.4251 55.3686V55.3686C36.4371 55.4182 36.4592 55.4637 36.4906 55.5044L37.0659 56.258C37.0774 56.2726 37.0894 56.2868 37.1026 56.2992L37.502 56.6856C37.7498 56.9253 37.9411 57.2173 38.062 57.5402V57.5402C38.1594 57.8005 38.2094 58.0762 38.2094 58.3542V58.7738C38.2094 58.9627 38.3523 59.1216 38.5399 59.141L39.4577 59.2366C39.4705 59.238 39.4829 59.2384 39.4958 59.2384H39.9631C39.9779 59.2384 39.9916 59.2462 39.9992 59.2589V59.2589C40.0086 59.2744 40.0069 59.2941 39.9952 59.3079L39.4754 59.9181C39.4705 59.9243 39.4652 59.9309 39.4604 59.9371L39.0218 60.5266C38.9634 60.6044 38.9386 60.7031 38.9528 60.7991L39.0072 61.1828V61.1828C39.0261 61.3141 39.0028 61.5057 38.8799 61.5556L38.6056 61.6669C38.5753 61.6792 38.5433 61.6869 38.5106 61.6896L37.74 61.7531C37.2716 61.7917 36.8003 61.7317 36.3565 61.5771V61.5771C36.3172 61.5629 36.276 61.5567 36.2348 61.5567C36.2052 61.5567 36.1751 61.5607 36.1468 61.5674L35.0918 61.8276C35.0861 61.8289 35.0799 61.8307 35.0741 61.8324L34.1147 62.1205C34.0324 62.1453 33.9612 62.1979 33.9138 62.2696V62.2696C33.838 62.3831 33.6981 62.4354 33.5664 62.3997L33.235 62.3099C33.2032 62.3011 33.1709 62.2971 33.1386 62.2971V62.2971C33.1262 62.2971 33.118 62.2836 33.1244 62.273L33.1856 62.1726C33.191 62.1636 33.1984 62.1559 33.207 62.15L33.4094 62.0111C33.6178 61.8681 33.8655 61.7933 34.1182 61.7971L34.5303 61.8032H34.536C34.5803 61.8032 34.625 61.7948 34.6666 61.7793L35.4613 61.478C35.5578 61.4412 35.6343 61.3656 35.6733 61.27C35.7118 61.1744 35.7082 61.0664 35.6636 60.9739L35.5127 60.6589C35.4498 60.5283 35.3184 60.4487 35.1794 60.4487C35.1458 60.4487 35.1117 60.4531 35.0781 60.4628V60.4628C34.7226 60.5643 34.3433 60.5437 34.0009 60.4042L33.5377 60.2155C33.4935 60.1978 33.4465 60.188 33.3983 60.188H33.3881V60.188C33.3645 60.1887 33.3558 60.1572 33.3764 60.1457L33.8523 59.8792C33.9962 59.7986 34.0692 59.6318 34.0311 59.4712L33.9488 59.1286C33.9302 59.0521 33.8877 58.9835 33.8276 58.9326L33.676 58.8049C33.5998 58.7408 33.5639 58.6407 33.582 58.5428V58.5428V58.5428C33.5825 58.5407 33.5847 58.5393 33.5866 58.5404L33.6134 58.5569C33.6722 58.5932 33.7395 58.6122 33.8076 58.6122C33.8262 58.6122 33.8452 58.6109 33.8634 58.6078L34.8498 58.4569C34.9993 58.4339 35.1201 58.3219 35.1538 58.1746L35.414 57.0378C35.4303 56.9656 35.4246 56.8904 35.398 56.8214L35.21 56.3253C35.1821 56.2536 35.1325 56.1926 35.0684 56.151L34.9429 56.0683C34.8262 55.9915 34.7666 55.8525 34.7913 55.7151V55.7151C34.7953 55.6943 34.7971 55.6726 34.7971 55.6509V55.092C34.7971 54.9717 34.7382 54.8584 34.6391 54.7893C34.5763 54.7455 34.5028 54.7225 34.428 54.7225C34.3851 54.7225 34.3417 54.73 34.3006 54.7455L33.7112 54.9619C33.6612 54.9805 33.6156 55.0097 33.5775 55.0478L33.4819 55.1434C33.4492 55.1761 33.4055 55.1956 33.3592 55.1981V55.1981C33.2114 55.206 33.113 55.0479 33.1852 54.9188L33.1881 54.9137C33.2217 54.8535 33.2381 54.7849 33.235 54.7159L33.1797 53.5645C33.17 53.368 33.0076 53.2131 32.8111 53.2131H32.5783C32.4363 53.2131 32.3075 53.2945 32.246 53.422L32.0822 53.7619C32.0813 53.7636 32.0804 53.7652 32.0793 53.7668V53.7668C32.0621 53.7912 32.0241 53.7835 32.0177 53.7544L31.991 53.6332C31.9896 53.6269 31.9889 53.6205 31.9889 53.614V53.1162C31.9889 52.9733 31.9066 52.8436 31.7778 52.7825L31.5716 52.6851C31.5254 52.6633 31.4959 52.6167 31.4959 52.5656V52.5656C31.4959 52.5292 31.5109 52.4945 31.5374 52.4695L31.8592 52.1661C31.9437 52.0869 31.9853 51.9727 31.973 51.8577V51.8577C31.9656 51.791 31.9895 51.7194 32.0354 51.6705C32.0977 51.604 32.1354 51.5148 32.1354 51.4182V51.4182C32.1354 51.1835 32.2159 50.9558 32.3635 50.7732L32.4964 50.6089C32.5495 50.543 32.5783 50.4611 32.5783 50.3766V50.0974C32.5783 49.9889 32.6312 49.8872 32.72 49.8249V49.8249C32.7837 49.7802 32.8611 49.7592 32.9387 49.7657L33.5067 49.8128C33.5169 49.8132 33.5271 49.8141 33.5372 49.8141C33.5523 49.8141 33.5678 49.8137 33.5828 49.8115V49.8115C33.6351 49.8048 33.6684 49.8656 33.6348 49.9061L33.2124 50.4146C33.0907 50.5611 33.1 50.777 33.2354 50.9116L33.5235 51.1996C33.5926 51.2687 33.6864 51.3076 33.7842 51.3076H35.6237C35.6306 51.3076 35.637 51.3112 35.6405 51.3171V51.3171Z" fill="#576673" stroke="#576673" stroke-width="0.5" stroke-linejoin="round"/>
<path d="M33.986 63.3814C33.9605 63.3642 33.9297 63.3566 33.8991 63.3602L33.5499 63.4011C33.4636 63.4111 33.4174 63.5078 33.4638 63.5813V63.5813C33.4867 63.6176 33.5275 63.6386 33.5703 63.6361L33.9214 63.6162C34.0442 63.6092 34.0879 63.4503 33.986 63.3814V63.3814Z" fill="#576673" stroke="#576673" stroke-width="0.5" stroke-linejoin="round"/>
<path d="M34.5832 64.3491C34.6224 64.3267 34.6512 64.2898 34.6633 64.2464V64.2464C34.694 64.1369 34.6117 64.0283 34.498 64.0283H34.3811L33.7712 64.0682C33.7161 64.0718 33.6656 64.1001 33.6337 64.1452V64.1452C33.5831 64.2168 33.5904 64.3143 33.6512 64.3776L33.7611 64.4921C33.8802 64.6161 34.0685 64.6433 34.2179 64.5579L34.5832 64.3491Z" fill="#576673" stroke="#576673" stroke-width="0.5" stroke-linejoin="round"/>
<path d="M84.0138 63.6926C83.872 63.6144 83.7177 63.5614 83.5579 63.5359L82.7906 63.4135C82.5714 63.3785 82.371 63.2689 82.2233 63.1032V63.1032C81.9998 62.8525 81.662 62.7363 81.3316 62.7964L81.0721 62.8437C80.7669 62.8993 80.4519 62.8543 80.1744 62.7155L80.1153 62.686C79.8516 62.5542 79.6286 62.3534 79.47 62.105L79.2663 61.7862C79.1279 61.5696 78.9203 61.4063 78.6773 61.3229V61.3229C78.3361 61.2058 78.0697 60.9303 77.9611 60.5863V60.5863C77.8094 60.1059 77.3622 59.7742 76.8584 59.7742H75.8404C75.8307 59.7742 75.7825 59.769 75.714 59.761C75.2918 59.7118 74.9508 59.3945 74.8641 58.9784L74.8431 58.8775C74.7704 58.5289 74.9232 58.172 75.2256 57.9839L75.3025 57.9361C75.3453 57.9094 75.3929 57.8914 75.4426 57.883V57.883C75.7418 57.8323 75.8695 57.4731 75.6695 57.2449L75.4103 56.9492L74.4965 56.0036C74.2869 55.7867 74.1354 55.5203 74.0562 55.2292L73.963 54.8865C73.8241 54.3758 73.3841 54.0039 72.8574 53.9519V53.9519V53.9519C72.6392 53.9329 72.4257 53.8771 72.2262 53.7868L71.9477 53.6608C71.4396 53.4309 71.019 53.0435 70.7482 52.5559V52.5559C70.5511 52.2008 70.4399 51.8045 70.4238 51.3987L70.3913 50.5817L70.3945 50.5396C70.4115 50.3196 70.4054 50.0984 70.3764 49.8796L70.2613 49.0113C70.2434 48.8762 70.271 48.7389 70.3398 48.6212L70.4303 48.4663C70.6291 48.126 70.3836 47.6983 69.9895 47.6983V47.6983L68.2596 47.4936C67.964 47.4586 67.6643 47.4954 67.3859 47.6009L66.7117 47.8563C66.1101 48.0843 65.8137 48.7624 66.055 49.3588V49.3588C66.1057 49.484 66.1781 49.5992 66.2688 49.6992L66.3303 49.767C66.5624 50.0228 66.691 50.3558 66.691 50.7012V50.9736C66.691 51.2148 66.5835 51.4435 66.3979 51.5975V51.5975C66.2111 51.7523 65.9648 51.8153 65.7266 51.7693L65.5775 51.7404C65.343 51.695 65.1332 51.5651 64.988 51.3754V51.3754C64.6901 50.9862 64.1492 50.8786 63.7247 51.1235V51.1235C63.4857 51.2614 63.3159 51.4941 63.2576 51.7638L63.2362 51.8627C63.2066 51.9998 63.1426 52.1271 63.0503 52.2326V52.2326C62.8855 52.4208 62.8149 52.6734 62.8581 52.9197L63.0564 54.0505C63.0694 54.1247 63.0579 54.2011 63.0235 54.2681V54.2681C62.9293 54.4516 63.0157 54.6762 63.2086 54.7492L64.3959 55.1989C64.5804 55.2688 64.7103 55.4362 64.7321 55.6323V55.6323C64.7667 55.9436 64.523 56.2159 64.2097 56.2159H61.8979C61.7658 56.2159 61.6339 56.2278 61.504 56.2513L60.8247 56.3742C60.5287 56.4277 60.2253 56.3313 60.0146 56.1166V56.1166C59.7653 55.8628 59.3909 55.7778 59.0564 55.899L56.995 56.6465L56.3625 56.8095C55.8708 56.9361 55.3509 56.895 54.8852 56.6926V56.6926C54.2927 56.4351 53.6188 56.4411 53.031 56.7091L52.8401 56.7961C52.2224 57.0778 51.5029 57.0194 50.9386 56.6419L50.1839 56.137C50.1122 56.089 50.0691 56.0084 50.0691 55.9221V55.9221C50.0691 55.8871 50.062 55.8524 50.0482 55.8202L50.0332 55.7852C49.8998 55.4743 50.1494 55.1345 50.486 55.1687L50.679 55.1884C50.7672 55.1974 50.8509 55.1481 50.8859 55.0666V55.0666C50.9177 54.9925 50.9025 54.9066 50.8473 54.8478L50.3807 54.3514C50.3701 54.3401 50.3585 54.3297 50.346 54.3206V54.3206C50.2139 54.2236 50.2066 54.0289 50.331 53.9223L50.9998 53.3489C51.0781 53.2818 51.1232 53.1838 51.1232 53.0806V53.0806C51.1232 52.9728 51.074 52.8708 50.9895 52.8038L50.8942 52.7281C50.7074 52.58 50.6251 52.336 50.6837 52.105L50.8447 51.4709C50.8575 51.4203 50.8552 51.3672 50.838 51.318V51.318C50.7841 51.1636 50.6047 51.0942 50.4609 51.1721L50.2917 51.2638L49.647 51.6087C49.5513 51.66 49.4811 51.7485 49.4531 51.8534V51.8534C49.3962 52.067 49.1741 52.1913 48.9623 52.1281L48.8296 52.0886C48.5397 52.0021 48.2367 52.1772 48.1669 52.4716L47.9991 53.1796C47.9173 53.5244 47.9903 53.8877 48.199 54.1741L48.3871 54.4325C48.5696 54.6831 48.6884 54.9744 48.733 55.2812L48.7781 55.5912C48.7888 55.6646 48.8093 55.7362 48.839 55.8041L48.9251 56.0008C48.9508 56.0596 48.9542 56.1258 48.9345 56.1868V56.1868C48.9164 56.2427 48.9176 56.303 48.9379 56.3581L48.9932 56.5088C49.159 56.9602 48.8495 57.4455 48.3703 57.4857L47.3703 57.5695C47.1976 57.584 47.0385 57.6688 46.9303 57.8041V57.8041C46.819 57.943 46.6542 58.0286 46.4766 58.0396L45.6253 58.0923C45.3233 58.1111 45.0561 58.2947 44.9305 58.57L44.872 58.6984C44.7628 58.9376 44.5147 59.082 44.2528 59.0586V59.0586C44.0271 59.0385 43.8083 59.1431 43.6824 59.3315L42.7734 60.6906C42.5175 61.0731 42.1533 61.3707 41.7274 61.5452L41.1415 61.7852C40.821 61.9165 40.5833 62.1939 40.5025 62.5306V62.5306C40.4213 62.8691 40.1816 63.1475 39.8588 63.278L39.2699 63.516C39.1097 63.5807 38.9694 63.6867 38.8633 63.823V63.823C38.6008 64.1602 38.1503 64.2888 37.7494 64.141L36.8953 63.8261C36.7543 63.7741 36.5976 63.7871 36.4671 63.8616V63.8616C36.2414 63.9906 36.1492 64.2689 36.2533 64.5071L36.3763 64.7883C36.4883 65.0444 36.3933 65.3439 36.1542 65.4887V65.4887C36.0271 65.5656 35.8746 65.5886 35.7304 65.5526L34.6943 65.294C34.5041 65.2465 34.3065 65.2359 34.1123 65.2628L33.4622 65.3527C33.1642 65.394 32.9301 65.6288 32.8898 65.927V65.927C32.8463 66.249 33.0401 66.5559 33.3496 66.6551L34.7515 67.1041C35.1551 67.2334 35.5178 67.4661 35.8035 67.7792L36.1576 68.1671C36.2329 68.2495 36.3141 68.3264 36.4005 68.397V68.397C36.9597 68.8536 37.2708 69.547 37.2401 70.2683L37.1807 71.665C37.1672 71.9809 37.0656 72.2867 36.8873 72.5478V72.5478C36.5575 73.0309 36.0017 73.3095 35.4173 73.2847L30.8418 73.0908C30.6846 73.0841 30.5284 73.0629 30.3751 73.0275L30.0012 72.9412C29.554 72.8379 29.084 72.9237 28.7022 73.1783L28.4532 73.3442C28.388 73.3877 28.3132 73.4143 28.2352 73.4218L28.0879 73.436C27.8474 73.4591 27.696 73.706 27.7846 73.9308V73.9308C27.7909 73.947 27.7962 73.9637 27.8002 73.9807L27.9099 74.447C28.0615 75.0912 28.121 75.7535 28.0868 76.4144L28.0421 77.2756C28.03 77.509 27.9874 77.7397 27.9156 77.9621L27.7722 78.4056C27.7395 78.5069 27.6839 78.5992 27.6096 78.6754V78.6754C27.3637 78.9279 27.347 79.3248 27.5708 79.5971L27.7984 79.8739C27.9536 80.0628 28.041 80.2983 28.0465 80.5427L28.0484 80.6276C28.0659 81.4071 28.7438 82.0064 29.5196 81.9283L29.6198 81.9182C30.0847 81.8714 30.5432 82.0545 30.8478 82.4088L31.2018 82.8204C31.433 83.0893 31.8173 83.1667 32.1345 83.0083V83.0083C32.1952 82.9779 32.2597 82.9557 32.3263 82.9422L32.8584 82.8342C33.0463 82.7961 33.2234 82.7166 33.3768 82.6016V82.6016C33.5979 82.4357 33.8665 82.3451 34.143 82.3431L34.7107 82.339C35.3865 82.3342 36.041 82.1025 36.5694 81.6812L36.815 81.4855L37.0688 81.3202C37.3022 81.1682 37.4713 80.9352 37.5433 80.6661L37.5625 80.5945C37.6168 80.3916 37.739 80.2134 37.9087 80.0897V80.0897C38.1725 79.8973 38.3144 79.5795 38.2816 79.2547L38.2506 78.9474C38.2125 78.5704 38.3227 78.1934 38.5578 77.8963L39.1482 77.1503C39.1987 77.0865 39.2439 77.0188 39.2833 76.9478V76.9478C39.475 76.6028 39.7948 76.3472 40.1736 76.2363L40.426 76.1624C40.6464 76.0979 40.8549 75.9984 41.0437 75.8677L41.6863 75.4226C42.0378 75.1792 42.2419 74.7742 42.2286 74.3469L42.228 74.3274C42.2149 73.9089 42.4165 73.5128 42.7624 73.277V73.277C43.0141 73.1054 43.3207 73.0338 43.6224 73.0761L44.4551 73.1928C44.6102 73.2145 44.7627 73.2513 44.9106 73.3027V73.3027C45.6038 73.5435 46.3689 73.4548 46.9885 73.0616L47.6392 72.6488C47.8317 72.5266 48.0392 72.4297 48.2565 72.3605L48.5937 72.253C49.1944 72.0617 49.8505 72.1701 50.3577 72.5446V72.5446C50.6184 72.7371 50.8274 72.991 50.9661 73.2837L51.0398 73.4391C51.2013 73.7798 51.4337 74.0821 51.7213 74.3258L52.9586 75.3741C53.3432 75.7001 53.7517 75.9969 54.1804 76.2623L56.1322 77.4701L56.2743 77.5619C56.6288 77.7911 56.8998 78.1285 57.047 78.5241V78.5241C57.1708 78.8572 57.2018 79.2176 57.1365 79.5668L56.9994 80.3006C56.9948 80.3253 56.9958 80.3507 57.0024 80.3749V80.3749C57.0389 80.5105 57.216 80.5437 57.2991 80.4306L58.0636 79.3904C58.2267 79.1686 58.2623 78.8778 58.1575 78.6232L58.0665 78.4022C57.9322 78.076 58.0848 77.7024 58.409 77.5634L58.4713 77.5367C58.5722 77.4935 58.6851 77.4876 58.79 77.5202L59.388 77.706C59.5105 77.7441 59.6234 77.6246 59.5784 77.5044V77.5044C59.5664 77.4725 59.5442 77.4454 59.5152 77.4274L57.502 76.1767C57.2589 76.0257 57.0363 75.844 56.8396 75.6362V75.6362C56.7029 75.4918 56.5535 75.3598 56.3932 75.242L55.497 74.5829C55.1046 74.2944 54.7929 73.9099 54.5918 73.4664L54.5444 73.362C54.4092 73.0638 54.2121 72.7977 53.9662 72.5814L53.426 72.1061C53.1062 71.8249 52.9709 71.3882 53.0757 70.9754L53.1674 70.6136C53.2747 70.1907 53.7106 69.9404 54.1299 70.0609L54.2874 70.1061C54.4277 70.1464 54.5401 70.2519 54.5892 70.3894V70.3894C54.6308 70.5058 54.7182 70.6003 54.831 70.6508L55.3028 70.8619C55.5911 70.9909 55.8368 71.1992 56.0111 71.4627L56.3081 71.9116C56.7418 72.5673 57.3829 73.0588 58.1288 73.3074L58.2155 73.3363C58.7046 73.4994 59.1553 73.7607 59.5397 74.1044L60.4578 74.925C60.9575 75.3718 61.2184 76.0273 61.1623 76.6952V76.6952C61.118 77.2219 61.2706 77.7462 61.5907 78.1668L61.8249 78.4746L62.3507 79.0229C62.4393 79.1153 62.5101 79.2232 62.5596 79.3413L62.5988 79.4346C62.7527 79.8016 63.1281 80.0251 63.5241 79.9856L63.8614 79.9519C63.9513 79.9429 64.0397 79.9793 64.0972 80.049V80.049C64.2455 80.2288 64.1126 80.4994 63.8797 80.492L63.3817 80.4761C63.2379 80.4715 63.1128 80.5741 63.0893 80.7161V80.7161C63.079 80.7785 63.0895 80.8426 63.1193 80.8984L63.4103 81.4429C63.556 81.7155 63.7705 81.9453 64.0323 82.1095L64.4744 82.3867C64.5514 82.435 64.6433 82.4539 64.7332 82.4399V82.4399C64.9169 82.4111 65.0523 82.2529 65.0523 82.067V81.6888C65.0523 81.5744 65.1201 81.4709 65.2249 81.4252L65.3234 81.3823C65.4619 81.3219 65.4961 81.1411 65.3893 81.0344V81.0344C65.2543 80.8994 65.3499 80.6686 65.5408 80.6686H65.5857C65.6029 80.6686 65.6201 80.6667 65.6369 80.6629L66.0419 80.5716C66.2737 80.5193 66.3932 80.2616 66.2831 80.0509V80.0509C66.2155 79.9214 66.0766 79.8453 65.9311 79.8579L65.2312 79.9184C65.1001 79.9297 64.9773 79.8529 64.9301 79.7301V79.7301C64.8909 79.6282 64.9112 79.513 64.9828 79.4305L65.0625 79.3386C65.2223 79.1547 65.2254 78.8821 65.07 78.6945L64.5586 78.0774C64.4801 77.9827 64.4412 77.8614 64.4499 77.7387V77.7387C64.4668 77.5027 64.6538 77.3146 64.8897 77.2965L64.9123 77.2948C64.9952 77.2884 65.0784 77.3027 65.1544 77.3363L65.7025 77.5785C65.7549 77.6016 65.8146 77.6023 65.8675 77.5802V77.5802C65.9242 77.5567 65.9676 77.5094 65.9863 77.451L66.0613 77.2178C66.1477 76.9486 66.4276 76.7921 66.7022 76.8593V76.8593C66.8401 76.8931 66.9858 76.8711 67.1075 76.7981L67.3373 76.6602C67.5756 76.5172 67.8564 76.4622 68.131 76.5046L68.2103 76.5168C68.2469 76.5224 68.2829 76.5317 68.3177 76.5445V76.5445C68.5433 76.6274 68.7967 76.5567 68.9468 76.3689L68.9918 76.3126C69.096 76.1823 69.1468 76.0172 69.134 75.8508L69.1302 75.8004C69.1021 75.4355 69.3292 75.0995 69.6781 74.9894L69.9 74.9194L69.9433 74.9106C70.2934 74.8391 70.5016 74.4769 70.3871 74.1384V74.1384C70.3169 73.9308 70.3668 73.7014 70.5168 73.5416L71.0418 72.9825C71.2619 72.7481 71.418 72.4609 71.495 72.1486L71.5325 71.9963C71.6006 71.7204 71.722 71.4604 71.8901 71.2312L72.0082 71.0702C72.0747 70.9795 72.156 70.9007 72.2487 70.8371L72.2695 70.8228C72.4868 70.6737 72.6317 70.4404 72.6689 70.1796V70.1796C72.6962 69.9886 72.7816 69.8106 72.9133 69.6697L73.4778 69.0661C73.6542 68.8774 73.8566 68.7149 74.0789 68.5835L74.8005 68.1567C74.9772 68.0522 75.1888 68.0244 75.3865 68.0798L75.4922 68.1094C75.6795 68.1619 75.8259 68.3084 75.8784 68.4958V68.4958C75.9467 68.7402 76.1716 68.9076 76.4253 68.9028L78.4577 68.8648C78.8486 68.8575 79.2349 68.7783 79.5971 68.6311L80.4257 68.2945L81.9812 67.8173C82.3619 67.7006 82.6792 67.4346 82.8606 67.0801L82.9315 66.9416C83.0964 66.6193 83.4024 66.3926 83.7587 66.3287L83.9184 66.3001C84.3784 66.2176 84.7133 65.8174 84.7133 65.35V65.35C84.7133 65.2578 84.7265 65.1661 84.7525 65.0776L84.7569 65.0627C84.8989 64.5799 84.6862 64.0632 84.2454 63.8202L84.0138 63.6926ZM65.8621 80.2363V80.2363C65.6703 80.2798 65.4743 80.3018 65.2777 80.3018H65.108L65.8621 80.2363ZM64.9071 81.1638C64.7726 81.2222 64.6859 81.3554 64.6859 81.5019V82.068C64.6859 82.0723 64.6828 82.0759 64.6785 82.0766V82.0766C64.6764 82.077 64.6742 82.0766 64.6724 82.0754L64.0104 81.6603C63.9476 81.6209 63.8962 81.5658 63.8612 81.5004V81.5004C63.7069 81.2116 63.9228 80.864 64.2501 80.8745L64.4695 80.8815H64.4814C64.509 80.8815 64.5361 80.8784 64.5624 80.8724C64.6326 80.8565 64.7139 80.8808 64.7655 80.9311V80.9311L64.9215 81.0871C64.945 81.1106 64.9376 81.1504 64.9071 81.1638V81.1638ZM84.3637 65.1058C84.3535 65.1394 84.3486 65.1748 84.3486 65.2098V65.2098C84.3486 65.5788 84.0842 65.8949 83.721 65.9601L83.1326 66.0656C83.0189 66.086 82.922 66.1581 82.8693 66.2612V66.2612C82.5205 66.9424 81.9109 67.4534 81.1792 67.6779L80.3218 67.941C80.3116 67.9441 80.301 67.9481 80.2912 67.9516L79.4623 68.2884C79.1421 68.4186 78.8006 68.4886 78.4549 68.4951L76.7361 68.5275C76.4658 68.5326 76.2262 68.3545 76.1532 68.0941V68.0941C76.1182 67.9698 76.0213 67.8729 75.8974 67.8383L75.1806 67.6374C75.1474 67.6286 75.1146 67.6233 75.081 67.6233C75.0155 67.6233 74.9505 67.6405 74.8934 67.6746L73.5592 68.4632C73.5287 68.4809 73.5017 68.503 73.4774 68.5287L72.4445 69.6332C72.3932 69.6885 72.3596 69.758 72.3489 69.8332L72.3345 69.934C72.2944 70.2155 72.1381 70.4674 71.9038 70.6284V70.6284C71.8697 70.6519 71.8396 70.6811 71.8148 70.7147L71.3418 71.3599C71.313 71.3984 71.2922 71.4431 71.2807 71.49V71.49C71.1269 72.1146 70.8149 72.6891 70.3748 73.1582L70.0085 73.5486C69.9151 73.6481 69.8841 73.7902 69.9279 73.9198L70.0281 74.2159C70.079 74.3662 69.9865 74.5271 69.831 74.5588V74.5588C69.8182 74.5615 69.8058 74.5646 69.7934 74.5686L68.9756 74.8265C68.8119 74.8779 68.7053 75.0359 68.7185 75.2071L68.77 75.8806C68.7756 75.9537 68.7533 76.0262 68.7075 76.0835L68.6973 76.0963C68.6255 76.1863 68.504 76.2201 68.3959 76.1802V76.1802C68.3729 76.1718 68.349 76.1656 68.3247 76.1616L67.7654 76.0753C67.7468 76.0722 67.7277 76.0709 67.7096 76.0709C67.6428 76.0709 67.5777 76.0886 67.5198 76.1236L67.3511 76.2248C67.0373 76.4131 66.6619 76.4699 66.3064 76.3829V76.3829C66.2772 76.3758 66.2475 76.3723 66.2183 76.3723C66.0617 76.3723 65.917 76.4732 65.867 76.6285L65.8605 76.6485C65.7708 76.9273 65.4593 77.0671 65.1912 76.9489V76.9489C65.1443 76.9281 65.0934 76.917 65.0421 76.917C65.0324 76.917 65.0231 76.9174 65.0133 76.9183L64.454 76.9613C64.2721 76.9754 64.1274 77.1206 64.1141 77.3033L64.0712 77.906C64.0641 78.0012 64.0947 78.0945 64.1549 78.168L64.5978 78.7023C64.7482 78.8837 64.7452 79.1472 64.5907 79.3252V79.3252C64.5013 79.4278 64.4761 79.5725 64.5248 79.6995L64.6682 80.0726C64.7007 80.1573 64.7618 80.2246 64.8376 80.2653C64.8567 80.2756 64.8579 80.3425 64.8392 80.3536V80.3536C64.8292 80.3595 64.8161 80.3555 64.8109 80.3451C64.799 80.3217 64.7845 80.2994 64.7673 80.2788L64.2942 79.7053C64.2239 79.6195 64.119 79.5708 64.0093 79.5708C63.9973 79.5708 63.9845 79.5712 63.9725 79.5725L63.7852 79.5913C63.3764 79.6322 62.9888 79.4014 62.8299 79.0225V79.0225C62.8122 78.9805 62.7875 78.9424 62.7565 78.9097L62.1095 78.2366V78.2366C61.7025 77.7017 61.5083 77.0348 61.5646 76.3649L61.6232 75.6678C61.633 75.5523 61.5878 75.4386 61.5015 75.3616L59.2071 73.3105C59.1695 73.2769 59.1256 73.2517 59.0779 73.2358V73.2358C57.874 72.8347 56.8393 72.0415 56.1393 70.9832L56.0568 70.8585C56.0183 70.8001 55.9634 70.7536 55.8993 70.7253L55.199 70.4121C55.0422 70.3419 54.9208 70.2108 54.8629 70.0491V70.0491C54.8231 69.9376 54.7315 69.8513 54.6173 69.8181L53.4698 69.4885C53.4362 69.4787 53.4021 69.4739 53.3676 69.4739C53.3034 69.4739 53.2402 69.4902 53.1835 69.5225C53.0968 69.5721 53.034 69.6553 53.0096 69.7518L52.5512 71.559C52.5171 71.6935 52.5613 71.8355 52.6653 71.9267L53.0834 72.2946C53.7141 72.8496 54.2197 73.5322 54.5668 74.2973V74.2973C54.593 74.3548 54.6337 74.4044 54.6841 74.442L55.8311 75.2857C56.2047 75.5605 56.5529 75.8683 56.8715 76.2055V76.2055C56.8932 76.2285 56.9179 76.2484 56.9449 76.2652L57.7374 76.7574C58.0168 76.931 57.9854 77.3472 57.6831 77.4768V77.4768C57.4977 77.556 57.4105 77.7697 57.4871 77.9565L57.8822 78.9158C57.8995 78.9579 57.8937 79.0059 57.8667 79.0426L57.7694 79.1751C57.711 79.2546 57.5853 79.2 57.6034 79.1031V79.1031C57.6154 79.0371 57.6096 78.9694 57.5862 78.9066L57.1702 77.7883C57.1423 77.7135 57.0914 77.6498 57.0242 77.6069L56.3361 77.1622C56.3343 77.1608 56.3321 77.1595 56.3299 77.1582L54.3789 75.9509C53.9652 75.695 53.5712 75.4085 53.2 75.094L52.4714 74.4767C51.8888 73.9831 51.418 73.3711 51.0905 72.6813V72.6813C51.0644 72.626 51.025 72.5786 50.9763 72.5423L49.7718 71.6529C49.7076 71.6051 49.6302 71.5807 49.5523 71.5807C49.5147 71.5807 49.4766 71.5865 49.4399 71.598L47.8189 72.1144C47.7884 72.1241 47.7601 72.1374 47.7331 72.1542L46.9908 72.6251C46.3406 73.0374 45.5378 73.1303 44.8107 72.8773V72.8773C44.7877 72.8698 44.7642 72.864 44.7408 72.86L43.2061 72.645C43.1889 72.6423 43.172 72.641 43.1548 72.641C43.0813 72.641 43.0083 72.6631 42.9468 72.7052L42.0003 73.3504C41.8963 73.4216 41.8352 73.5406 41.8392 73.6668V73.6668C41.8621 74.4002 41.5116 75.0952 40.9084 75.5128L40.8915 75.5245C40.6977 75.6587 40.4835 75.7609 40.2572 75.8272L39.4806 76.0546C39.3872 76.082 39.3085 76.1449 39.2616 76.2298V76.2298C39.0327 76.6419 38.7708 77.0346 38.4784 77.4043L37.9039 78.1304C37.8442 78.206 37.8163 78.3012 37.826 78.3968L37.884 78.9683C37.924 79.3631 37.7515 79.7494 37.4309 79.9832V79.9832C37.3632 80.0328 37.3136 80.1045 37.2919 80.1863L37.2671 80.2792C37.1683 80.6488 36.9363 80.9687 36.6158 81.1776V81.1776C36.6056 81.1838 36.5963 81.1908 36.587 81.1984V81.1984C35.964 81.6949 35.1924 81.9678 34.3958 81.9733L33.7163 81.9781C33.6371 81.9785 33.561 82.0046 33.4973 82.0515V82.0515C33.1637 82.3021 32.7785 82.4752 32.3696 82.5583L32.1547 82.602C32.1228 82.6082 32.0919 82.6193 32.0635 82.6339V82.6339C31.844 82.7439 31.5777 82.6905 31.4176 82.5044L30.6439 81.6051C30.5736 81.5232 30.4709 81.4767 30.3643 81.4767C30.3523 81.4767 30.3395 81.4772 30.3275 81.4785L29.9428 81.5174C29.1334 81.5993 28.4259 80.9741 28.4075 80.1607V80.1607C28.4057 80.0784 28.3756 79.9983 28.3239 79.9351L27.9593 79.4917C27.7963 79.2934 27.8084 79.0043 27.9875 78.8204V78.8204C28.0274 78.7796 28.0566 78.7301 28.0743 78.6765L28.3756 77.7442C28.3858 77.7136 28.3916 77.6822 28.3929 77.6495L28.5075 75.4404C28.5093 75.4055 28.5062 75.3705 28.4978 75.3369L28.1535 73.8739C28.1495 73.8567 28.1438 73.8398 28.1376 73.823V73.823C28.134 73.8144 28.1398 73.8049 28.149 73.804L28.3885 73.781C28.4495 73.7752 28.5071 73.7544 28.5579 73.7208V73.7208C29.0773 73.3745 29.7165 73.2577 30.3248 73.3979L30.5218 73.4433C30.5439 73.4482 30.566 73.4517 30.5891 73.4522L36.3405 73.696C36.3454 73.696 36.3507 73.6965 36.3564 73.6965C36.4781 73.6965 36.5923 73.6363 36.6609 73.5354L37.464 72.3591C37.5025 72.3021 37.5251 72.2352 37.5282 72.1671L37.657 69.1412C37.6618 69.0252 37.6118 68.9133 37.522 68.8398V68.8398C36.8579 68.2974 36.2344 67.7072 35.6563 67.074L35.6391 67.0551C35.5953 67.0073 35.54 66.9719 35.4793 66.9525L33.4613 66.3064C33.3221 66.2619 33.235 66.1239 33.2546 65.979V65.979C33.2727 65.845 33.3779 65.7395 33.5119 65.721L34.1618 65.6311C34.3095 65.6106 34.4597 65.6187 34.6043 65.6549L35.8648 65.9701C35.8944 65.9776 35.9245 65.9807 35.9541 65.9807C36.021 65.9807 36.0873 65.9621 36.1453 65.9276L36.7617 65.5546C36.9202 65.459 36.983 65.2603 36.9091 65.0908L36.5902 64.3616C36.5617 64.2963 36.5868 64.2201 36.6486 64.1846V64.1846C36.6844 64.1641 36.7275 64.1605 36.7662 64.1747L38.2937 64.7377C38.3357 64.7527 38.3786 64.7607 38.4211 64.7607C38.5326 64.7607 38.6411 64.7098 38.7123 64.6177V64.6177C39.0668 64.1618 39.5355 63.8077 40.071 63.5914L40.5098 63.4141C40.62 63.3699 40.7028 63.2738 40.7306 63.1579V63.1579C40.8648 62.5977 41.2602 62.1363 41.7932 61.9179L42.5188 61.6206C42.5865 61.5927 42.6449 61.5449 42.6856 61.4843L43.7434 59.9025C43.9446 59.6015 44.2942 59.4343 44.6548 59.4665V59.4665C44.6655 59.4678 44.677 59.4678 44.688 59.4678C44.8314 59.4678 44.9633 59.3842 45.0235 59.2514V59.2514C45.2405 58.7751 45.7026 58.4572 46.2251 58.4248L46.7758 58.3907C46.8798 58.3845 46.9762 58.3341 47.0408 58.2531V58.2531C47.1971 58.0576 47.4268 57.935 47.6762 57.9141L49.3504 57.7739C49.465 57.7641 49.5685 57.7017 49.6309 57.6044C49.6929 57.5075 49.7057 57.3867 49.6663 57.2791L49.3155 56.3246C49.3014 56.2862 49.3004 56.2442 49.3128 56.2051V56.2051C49.3402 56.1193 49.3358 56.0268 49.2995 55.9445V55.9445C49.1994 55.716 49.1303 55.4751 49.0942 55.2283L49.026 54.7621C49.0172 54.7024 48.9942 54.6466 48.9588 54.5979L48.4925 53.9583C48.3472 53.759 48.2963 53.5062 48.3531 53.2662L48.3958 53.086C48.4845 52.7116 48.8697 52.4888 49.2384 52.5986V52.5986C49.2725 52.6088 49.3084 52.6136 49.3438 52.6136C49.4066 52.6136 49.4686 52.5977 49.5239 52.5667C49.6106 52.518 49.6748 52.4362 49.7004 52.3397L49.778 52.0489C49.7966 51.9795 49.843 51.9209 49.9064 51.8871V51.8871C50.1051 51.781 50.3353 51.9613 50.2798 52.1796L50.2252 52.3946C50.189 52.5353 50.2399 52.6844 50.3536 52.7747V52.7747C50.5541 52.934 50.5598 53.2366 50.3654 53.4033L49.8434 53.8509C49.7575 53.9244 49.7102 54.0324 49.7146 54.1452C49.719 54.2576 49.7743 54.362 49.865 54.4288L50.109 54.6076C50.113 54.6106 50.1168 54.6139 50.1202 54.6176V54.6176C50.1717 54.6724 50.1275 54.7618 50.0526 54.7542L49.769 54.7253C49.7562 54.724 49.7442 54.7236 49.7314 54.7236C49.6146 54.7236 49.5035 54.7789 49.434 54.874C49.3566 54.9793 49.3407 55.1178 49.392 55.2382L49.6499 55.8396C49.6797 55.9091 49.6951 55.9839 49.6951 56.0595V56.0595C49.6951 56.1825 49.7566 56.298 49.8588 56.3666L51.636 57.5556C51.6976 57.5968 51.7692 57.6176 51.8414 57.6176C51.8936 57.6176 51.9454 57.607 51.994 57.5844L52.4662 57.3693C53.4127 56.9381 54.4977 56.9286 55.4515 57.3432V57.3432C55.4984 57.3636 55.5484 57.3738 55.5988 57.3738C55.6298 57.3738 55.6603 57.3698 55.6909 57.3623L57.0821 57.0038C57.0936 57.0007 57.1051 56.9976 57.1158 56.9936L58.725 56.4099C59.199 56.238 59.7297 56.3585 60.0828 56.7184V56.7184C60.1527 56.7901 60.2483 56.8286 60.3461 56.8286C60.3678 56.8286 60.3899 56.8268 60.412 56.8228V56.8228C61.2873 56.6644 62.175 56.5848 63.0645 56.5848H64.7925C64.8978 56.5848 64.9974 56.5405 65.0678 56.4617C65.1381 56.383 65.1713 56.279 65.1598 56.175L65.0593 55.2718C65.0443 55.1342 64.9527 55.016 64.8235 54.9674L63.4434 54.4449C63.399 54.4281 63.3791 54.3763 63.4008 54.3341V54.3341C63.4375 54.2624 63.4495 54.1815 63.4358 54.1018L63.2544 53.0675C63.2071 52.7976 63.2845 52.5208 63.465 52.3145V52.3145C63.5061 52.2676 63.5349 52.2105 63.5481 52.1495L63.6144 51.8416C63.6505 51.6736 63.7561 51.5288 63.905 51.4429V51.4429C64.1694 51.2904 64.506 51.3577 64.6914 51.6002L64.916 51.8937C64.9713 51.9654 65.0505 52.0149 65.1394 52.0322L66.0289 52.2043C66.0524 52.2088 66.0758 52.2114 66.0993 52.2114C66.1842 52.2114 66.2679 52.1818 66.3347 52.1265L66.9228 51.6388C67.0073 51.5684 67.056 51.4644 67.056 51.3547V50.1648C67.056 50.0727 67.0219 49.9847 66.9604 49.9165L66.5391 49.4522C66.4771 49.3838 66.4277 49.3049 66.3933 49.2192V49.2192C66.2313 48.8152 66.4324 48.357 66.8394 48.2028L67.515 47.9466C67.7385 47.8619 67.9791 47.8323 68.2165 47.8604L69.9456 48.065C69.9602 48.0668 69.9748 48.0677 69.9885 48.0677V48.0677C70.0975 48.0677 70.1654 48.186 70.1104 48.2801L69.9138 48.6164C69.8726 48.6877 69.8562 48.77 69.8669 48.8509L70.0041 49.8852C70.0335 50.1063 70.0395 50.33 70.0222 50.5524V50.5524C70.0209 50.567 70.0209 50.5811 70.0217 50.5953L70.0788 52.0295C70.0815 52.087 70.0974 52.1436 70.1253 52.1936L70.8422 53.4845C70.8807 53.5536 70.9404 53.6089 71.013 53.6421L72.3754 54.2585C72.4135 54.2757 72.4542 54.2864 72.4958 54.2903L72.8211 54.3191V54.3191C73.1954 54.3559 73.508 54.6201 73.6067 54.983L73.8207 55.7697C73.8371 55.8299 73.8685 55.8843 73.9114 55.9295L75.139 57.1995L75.3417 57.4309C75.3735 57.4672 75.3533 57.5241 75.3058 57.5323V57.5323C75.2589 57.5407 75.2133 57.5575 75.1726 57.5832L74.5274 57.9845C74.396 58.0664 74.3296 58.2217 74.361 58.3735L74.6478 59.7501C74.6801 59.9041 74.8062 60.0209 74.9624 60.0413C75.7744 60.1448 75.8142 60.1448 75.8412 60.1448H76.2773C76.9668 60.1448 77.5767 60.5919 77.7843 61.2494V61.2494C77.8197 61.3609 77.9055 61.4494 78.0166 61.4874V61.4874C78.5321 61.6645 78.9724 62.0109 79.266 62.4702L79.4034 62.6853C79.4397 62.742 79.4897 62.7867 79.5495 62.8168L80.4389 63.2615C80.4903 63.2876 80.5469 63.3 80.604 63.3C80.6261 63.3 80.6482 63.2982 80.6699 63.2943L81.0622 63.2231C81.4758 63.148 81.8986 63.2935 82.1785 63.6071V63.6071C82.2351 63.6704 82.3117 63.7124 82.3962 63.7257L83.5047 63.9024C83.6216 63.9211 83.7343 63.9597 83.8381 64.0165L83.9393 64.072C84.3068 64.2735 84.4837 64.7043 84.3637 65.1058V65.1058Z" fill="#576673" stroke="#576673" stroke-width="0.5" stroke-linejoin="round"/>
<path d="M52.0772 55.5916C52.2338 55.7721 52.5219 55.7433 52.6397 55.5354L53.031 54.8447C53.2024 54.5421 53.0973 54.1578 52.7958 53.9845L52.7498 53.958C52.6535 53.9027 52.5411 53.8822 52.4315 53.9V53.9C52.1539 53.9451 51.9734 54.2167 52.0392 54.4901L52.1166 54.8117C52.1429 54.9211 52.1268 55.0363 52.0714 55.1343L52.0373 55.1946C51.9653 55.322 51.9813 55.481 52.0772 55.5916V55.5916ZM52.4916 54.2643C52.5174 54.2602 52.5438 54.2651 52.5664 54.2781L52.7278 54.371C52.7893 54.4064 52.8108 54.4848 52.7758 54.5466L52.5719 54.9063C52.56 54.9272 52.5224 54.9187 52.5168 54.8952V54.8952L52.3984 54.4039C52.3828 54.3391 52.4258 54.2747 52.4916 54.2643V54.2643Z" fill="#576673" stroke="#576673" stroke-width="0.5" stroke-linejoin="round"/>
<path d="M44.8424 44.3403C44.8307 44.4064 44.8477 44.4743 44.8892 44.5271V44.5271C44.9706 44.6308 44.9512 44.7811 44.8461 44.8608L44.7881 44.9047C44.6973 44.9736 44.652 45.0871 44.6705 45.1997L44.7027 45.3957C44.7193 45.4965 44.7095 45.5999 44.6744 45.6959L44.6373 45.7969C44.5653 45.9934 44.6366 46.2137 44.81 46.3308V46.3308C44.8329 46.3462 44.8571 46.3596 44.8825 46.3706L44.9695 46.4086C45.2105 46.5139 45.4921 46.4457 45.6581 46.2417L45.789 46.081C45.8728 45.9781 46.0139 45.9415 46.1372 45.9908V45.9908C46.2471 46.0347 46.3215 46.1385 46.3278 46.2568L46.3306 46.309C46.34 46.4884 46.2243 46.6505 46.0516 46.6999L46.0057 46.713C45.9183 46.738 45.8407 46.7891 45.7832 46.8595L45.6118 47.0693C45.4951 47.2123 45.2819 47.2268 45.1469 47.101L44.9617 46.9286C44.8981 46.8693 44.7953 46.8879 44.7565 46.9657V46.9657C44.744 46.9906 44.7399 47.0188 44.7447 47.0463L44.7867 47.287C44.7988 47.3561 44.7967 47.4269 44.7805 47.4951L44.713 47.779C44.6883 47.8829 44.7482 47.9881 44.8502 48.02V48.02C44.9284 48.0444 45.0137 48.0195 45.0664 47.9567L45.1545 47.8518C45.2432 47.7461 45.3792 47.6923 45.5162 47.7087L45.6585 47.7258C45.7378 47.7353 45.8082 47.7811 45.849 47.8498V47.8498C45.9167 47.9639 45.8864 48.1107 45.7792 48.1887L45.7134 48.2366C45.6707 48.2677 45.6356 48.3081 45.611 48.3548L45.5825 48.4088C45.4247 48.7075 45.5402 49.0776 45.8399 49.2336L46.1799 49.4105L46.6912 49.6053C47.0847 49.7552 47.5128 49.7898 47.9253 49.7049V49.7049C48.2994 49.6279 48.6472 49.4555 48.935 49.2042L49.6468 48.5827C49.7164 48.5219 49.7914 48.4676 49.8708 48.4204L50.1746 48.2397C50.3226 48.1517 50.4304 48.0093 50.4748 47.8429L50.5113 47.7062C50.5548 47.5436 50.688 47.4205 50.8535 47.3899V47.3899C51.0128 47.3605 51.1753 47.4219 51.2754 47.5493L51.6251 47.9942C51.8151 48.236 51.9185 48.5347 51.9185 48.8422V48.8934C51.9185 49.14 51.9784 49.3829 52.0932 49.6011L52.4393 50.2592L52.9722 51.5617C53.0406 51.729 53.1384 51.8826 53.2608 52.0155L53.3594 52.1223C53.5542 52.3336 53.6624 52.6105 53.6624 52.898V52.898C53.6624 53.0915 53.7115 53.2819 53.8051 53.4513L53.8655 53.5606C53.8929 53.6101 53.9152 53.6623 53.9321 53.7164L54.0395 54.0604C54.1507 54.4162 54.5698 54.5688 54.8836 54.3678L54.928 54.3394C55.0626 54.2532 55.144 54.1044 55.144 53.9446V53.9446C55.144 53.7313 55.288 53.5449 55.4944 53.491L56.0918 53.3351L56.7729 53.1402C56.8536 53.1171 56.9372 53.1054 57.0211 53.1054H57.3505C57.571 53.1054 57.7631 52.9554 57.8167 52.7416L57.8371 52.6601C57.876 52.5044 57.8091 52.3414 57.672 52.258V52.258C57.5627 52.1915 57.4959 52.0728 57.4959 51.9449V51.7C57.4959 51.5894 57.5188 51.48 57.5632 51.3786L57.6816 51.1079C57.804 50.828 57.8672 50.5258 57.8672 50.2203V49.8452C57.8672 49.6526 57.9163 49.4632 58.0098 49.2949V49.2949C58.0905 49.1498 58.202 49.0241 58.3366 48.9269L58.7686 48.6148L59.4032 48.0936C59.6365 47.902 59.817 47.654 59.9275 47.3731L59.9695 47.2664C59.9822 47.234 59.9979 47.203 60.0165 47.1736V47.1736C60.1707 46.9291 60.1112 46.6072 59.8799 46.4339L59.3243 46.0178C59.2593 45.9692 59.1897 45.927 59.1165 45.892V45.892C58.6868 45.6865 58.4132 45.2525 58.4132 44.7762V44.2043C58.4132 43.9425 58.4775 43.6846 58.6004 43.4534V43.4534C58.6758 43.3117 58.7294 43.1593 58.7594 43.0016L58.7799 42.8941C58.8748 42.3956 59.1303 41.9419 59.5074 41.6024L59.9868 41.1708L60.0974 41.0628C60.541 40.6295 61.03 40.2452 61.5558 39.9166L62.2879 39.459C62.4034 39.3868 62.5095 39.3007 62.604 39.2025L63.101 38.6862C63.2701 38.5104 63.3156 38.2496 63.2159 38.027V38.027C63.1314 37.8383 63.1503 37.6194 63.2659 37.448L63.4549 37.1678C63.522 37.0684 63.5637 36.9542 63.5765 36.835V36.835C63.598 36.6349 63.7004 36.4524 63.8601 36.33L64.1839 36.0815C64.4552 35.8734 64.7833 35.7525 65.1248 35.735L65.7976 35.7004C66.1367 35.683 66.4744 35.7553 66.7766 35.91L67.384 36.221C67.6199 36.3417 67.7737 36.5787 67.7881 36.8433L67.8023 37.1072C67.8117 37.2794 67.7067 37.4373 67.5443 37.4953V37.4953C67.4804 37.5182 67.4236 37.5574 67.3794 37.6089L66.4431 38.7028C66.2065 38.9793 65.9211 39.21 65.6011 39.3835L64.9567 39.7329C64.7382 39.8514 64.5702 40.0452 64.4839 40.2783L64.4433 40.3877C64.3335 40.6844 64.0657 40.8937 63.7513 40.9285L63.7067 40.9334C63.4582 40.9609 63.2396 41.1102 63.1236 41.3316L63.1114 41.3547C62.9933 41.5802 63.0054 41.8518 63.1432 42.0658V42.0658C63.206 42.1633 63.2439 42.2747 63.2534 42.3902L63.2915 42.8499C63.3033 42.9916 63.3294 43.1318 63.3695 43.2682L63.4619 43.5822C63.5347 43.8298 63.5222 44.0947 63.4263 44.3344V44.3344C63.2087 44.8787 63.4348 45.4996 63.9514 45.7765L64.5288 46.0859C64.6815 46.1678 64.8447 46.2282 65.0139 46.2654L65.3714 46.344C66.1289 46.5107 66.9165 46.4799 67.6586 46.2544L68.0672 46.1303C68.3597 46.0415 68.66 45.9743 68.9625 45.9298V45.9298C70.1498 45.7552 71.2683 45.2422 72.173 44.4537L73.2619 43.5046L73.9514 42.886L74.5375 42.2209C74.7447 41.9857 74.8166 41.6606 74.7279 41.3599V41.3599C74.6714 41.1686 74.5537 41.0011 74.393 40.8831L73.5711 40.2797C73.5298 40.2494 73.4929 40.2135 73.4616 40.1729L73.3516 40.0308C73.2092 39.8468 73.2585 39.5799 73.4573 39.459V39.459C73.6783 39.3245 73.7096 39.0161 73.5201 38.8401L73.3827 38.7124C73.2424 38.5821 73.183 38.3864 73.2272 38.2001L73.2372 38.1581C73.2856 37.954 73.225 37.7394 73.0769 37.5908L73.0726 37.5864C72.9575 37.4708 72.8928 37.3143 72.8928 37.1511V36.678C72.8928 36.5077 72.947 36.3419 73.0475 36.2045V36.2045C73.2674 35.9035 73.2512 35.4908 73.0082 35.208L72.5812 34.711C72.4947 34.6103 72.427 34.4949 72.3815 34.3702L72.2299 33.9551C72.1238 33.6644 72.2526 33.3404 72.5294 33.2019V33.2019C72.6056 33.1638 72.673 33.11 72.7272 33.0441L72.9596 32.7614C73.162 32.5151 73.1829 32.1665 73.0113 31.8979V31.8979C72.934 31.7769 72.8231 31.6812 72.6921 31.6225L72.5872 31.5755C72.4507 31.5143 72.3279 31.4265 72.2259 31.3171L71.9514 31.0226C71.761 30.8184 71.6552 30.5497 71.6552 30.2705V30.2705C71.6552 30.0249 71.7371 29.7863 71.8881 29.5926L72.1491 29.2576C72.4377 28.8873 72.8309 28.6124 73.2778 28.4686L74.0902 28.2072C74.1163 28.1988 74.1407 28.1859 74.1624 28.1691V28.1691C74.2932 28.0671 74.2794 27.8652 74.136 27.782L74.0833 27.7515C74.0017 27.7041 73.9015 27.7019 73.8179 27.7456L73.4808 27.9217C73.3762 27.9764 73.2478 27.9525 73.1698 27.8639V27.8639C73.1616 27.8545 73.1527 27.8457 73.1432 27.8377L72.5068 27.2979C72.4044 27.211 72.3884 27.059 72.4704 26.9527V26.9527C72.5387 26.8641 72.6573 26.8314 72.7614 26.8723L73.0871 27.0004C73.3126 27.0892 73.5678 27.058 73.7653 26.9175L73.885 26.8324V26.8324C74.0444 26.6928 74.034 26.4416 73.8636 26.3156L73.4649 26.021C73.359 25.9427 73.2339 25.8945 73.1028 25.8815L72.9706 25.8683C72.8713 25.8584 72.7772 25.8198 72.6995 25.7573V25.7573C72.5325 25.6226 72.2992 25.6062 72.115 25.7162L72.0374 25.7625C71.8728 25.8607 71.772 26.0383 71.772 26.23V26.4346C71.772 26.5553 71.6924 26.6614 71.5766 26.6953V26.6953C71.4291 26.7383 71.2754 26.6506 71.2374 26.5018L71.1222 26.051C71.086 25.9093 71.1226 25.7589 71.2197 25.6496L71.2413 25.6252C71.2779 25.5841 71.3031 25.5341 71.3145 25.4802V25.4802C71.3442 25.34 71.2761 25.1972 71.1484 25.1321L71.0078 25.0603C70.9312 25.0213 70.8437 25.0092 70.7595 25.0261V25.0261C70.5814 25.0619 70.4533 25.2183 70.4533 25.3999V25.4792C70.4533 25.6014 70.4064 25.719 70.3224 25.8078L69.9745 26.1752C69.8739 26.2815 69.7026 26.2744 69.6111 26.1601V26.1601C69.597 26.1426 69.5855 26.1232 69.5768 26.1025L69.5679 26.0811C69.4573 25.8172 69.1161 25.7468 68.91 25.9453L68.8146 26.0373L68.3387 26.5495C68.3197 26.57 68.2991 26.5888 68.277 26.606L68.0582 26.7763C67.8534 26.9356 67.5525 26.8237 67.5017 26.5692V26.5692C67.48 26.4604 67.5113 26.3477 67.5861 26.2658L68.253 25.5346C68.2654 25.521 68.2789 25.5084 68.2933 25.497L68.4995 25.3327C68.5942 25.2573 68.5824 25.1099 68.4768 25.0506V25.0506C68.4219 25.0197 68.3545 25.0216 68.3014 25.0555L68.0269 25.2308C67.9642 25.2708 67.8956 25.3008 67.8237 25.3196L67.4702 25.4122C67.4134 25.4271 67.3529 25.4145 67.3067 25.3781V25.3781C67.2411 25.3264 67.1492 25.3243 67.0813 25.3731L67.0645 25.3852C66.9967 25.4339 66.9633 25.5175 66.9787 25.5995L66.9958 25.6904C67.0062 25.7455 66.9983 25.8024 66.9732 25.8526L66.9393 25.9206C66.8824 26.0344 66.734 26.0652 66.6365 25.9834V25.9834C66.6033 25.9555 66.5617 25.9393 66.5183 25.9375L66.3902 25.932C66.2248 25.9249 66.0644 25.9896 65.9501 26.1095L65.7112 26.3602C65.6053 26.4713 65.5707 26.6324 65.6217 26.7772L65.6552 26.8727C65.6953 26.9866 65.6556 27.1133 65.5577 27.1841V27.1841C65.4117 27.2897 65.2053 27.2271 65.1424 27.0583L65.0963 26.9346C65.0877 26.9114 65.0768 26.8891 65.0637 26.8681L65.0392 26.8286C64.8704 26.5566 64.9518 26.1993 65.2218 26.0273L65.529 25.8315C65.5802 25.7989 65.6019 25.7351 65.5813 25.678V25.678C65.5539 25.6024 65.465 25.5696 65.3951 25.6094L64.9986 25.8349C64.9329 25.8723 64.8597 25.8947 64.7843 25.9006L64.5074 25.9221C64.3763 25.9323 64.273 26.038 64.2657 26.1693V26.1693C64.2612 26.2509 64.2949 26.33 64.357 26.3832L64.6043 26.595C64.6424 26.6276 64.6606 26.6777 64.6524 26.7271V26.7271C64.6388 26.8096 64.5576 26.8629 64.4765 26.8426L64.1226 26.7541L63.774 26.7034C63.7025 26.693 63.6312 26.7234 63.5892 26.7823V26.7823C63.543 26.8472 63.5414 26.9339 63.5853 27.0004L63.8443 27.3927C63.861 27.4181 63.8649 27.4498 63.8547 27.4784V27.4784C63.8369 27.5285 63.7822 27.5549 63.7319 27.5376L62.9994 27.2852C62.9675 27.2742 62.9399 27.2536 62.9203 27.2262L62.8987 27.196C62.8254 27.0933 62.665 27.1263 62.6383 27.2496V27.2496C62.6329 27.2744 62.6341 27.3001 62.6417 27.3242L62.7261 27.592C62.7695 27.7296 62.7445 27.8795 62.6589 27.9956L62.6069 28.0663C62.5544 28.1375 62.4712 28.1794 62.3827 28.1793V28.1793C62.2639 28.1792 62.1582 28.1035 62.1199 27.9909L62.0461 27.7742C62.0287 27.7233 61.9914 27.6816 61.9427 27.6587V27.6587C61.8867 27.6325 61.8217 27.6338 61.7669 27.6624L61.6763 27.7096C61.5292 27.7864 61.3484 27.7046 61.3066 27.544V27.544C61.2912 27.485 61.2976 27.422 61.3248 27.3674V27.3674C61.3831 27.2507 61.3426 27.1088 61.2315 27.0404L61.186 27.0124C61.1006 26.9598 60.9949 26.9517 60.9025 26.9908L60.616 27.1118C60.4783 27.17 60.4184 27.3324 60.4854 27.466V27.466C60.5122 27.5193 60.5196 27.5803 60.5066 27.6385L60.4897 27.7135C60.4592 27.8495 60.3518 27.955 60.2153 27.9831V27.9831C60.0905 28.0088 59.9891 28.0994 59.9496 28.2205L59.9099 28.3424C59.8894 28.4052 59.8424 28.4559 59.7812 28.4811V28.4811C59.7086 28.5109 59.6257 28.5008 59.5624 28.4544L59.35 28.2988C59.2954 28.2588 59.234 28.2291 59.1687 28.2109V28.2109C58.9723 28.1563 58.7618 28.2125 58.6187 28.3577L58.2804 28.701C58.2419 28.74 58.2204 28.7925 58.2204 28.8473V28.8473C58.2204 28.9848 58.3511 29.0846 58.4837 29.0485L58.6354 29.0071C58.816 28.9579 59.0012 29.0693 59.0424 29.252L59.1378 29.6757C59.1528 29.7425 59.1418 29.8124 59.107 29.8713V29.8713C59.0471 29.9726 58.9283 30.0231 58.8138 29.9959L58.5411 29.9311C58.4488 29.9092 58.3516 29.9302 58.2765 29.9882V29.9882C58.1681 30.0721 58.0177 30.0759 57.9051 29.9976L57.6769 29.8387C57.5984 29.7841 57.4978 29.7722 57.4088 29.8069L57.402 29.8096C57.2633 29.8637 57.1066 29.7995 57.0457 29.6636V29.6636C57.0102 29.5842 57.0137 29.4927 57.0553 29.4163L57.2039 29.1429C57.2208 29.1117 57.2179 29.0733 57.1962 29.0451V29.0451C57.1634 29.0023 57.1004 28.9977 57.0618 29.0355L56.3299 29.75L55.756 30.3479C55.6989 30.4074 55.703 30.5026 55.765 30.557V30.557C55.7914 30.5802 55.8254 30.593 55.8605 30.593H56.1957C56.3494 30.593 56.4965 30.5307 56.6035 30.4204V30.4204C56.7073 30.3135 56.8488 30.2516 56.9977 30.248L57.2547 30.2419C57.4541 30.2371 57.6394 30.3438 57.7355 30.5185L57.7596 30.5625C57.8177 30.668 57.8278 30.7934 57.7876 30.9069L57.7828 30.9203C57.7577 30.9913 57.7544 31.0683 57.7735 31.1412L57.7943 31.2204C57.8272 31.3463 57.7675 31.4781 57.651 31.5362V31.5362C57.5808 31.5713 57.499 31.5747 57.4261 31.5455L57.1043 31.417V31.417C56.9559 31.3738 56.7962 31.3942 56.6634 31.4734L56.5159 31.5614C56.3864 31.6387 56.2771 31.7455 56.197 31.8733L56.0396 32.1244C55.9873 32.2078 55.9518 32.3006 55.9351 32.3976V32.3976C55.9134 32.5238 55.8599 32.6425 55.7797 32.7424L54.797 33.9667L54.3956 34.3947C54.2787 34.5194 54.2068 34.6796 54.1913 34.8499L54.1822 34.9508C54.161 35.1845 54.0068 35.3851 53.7864 35.4657L53.697 35.4984C53.4936 35.5728 53.3649 35.7739 53.3825 35.9898V35.9898C53.3942 36.1328 53.3414 36.2736 53.2387 36.3737L53.2293 36.3829C53.0969 36.512 53.0487 36.7047 53.1049 36.8809L53.1104 36.8982C53.1357 36.9774 53.1373 37.0623 53.115 37.1425V37.1425C53.0759 37.2832 52.9677 37.3942 52.828 37.4368L52.2282 37.6201V37.6201C52.0106 37.6628 51.9225 37.9265 52.071 38.0914L52.2602 38.3016C52.3125 38.3597 52.3287 38.4417 52.3025 38.5153V38.5153C52.2704 38.6053 52.1822 38.6628 52.0869 38.656L51.5811 38.6197C51.484 38.6127 51.3853 38.6222 51.2912 38.6472V38.6472C51.1023 38.6974 50.9328 38.8083 50.8123 38.9622L50.4902 39.3734C50.4118 39.4736 50.2974 39.5391 50.1713 39.5562V39.5562C49.9503 39.5861 49.7777 39.762 49.7519 39.9835L49.7426 40.0637C49.7331 40.1454 49.7001 40.2227 49.6477 40.2861L49.63 40.3075C49.4832 40.4851 49.2172 40.5025 49.0486 40.3454L48.9711 40.2733C48.9468 40.2506 48.9148 40.238 48.8816 40.238V40.238C48.7953 40.238 48.7324 40.3198 48.7546 40.4032L48.8043 40.59C48.8438 40.7386 48.7562 40.8913 48.6079 40.932L47.8106 41.151C47.7903 41.1566 47.7703 41.1636 47.751 41.172V41.172C47.5224 41.2716 47.4208 41.5399 47.5262 41.7659L47.5822 41.886C47.5913 41.9055 47.596 41.9268 47.596 41.9483V41.9483C47.596 42.0383 47.5159 42.1072 47.4269 42.0939L46.8285 42.0045C46.6225 41.9738 46.4173 42.0648 46.3018 42.2381L46.2583 42.3035C46.1858 42.4123 46.0638 42.4776 45.9331 42.4776V42.4776C45.8486 42.4776 45.7663 42.505 45.6987 42.5558L45.4934 42.7098C45.4438 42.7469 45.4131 42.804 45.4093 42.8658V42.8658C45.402 42.9867 45.2946 43.0766 45.1744 43.0627L45.0624 43.0497C44.9557 43.0373 44.8499 43.0797 44.7813 43.1623L44.6079 43.3712C44.5773 43.408 44.5535 43.4499 44.5375 43.495V43.495C44.4868 43.638 44.52 43.7973 44.6236 43.9081L44.7729 44.0679C44.8352 44.1346 44.8625 44.2266 44.8466 44.3165L44.8424 44.3403ZM58.9664 28.5458C58.9664 28.5458 58.9664 28.5458 58.9664 28.5458C58.9649 28.5458 58.9633 28.5458 58.9617 28.5458C58.9572 28.5459 58.9547 28.5403 58.9579 28.5371L58.959 28.536C58.96 28.535 58.9616 28.5346 58.963 28.535L58.9713 28.5373C58.9753 28.5385 58.974 28.5459 58.9698 28.5458C58.9687 28.5458 58.9676 28.5458 58.9664 28.5458C58.9664 28.5458 58.9664 28.5458 58.9664 28.5458V28.5458ZM56.7163 29.8871C56.7163 29.8871 56.7163 29.8871 56.7163 29.8871L56.7276 29.8758C56.7304 29.8729 56.7352 29.8739 56.7368 29.8776L56.7387 29.882C56.7392 29.8832 56.7384 29.8846 56.7371 29.8848C56.7307 29.8856 56.7237 29.8867 56.7163 29.8871C56.7163 29.8871 56.7163 29.8871 56.7163 29.8871V29.8871ZM70.8224 25.3989C70.8224 25.3934 70.8263 25.3886 70.8318 25.3875V25.3875C70.8343 25.387 70.837 25.3874 70.8393 25.3885L70.8769 25.4076C70.8988 25.4188 70.9042 25.4476 70.8879 25.466V25.466C70.865 25.4917 70.8224 25.4755 70.8224 25.441V25.3989ZM67.3425 25.9399C67.3632 25.8975 67.3764 25.8521 67.3805 25.8054C67.3805 25.8051 67.3807 25.8049 67.381 25.8049V25.8049C67.4119 25.8049 67.4438 25.8009 67.4748 25.793V25.793C67.4915 25.7885 67.5038 25.8087 67.4921 25.8215L67.3681 25.9574C67.3559 25.9709 67.3344 25.9562 67.3425 25.9399V25.9399ZM44.8862 43.6173C44.8877 43.6132 44.8898 43.6094 44.8926 43.606L44.9283 43.5629C45.003 43.4726 45.1184 43.4263 45.2349 43.4398L45.3535 43.4535C45.3676 43.4553 45.3822 43.4562 45.396 43.4562C45.4823 43.4562 45.5668 43.4257 45.6332 43.3699C45.7106 43.3044 45.758 43.2106 45.7646 43.1093L45.7669 43.071C45.771 43.0007 45.806 42.9358 45.8624 42.8936V42.8936C45.9038 42.8627 45.954 42.846 46.0057 42.846H46.1425C46.2664 42.846 46.381 42.7845 46.4496 42.6818V42.6818C46.5833 42.4811 46.8209 42.3757 47.0594 42.4112L47.5422 42.4831C47.5608 42.4858 47.5785 42.4871 47.5966 42.4871C47.6847 42.4871 47.7705 42.4561 47.8378 42.3977C47.9192 42.3273 47.9661 42.2256 47.9661 42.118V41.9145C47.9661 41.8605 47.9542 41.8074 47.932 41.7583L47.8619 41.6079C47.8443 41.5703 47.8612 41.5256 47.8993 41.509V41.509C47.9025 41.5076 47.9058 41.5064 47.9092 41.5055L48.9742 41.2131C49.0477 41.1927 49.1103 41.1516 49.1566 41.0976C49.206 41.0403 49.2857 41.0038 49.3614 41.0038V41.0038C49.3698 41.0038 49.3773 41.0038 49.3853 41.0033C49.4866 40.9971 49.5813 40.9489 49.6459 40.8701L50.0145 40.4241C50.0597 40.3696 50.088 40.3024 50.0964 40.232L50.0973 40.2239C50.1174 40.0538 50.2498 39.9189 50.4194 39.8957V39.8957C50.5146 39.8829 50.6009 39.8329 50.6606 39.7572L51.1053 39.1895C51.1763 39.099 51.2747 39.034 51.3859 39.0044V39.0044C51.4427 38.9892 51.5017 38.9836 51.5604 38.9878L52.224 39.0354C52.2328 39.0359 52.2417 39.0359 52.2505 39.0359C52.4054 39.0359 52.5457 38.939 52.5984 38.7912L52.6953 38.5195C52.7409 38.392 52.713 38.2491 52.6223 38.1482V38.1482C52.5362 38.0525 52.5786 37.8998 52.7017 37.8621L53.1639 37.7207C53.2843 37.684 53.3776 37.588 53.4113 37.4663L53.5082 37.1176C53.5272 37.0486 53.5259 36.9755 53.5042 36.9069V36.9069C53.4632 36.7786 53.4982 36.6382 53.5946 36.5441L53.6617 36.4786C53.7405 36.402 53.7812 36.2941 53.7719 36.1843V36.1843C53.757 36.0008 53.8665 35.8298 54.0394 35.7666L54.2777 35.6794C54.4114 35.6307 54.5056 35.5081 54.5189 35.3661V35.3661C54.5556 34.9643 54.7254 34.5863 55.0012 34.2919L55.0703 34.2182C55.0765 34.2111 55.0831 34.204 55.0889 34.1965L56.1938 32.8199C56.2332 32.7712 56.2593 32.7128 56.2699 32.6513L56.2766 32.6123C56.3023 32.4616 56.3573 32.3173 56.4386 32.1878L56.5135 32.0683C56.5625 31.9902 56.6294 31.9248 56.7086 31.8775L56.8716 31.7803C56.9064 31.7595 56.9483 31.7541 56.9873 31.7654V31.7654L57.4068 31.9335C57.451 31.9512 57.4975 31.9601 57.5439 31.9601C57.6006 31.9601 57.6577 31.9468 57.709 31.9216L58.0192 31.7667C58.1754 31.6888 58.255 31.5118 58.2112 31.3428L58.1853 31.2439C58.1515 31.1146 58.1573 30.978 58.2019 30.852V30.852C58.2373 30.7529 58.2285 30.6432 58.1781 30.5507V30.5507C58.1627 30.523 58.1802 30.4883 58.2102 30.4787C58.2501 30.4658 58.2882 30.4461 58.3228 30.4197V30.4197C58.4246 30.341 58.5566 30.3127 58.6818 30.3426L58.9228 30.4002C58.9516 30.4073 58.9799 30.4104 59.0087 30.4104C59.137 30.4104 59.2587 30.3431 59.3264 30.2294L59.4813 29.9674C59.5295 29.886 59.5445 29.7904 59.5238 29.6984L59.3295 28.8355V28.8355C59.324 28.8106 59.3715 28.7702 59.3921 28.7853L59.4485 28.8266C59.5127 28.8735 59.5892 28.8979 59.6667 28.8979C59.7136 28.8979 59.7614 28.889 59.8061 28.8704L60.0194 28.7828C60.1198 28.7417 60.1968 28.6585 60.2305 28.5558L60.2315 28.5526C60.2735 28.4233 60.3818 28.3265 60.515 28.2991V28.2991C60.657 28.2699 60.7694 28.1602 60.8013 28.0186L60.8889 27.6309C60.9047 27.5626 60.9001 27.4917 60.8766 27.426C60.8729 27.4157 60.8777 27.404 60.8878 27.3997V27.3997C60.9025 27.3936 60.9184 27.4063 60.917 27.4222C60.9134 27.4636 60.9169 27.5055 60.9279 27.5464L61.0345 27.9535C61.0633 28.0619 61.1394 28.1522 61.242 28.1978C61.2898 28.2186 61.3412 28.2297 61.3916 28.2297C61.45 28.2297 61.5089 28.2155 61.5624 28.1876V28.1876C61.668 28.1325 61.7985 28.1863 61.8368 28.2991V28.2991C61.8877 28.4487 62.0284 28.5496 62.1864 28.5496H62.5258C62.643 28.5496 62.7537 28.4938 62.8227 28.3991L63.0944 28.0305V28.0305C63.1768 27.9192 63.326 27.7878 63.457 27.8329L63.7046 27.9181C63.7445 27.9323 63.7852 27.9385 63.825 27.9385C63.9768 27.9385 64.1188 27.8438 64.1728 27.6938L64.221 27.5579C64.2604 27.4486 64.2449 27.3269 64.1817 27.2305V27.2305C64.1591 27.1961 64.1905 27.152 64.2303 27.1619L64.541 27.2393C64.5706 27.2468 64.6007 27.2499 64.6304 27.2499V27.2499C64.7272 27.2499 64.8362 27.2864 64.8701 27.3772L64.9246 27.5234C64.9645 27.6314 65.0534 27.7146 65.1636 27.7478C65.1986 27.7584 65.2349 27.7637 65.2707 27.7637C65.3473 27.7637 65.4234 27.7398 65.4871 27.6938L65.9424 27.3646C66.0752 27.269 66.1283 27.0973 66.0743 26.9428L66.0535 26.8839C65.9992 26.7297 66.0361 26.5581 66.1489 26.4399L66.2208 26.3645C66.2615 26.3217 66.3188 26.2987 66.3779 26.3013V26.3013C66.4229 26.3032 66.4661 26.32 66.5006 26.349L66.5934 26.4269C66.6607 26.4835 66.7452 26.5132 66.8306 26.5132C66.8554 26.5132 66.8806 26.5105 66.9054 26.5056C66.9568 26.4949 67.0044 26.4738 67.0459 26.4441C67.0675 26.4287 67.1038 26.4428 67.1085 26.4689V26.4689L67.2536 27.196C67.2789 27.3216 67.3674 27.4252 67.4873 27.4694C67.5293 27.4854 67.5731 27.4929 67.616 27.4929C67.6975 27.4929 67.7771 27.4663 67.8426 27.415L68.5405 26.872C68.5564 26.8601 68.571 26.8468 68.5843 26.8322L69.0812 26.2968L69.1281 26.2518C69.1674 26.2142 69.2322 26.2276 69.2534 26.2777V26.2777C69.2666 26.3096 69.2843 26.3388 69.3056 26.3654L69.4998 26.6079C69.5667 26.691 69.6662 26.7415 69.7724 26.7464H69.7875C69.8888 26.7464 69.9862 26.7043 70.0556 26.6309V26.6309C70.3415 26.3285 70.8491 26.4627 70.9522 26.8659V26.8659C70.977 26.9628 71.0398 27.0455 71.1265 27.0955C71.1832 27.1278 71.246 27.1442 71.3093 27.1442C71.3443 27.1442 71.3783 27.1393 71.4128 27.1296L71.8779 26.9937C72.0355 26.9482 72.1439 26.8035 72.1439 26.6393V26.262C72.1439 26.1812 72.1864 26.1064 72.2558 26.065V26.065C72.338 26.016 72.4421 26.0232 72.5168 26.0832L72.5899 26.1419C72.6457 26.187 72.7139 26.214 72.7847 26.222L73.0785 26.2511C73.1373 26.257 73.1934 26.2786 73.2409 26.3137L73.46 26.4756C73.5311 26.5282 73.5301 26.6349 73.458 26.6861V26.6861C73.4222 26.7116 73.376 26.7172 73.3351 26.7012L72.7236 26.4609C72.6798 26.4437 72.6342 26.4357 72.5886 26.4357C72.4762 26.4357 72.3678 26.4866 72.2961 26.5795L72.0341 26.9189C71.9138 27.0752 71.9372 27.2982 72.0873 27.4256L72.8974 28.1132C72.8995 28.115 72.9015 28.117 72.9034 28.1192V28.1192C72.9311 28.1507 72.9175 28.2003 72.8775 28.2131L72.4811 28.3408C72.4107 28.3638 72.3483 28.4067 72.3028 28.4651L71.3642 29.6643C71.3133 29.7289 71.2863 29.809 71.2863 29.8914V30.7047C71.2863 30.7981 71.3217 30.8879 71.3854 30.9565L72.1107 31.7344C72.1443 31.7707 72.185 31.7999 72.2302 31.8194L72.5417 31.9591C72.607 31.9883 72.6623 32.036 72.7008 32.0962V32.0962C72.7867 32.2304 72.7763 32.4045 72.6752 32.5276L72.5091 32.7296C72.4442 32.8084 72.3635 32.8727 72.2722 32.9183L71.8797 33.1142C71.7116 33.1978 71.6337 33.3948 71.6983 33.5709L72.1049 34.6847C72.12 34.7267 72.143 34.7652 72.1718 34.7989L72.5587 35.2489C72.7898 35.5177 72.8053 35.9102 72.5961 36.1963V36.1963C72.5497 36.2596 72.5249 36.3357 72.5249 36.4145V37.4044C72.5249 37.5022 72.5634 37.596 72.6329 37.665V37.665C72.8059 37.838 72.8769 38.0883 72.8206 38.3264L72.7997 38.4147C72.7692 38.5439 72.8103 38.6797 72.9077 38.7704L72.9524 38.8119C73.123 38.9702 73.095 39.2478 72.8962 39.3687V39.3687C72.8059 39.4231 72.7439 39.5134 72.7249 39.617C72.7059 39.7205 72.732 39.8272 72.7961 39.9099L73.2205 40.4582C73.2413 40.4856 73.2661 40.5095 73.294 40.5299L74.1777 41.1792C74.2733 41.2494 74.3433 41.349 74.3769 41.4627V41.4627C74.43 41.642 74.3872 41.8359 74.2636 41.9761L73.6922 42.6243L73.0209 43.227L72.2858 43.8675C71.2041 44.8099 69.8747 45.4221 68.4555 45.6312V45.6312C68.4369 45.6339 68.4192 45.6383 68.4024 45.6432L67.5538 45.9008C66.8724 46.1076 66.1494 46.1359 65.4539 45.9829L65.0961 45.9042C64.96 45.8743 64.8287 45.8258 64.706 45.7599L64.4804 45.639C63.9293 45.3436 63.6883 44.6811 63.9206 44.1006V44.1006C63.9511 44.024 63.9555 43.9386 63.9321 43.8594L63.9074 43.7756C63.7546 43.2561 63.655 42.7224 63.6099 42.1827V42.1827C63.6051 42.1225 63.5851 42.0646 63.5528 42.0141L63.4712 41.8873C63.3967 41.7715 63.3901 41.6245 63.454 41.5025V41.5025C63.513 41.3897 63.6243 41.3136 63.7509 41.2995L64.3078 41.2375C64.4467 41.2225 64.5649 41.1295 64.6131 40.999V40.999C64.8099 40.4673 65.1932 40.0252 65.6916 39.7549L66.2641 39.4444C66.304 39.4228 66.3389 39.3944 66.369 39.3599L67.4743 38.0684C67.6002 37.9213 67.7624 37.8095 67.9448 37.7443V37.7443C68.0984 37.689 68.1979 37.5398 68.1891 37.377L68.136 36.3955C68.1289 36.264 68.0528 36.1468 67.9355 36.087L66.4858 35.3449C66.4336 35.3184 66.3761 35.3042 66.3177 35.3042C66.3115 35.3042 66.3048 35.3042 66.2986 35.3047L64.5821 35.3923C64.5074 35.3963 64.4357 35.4228 64.3768 35.4684L63.3865 36.2282C63.3064 36.2897 63.255 36.3809 63.2444 36.4818V36.4818C63.2162 36.747 63.1234 37.0014 62.9741 37.2225L62.7753 37.5168C62.7041 37.6226 62.6922 37.758 62.7444 37.8739V37.8739C62.8644 38.1427 62.8093 38.4574 62.6051 38.6694L62.3384 38.9462C62.265 39.0223 62.1826 39.0891 62.093 39.1451L60.5698 40.0975C60.5477 40.1117 60.5269 40.1281 60.5079 40.1462L59.7352 40.9012L58.6803 41.8508C58.6201 41.9048 58.5794 41.9769 58.5648 42.0561L58.4724 42.5408C58.3999 42.9215 58.2707 43.2891 58.0891 43.6315V43.6315C58.0603 43.6846 58.0461 43.7443 58.0461 43.8045V45.5546C58.0461 45.6967 58.128 45.8263 58.2563 45.8879L58.9522 46.2217C59.0071 46.2481 59.0593 46.2797 59.108 46.3163L59.6146 46.6963C59.716 46.7723 59.7421 46.9134 59.6746 47.0207V47.0207C59.6627 47.0402 59.6516 47.0605 59.6436 47.0822V47.0822C59.5159 47.4064 59.3076 47.6926 59.0384 47.9137L58.5418 48.3217L57.9143 48.7748C57.8705 48.8067 57.8337 48.8478 57.8076 48.8948L57.5426 49.3718C57.512 49.4262 57.4961 49.4886 57.4961 49.5514V49.757C57.4961 50.3169 57.3804 50.8708 57.1562 51.3839V51.3839C57.1359 51.4308 57.1253 51.4808 57.1253 51.5317V52.1503C57.1253 52.2791 57.1925 52.3986 57.3023 52.4654L57.4065 52.5286C57.4482 52.5539 57.4685 52.6034 57.4566 52.6508V52.6508C57.4442 52.7002 57.3997 52.7349 57.3487 52.7348L56.8934 52.7344C56.8593 52.7344 56.8248 52.7393 56.7921 52.7486L55.9942 52.9769L55.0508 53.223C54.8883 53.2655 54.7746 53.4119 54.7746 53.5801V53.8898C54.7746 53.9566 54.7406 54.0187 54.6844 54.0547V54.0547C54.5756 54.1243 54.4304 54.0715 54.3919 53.9482L54.2591 53.523C54.2516 53.4996 54.2418 53.4765 54.2299 53.4544V53.4544C54.1001 53.2193 54.0321 52.9551 54.0321 52.6866V52.449C54.0321 52.3565 53.9971 52.2671 53.9343 52.199V52.199C53.5761 51.8104 53.2901 51.3609 53.0899 50.8717L52.7811 50.1173C52.7767 50.1067 52.7714 50.0957 52.766 50.0855L52.6652 49.894C52.4173 49.4228 52.2877 48.8983 52.2877 48.3659V48.3659C52.2877 48.2836 52.2598 48.203 52.2089 48.138L51.4031 47.1127C51.3327 47.0224 51.2248 46.972 51.1124 46.972C51.0902 46.972 51.0681 46.9737 51.0451 46.9781L50.515 47.0759C50.3747 47.1021 50.2618 47.206 50.2251 47.3437V47.3437C50.1363 47.6751 49.9215 47.9586 49.6266 48.1339L49.5618 48.1725C49.5427 48.184 49.5242 48.1973 49.5078 48.2119L48.6917 48.9244C48.4518 49.1338 48.1619 49.2776 47.85 49.3418V49.3418C47.5064 49.4125 47.1498 49.3838 46.8219 49.2591L46.3305 49.0721L46.0091 48.9051C45.8911 48.8437 45.8455 48.698 45.9075 48.5803V48.5803C45.9246 48.5478 45.949 48.5197 45.9787 48.4981L46.1849 48.3482C46.3389 48.2358 46.3823 48.0251 46.2853 47.861L46.1013 47.5508V47.5508C46.0278 47.4268 45.9556 47.2306 46.0467 47.119V47.119C46.0708 47.0894 46.1036 47.0677 46.1403 47.0572L46.4473 46.9693C46.6128 46.9224 46.7234 46.7671 46.7146 46.5949L46.6854 46.0422C46.6779 45.8984 46.5876 45.7727 46.4539 45.7188L46.0663 45.5639C46.022 45.5462 45.9756 45.5373 45.9291 45.5373C45.8207 45.5373 45.7145 45.5856 45.6428 45.6736L45.4176 45.95C45.3287 46.0592 45.1779 46.0957 45.0489 46.0392L45.0296 46.0308C45.0248 46.0287 45.0202 46.0261 45.0159 46.0232V46.0232C44.9833 46.0011 44.97 45.9597 44.9836 45.9227L45.0746 45.6754C45.0963 45.6156 45.1025 45.5515 45.0923 45.4891L45.0855 45.4476C45.0581 45.2804 45.1255 45.1117 45.2605 45.0094V45.0094C45.3397 44.9497 45.391 44.8603 45.4038 44.7625C45.4167 44.6642 45.3892 44.5651 45.3277 44.4872L45.2846 44.4323C45.2414 44.3771 45.2237 44.3062 45.2361 44.2372V44.2372C45.2565 44.1226 45.2215 44.0049 45.1423 43.9199L44.894 43.6541C44.8848 43.6442 44.8818 43.63 44.8862 43.6173V43.6173Z" fill="#576673" stroke="#576673" stroke-width="0.5" stroke-linejoin="round"/>
<path d="M41.6723 78.3648C41.6084 78.3648 41.5475 78.3924 41.5055 78.4405L41.3943 78.5677C41.3271 78.6444 41.3167 78.7556 41.3684 78.8436V78.8436C41.4347 78.9565 41.58 78.9942 41.6928 78.9277L41.9845 78.756C42.0382 78.7244 42.0766 78.6721 42.0907 78.6114V78.6114C42.1283 78.4488 41.984 78.3024 41.8209 78.3378L41.7192 78.3598C41.7038 78.3631 41.6881 78.3648 41.6723 78.3648V78.3648Z" fill="#576673" stroke="#576673" stroke-width="0.5" stroke-linejoin="round"/>
<path d="M49.6168 75.2406C49.6637 75.1441 49.6834 75.0367 49.6739 74.9299L49.6008 74.1108C49.5918 74.0104 49.5076 73.9333 49.4068 73.9333V73.9333C49.3492 73.9333 49.2945 73.9588 49.2575 74.003L49.0133 74.2941C48.8609 74.4758 48.7773 74.7055 48.7773 74.9427V75.2834C48.7773 75.4107 48.8398 75.5298 48.9444 75.6022V75.6022C49.1397 75.7373 49.4096 75.6666 49.5135 75.453L49.6168 75.2406ZM49.1814 75.2917C49.1765 75.3018 49.1638 75.3051 49.1546 75.2986V75.2986C49.1497 75.2952 49.1468 75.2896 49.1468 75.2837V74.7357C49.1468 74.7193 49.1526 74.7035 49.1631 74.691V74.691C49.2029 74.6436 49.2801 74.6678 49.2856 74.7295L49.3076 74.9767C49.3104 75.008 49.3046 75.0395 49.2908 75.0677L49.1814 75.2917Z" fill="#576673" stroke="#576673" stroke-width="0.5" stroke-linejoin="round"/>
<path d="M49.2331 76.7085L48.761 76.8483C48.7038 76.8653 48.6436 76.8695 48.5846 76.8607L48.5188 76.8509C48.3063 76.8193 48.1153 76.9839 48.1153 77.1988V77.1988C48.1153 77.2703 48.1371 77.3401 48.1778 77.3989L48.2988 77.5738C48.4218 77.7515 48.4859 77.9633 48.4821 78.1794L48.4693 78.9218C48.4679 79.004 48.492 79.0846 48.5383 79.1526V79.1526C48.6679 79.3424 48.9311 79.3831 49.1118 79.2411L49.2906 79.1007C49.3339 79.0667 49.3874 79.0482 49.4425 79.0482V79.0482C49.5783 79.0482 49.6885 78.938 49.6885 78.8022V78.0931C49.6885 77.9854 49.7067 77.8784 49.7424 77.7768L49.9071 77.3074C49.9399 77.2141 49.9429 77.1128 49.9158 77.0177V77.0177C49.8463 76.7743 49.5991 76.6271 49.352 76.6821L49.2331 76.7085ZM49.3406 77.8082C49.3265 77.8476 49.3198 77.8887 49.3198 77.9308V78.4739C49.3198 78.592 49.2228 78.6859 49.1295 78.7583V78.7583L48.8842 78.9507C48.8714 78.9608 48.8527 78.9579 48.8435 78.9445V78.9445C48.8402 78.9396 48.8384 78.9339 48.8385 78.928L48.857 77.8533C48.8583 77.7759 48.8353 77.7006 48.7915 77.6369L48.571 77.3182C48.5457 77.2817 48.5762 77.2325 48.6202 77.2391V77.2391C48.6379 77.2417 48.6565 77.2431 48.6742 77.2431C48.7096 77.2431 48.7454 77.2382 48.7791 77.228L49.326 77.0661L49.4319 77.0423C49.4885 77.0295 49.5451 77.0631 49.5611 77.1189V77.1189C49.5674 77.1407 49.5667 77.1639 49.5592 77.1852L49.3406 77.8082Z" fill="#576673" stroke="#576673" stroke-width="0.5" stroke-linejoin="round"/>
<path d="M56.3602 80.9442C56.4163 80.8995 56.4306 80.8202 56.3936 80.7587V80.7587C56.3609 80.7043 56.2962 80.6781 56.2349 80.6943L55.5668 80.8702C55.41 80.9115 55.2459 80.9164 55.087 80.8847L54.332 80.7338L53.7707 80.6875C53.6246 80.6755 53.4895 80.7656 53.4445 80.9051V80.9051C53.4099 81.0124 53.4352 81.1301 53.5109 81.2136L53.6461 81.363C53.7294 81.455 53.8369 81.5218 53.9562 81.5559L54.332 81.6631L54.908 81.8329C55.0617 81.8782 55.2007 81.9634 55.3107 82.08L55.4724 82.2511C55.55 82.3332 55.6594 82.3777 55.7723 82.373V82.373C56.0131 82.363 56.1873 82.1392 56.138 81.9033L56.1101 81.77C56.0972 81.7081 56.096 81.6444 56.1065 81.5821L56.1747 81.18C56.1858 81.1144 56.2207 81.0552 56.2728 81.0137L56.3602 80.9442ZM55.7291 81.7525C55.7291 81.7525 55.7291 81.7525 55.7291 81.7525L55.7765 81.9795C55.7792 81.9925 55.7697 82.0047 55.7564 82.0052V82.0052C55.7503 82.0055 55.7443 82.003 55.7401 81.9986L55.4104 81.6498C55.3653 81.602 55.3091 81.568 55.2467 81.5489L54.4329 81.3091L53.9909 81.1827C53.9813 81.18 53.9727 81.1747 53.966 81.1673V81.1673C53.9334 81.1314 53.9616 81.0741 54.0099 81.0781L54.2803 81.1002L55.256 81.2958C55.2799 81.3007 55.3042 81.3029 55.3281 81.3029C55.36 81.3029 55.3914 81.2989 55.4219 81.291V81.291C55.5982 81.2445 55.7637 81.3956 55.7333 81.5754L55.7264 81.6162C55.7193 81.6605 55.7198 81.7069 55.7291 81.7525C55.7291 81.7525 55.7291 81.7525 55.7291 81.7525V81.7525Z" fill="#576673" stroke="#576673" stroke-width="0.5" stroke-linejoin="round"/>
<path d="M47.774 84.3234C47.5057 84.5103 47.5142 84.9115 47.7914 85.0849V85.0849C47.9788 85.2021 48.2239 85.1673 48.3721 85.0033V85.0033C48.575 84.7788 48.5077 84.4214 48.2361 84.2879V84.2879C48.0873 84.2147 47.91 84.2286 47.774 84.3234V84.3234ZM48.0737 84.6191C48.1252 84.6443 48.1383 84.7117 48.0999 84.7543L48.0977 84.7568C48.0695 84.7881 48.0229 84.7946 47.9872 84.7723V84.7723C47.9345 84.7393 47.9327 84.6631 47.9838 84.6276L47.9865 84.6257C48.0122 84.6079 48.0456 84.6053 48.0737 84.6191V84.6191Z" fill="#576673" stroke="#576673" stroke-width="0.5" stroke-linejoin="round"/>
<path d="M67.3087 84.2057H66.9876C66.7867 84.2057 66.5866 84.1811 66.3918 84.1325L66.1508 84.0723C66.116 84.0637 66.0803 84.0593 66.0444 84.0593H65.905C65.8316 84.0593 65.7639 84.0991 65.7282 84.1633V84.1633C65.6645 84.2782 65.7255 84.4225 65.8524 84.4566L66.9854 84.7619C67.1472 84.8055 67.319 84.7934 67.473 84.7274L67.9966 84.5031C68.0733 84.4703 68.1102 84.3827 68.0802 84.3049V84.3049C68.0571 84.2451 67.9997 84.2057 67.9356 84.2057H67.3087Z" fill="#576673" stroke="#576673" stroke-width="0.5" stroke-linejoin="round"/>
</svg>
