<svg width="110" height="110" viewBox="0 0 110 110" fill="none" xmlns="http://www.w3.org/2000/svg">
<rect width="110" height="110" fill="#F2F7FB"/>
<path d="M78.0877 55.3178L78.1668 54.7597C78.215 54.4177 78.0356 54.0822 77.7234 53.9336L76.1917 53.2026C75.9357 53.0023 75.5163 52.8785 74.8623 52.7175C74.4299 52.6121 74.0472 52.5649 73.7122 52.5242C73.1486 52.4551 72.8658 52.4138 72.6437 52.2185C72.0393 51.6907 71.7317 51.3821 71.7267 51.3791C71.5741 51.223 71.4156 51.1311 71.2242 51.1311C71.1701 51.1311 71.1159 51.138 71.0577 51.1519C71.0443 51.149 70.9474 51.1301 70.8535 50.9989C70.6403 50.7027 70.5071 50.5406 70.3952 50.4119C70.2884 50.2842 70.2084 50.1912 70.0702 49.9825C69.6945 49.4184 69.2372 49.0472 69.186 49.0064C69.0906 48.9314 68.9808 48.8782 68.8635 48.8518L66.6399 48.3653L66.4654 48.0855C66.1051 47.0766 65.6647 46.93 65.5176 46.8813C65.4605 46.8619 65.3725 46.8286 65.2706 46.7888C65.2507 46.6899 65.215 46.5905 65.1623 46.4926C65.0231 46.2381 64.788 46.0582 64.5013 45.9867C64.1678 45.9042 63.3482 45.7536 63.2558 45.7357C63.2096 45.7262 63.1604 45.7227 63.1131 45.7227C63.0297 45.7227 62.9452 45.7372 62.8632 45.764L62.636 45.8395L62.1679 45.6835C62.0888 45.6571 62.0049 45.6427 61.9194 45.6427H61.1684L61.1614 45.6278C61.0332 45.4141 60.8101 45.274 60.5616 45.2486L59.8832 45.18C59.7371 45.1243 59.5084 45.0573 59.2669 45.0573C58.9056 45.0573 58.592 45.2014 58.3857 45.4603C58.3743 45.4747 58.3643 45.4896 58.3524 45.5046L58.2813 45.5041C57.7928 45.5041 57.509 45.7779 57.3167 46.017L57.0244 46.3847L56.6969 46.7113L56.3356 46.4389C56.1989 46.3365 56.0319 46.2799 55.8595 46.2799H55.0876C54.8739 46.2799 54.6786 46.3659 54.537 46.5055C54.4217 46.4245 54.2885 46.3758 54.1503 46.3639L54.124 46.2978C54.0176 46.0453 54.0176 46.0453 54.0176 45.6392C54.0176 45.265 54.0176 45.2073 53.9719 44.9568C53.9604 44.9007 53.9485 44.8251 53.9291 44.7138L53.7666 43.7526C53.7025 43.3719 53.3735 43.0936 52.9873 43.0936H52.0808C52.0286 42.947 51.9859 42.8073 51.9531 42.7025L52.0142 42.1061L52.2379 41.2055C52.2965 40.9754 52.2463 40.7319 52.1067 40.542C51.965 40.3512 51.7438 40.2344 51.5083 40.2234C51.5083 40.2234 51.4119 40.218 51.2603 40.218C49.397 40.218 49.0059 40.9103 49.0059 41.4913C49.0059 41.5768 48.9586 41.6851 48.902 41.7786L48.5586 41.8168H47.8946L47.4865 41.5306L47.3349 41.1787C47.3106 41.1275 47.2843 41.0773 47.251 41.0326L46.9786 40.6519L46.9209 39.9442V39.1524L47.0537 38.1555C47.2346 37.8568 47.5134 37.5789 47.6451 37.5789H49.9587C50.1152 37.5789 50.2688 37.5327 50.396 37.4457L50.8458 37.1465L52.1668 37.3985L52.6897 37.5476C52.7175 37.5556 52.7404 37.5611 52.7672 37.566C52.8005 37.658 52.8244 37.7355 52.8358 37.7817V37.983C52.8358 38.0978 52.8651 38.2076 52.9128 38.31C52.9228 38.3329 52.9397 38.3508 52.9526 38.3712C52.9874 38.4308 53.0172 38.4939 53.0679 38.5426C53.0873 38.561 53.1077 38.5799 53.1266 38.5973C53.135 38.8334 53.2548 39.0356 53.3452 39.1857L53.5853 39.5853C53.7314 39.8269 53.9908 39.9685 54.2642 39.9685C54.3134 39.9685 54.3646 39.964 54.4138 39.9536L55.2348 39.7941C55.2612 39.8741 55.2935 39.9615 55.3546 40.0565C55.3889 40.1484 55.4515 40.296 55.5981 40.4461L55.6781 40.5271C55.8327 40.6817 56.0365 40.7592 56.2388 40.7592C56.4376 40.7592 56.6408 40.6832 56.7954 40.5306L56.9122 40.4143C57.0633 40.2662 57.1468 40.0644 57.1468 39.8527L57.1463 39.719C57.1463 39.4934 57.0687 39.2906 56.9281 39.139C56.9251 39.1291 56.9182 39.1191 56.9137 39.1097C56.8481 38.8309 56.6408 38.5794 56.3372 38.4487C56.2353 38.4054 56.1299 38.3841 56.0246 38.3841C55.947 38.3841 55.8685 38.4054 55.794 38.4288L55.7393 38.0625C55.7413 38.0396 55.7398 38.0198 55.7413 37.9979C55.7721 37.6053 55.6891 37.2951 55.4878 37.0809C55.455 37.0362 55.3914 36.9358 55.3566 36.8677C55.3387 36.7639 55.298 36.6018 55.2174 36.3414C55.1991 36.2768 55.1692 36.2152 55.134 36.157C55.1409 36.0517 55.1295 35.9552 55.1146 35.8712C55.129 35.8514 55.1444 35.833 55.1573 35.8166C55.3129 35.7246 55.5976 35.5646 55.5976 35.5646C55.7308 35.4895 55.8387 35.3777 55.9083 35.243L56.0544 34.9672C56.202 34.9424 56.4485 34.8494 56.9549 34.5219C57.0434 34.4642 57.1209 34.3902 57.1771 34.3037C57.4301 34.1149 57.609 33.849 57.6815 33.7272C57.7422 33.6238 57.7804 33.509 57.7914 33.3893L57.8192 33.0607V33.0573C57.8326 32.9246 57.8098 32.7909 57.7556 32.6691C57.7551 32.6626 57.7248 32.6 57.7064 32.5409V32.2834C57.7556 32.2486 57.8103 32.2079 57.8669 32.1617C58.3679 32.106 58.4991 31.6637 58.5965 31.3352L58.7531 30.8178L59.0915 30.2C59.184 30.1608 59.2685 30.126 59.3261 30.1046H59.6049C59.9643 30.1046 60.2769 29.8645 60.3693 29.5176C60.3693 29.5176 60.499 29.0311 60.5308 28.8686C60.5443 28.7995 60.5542 28.6827 60.5602 28.5515V28.547V28.5425C60.6208 28.4968 60.6869 28.4441 60.7644 28.383C60.8281 28.3333 60.8822 28.2881 60.9155 28.2647C60.9613 28.2324 61.0174 28.1906 61.0701 28.1464C61.085 28.1355 61.0964 28.1255 61.1098 28.1156C61.2381 28.0565 61.332 27.9774 61.3991 27.9123C61.5353 27.8726 61.6854 27.8283 61.6854 27.8283C61.9041 27.7627 62.0835 27.6067 62.1784 27.3994C62.2231 27.2955 62.249 27.1827 62.249 27.0709C62.249 26.9596 62.2256 26.8473 62.1799 26.7424L61.9806 26.2986L61.9811 25.5769V25.572C61.9811 25.3349 61.8742 25.1102 61.6903 24.9602L61.3613 24.6918C61.2187 24.575 61.0398 24.5129 60.8603 24.5129C60.8126 24.5129 60.7649 24.5173 60.7162 24.5263L60.6034 24.5462L60.5676 24.5327C60.4762 24.4984 60.3837 24.483 60.2913 24.483C60.009 24.483 59.7391 24.6346 59.596 24.896C59.4747 25.1192 59.4056 25.2792 59.3694 25.4005C59.2416 25.565 59.0443 25.8244 59.0508 26.1614C59.0493 26.1634 59.0493 26.1659 59.0488 26.1684L58.9748 26.2131L57.5275 26.1867H57.5126C57.3774 26.1867 57.2447 26.221 57.1249 26.2881C56.4331 26.6778 56.0628 26.9452 55.8909 27.216L55.6061 27.2046C55.5932 27.2041 55.5832 27.2026 55.5703 27.2026C55.3834 27.2026 55.202 27.2702 55.0609 27.3915L54.8492 27.5704C54.7806 27.6266 54.7264 27.6932 54.6832 27.7647C54.713 27.558 54.7175 27.4049 54.7175 27.4004V27.3974V27.3954C54.7175 27.3343 54.7175 27.1733 54.5728 26.6251C54.5142 26.4064 54.3661 26.2245 54.1653 26.1221C54.126 26.0282 54.0848 25.9417 54.0485 25.8657C53.7786 25.3344 53.4904 25.0601 53.143 25.0014C53.0789 24.9756 52.9561 24.9204 52.8642 24.8747L51.1207 23.8702C50.9994 23.7992 50.8633 23.7649 50.7276 23.7649C50.581 23.7649 50.4368 23.8056 50.3081 23.8851L50.3036 23.8886C50.1421 23.8717 49.9667 23.8553 49.8613 23.8553C49.7892 23.8504 49.416 23.7947 49.1233 23.7465C49.1088 23.7445 49.0984 23.742 49.0835 23.741C48.9433 23.66 48.7798 23.6128 48.6098 23.6128C48.5656 23.6128 48.4881 23.6193 48.4453 23.6272C48.4105 23.6322 48.3206 23.6371 48.2073 23.6406C48.2003 23.6327 48.1924 23.6247 48.1839 23.6163L47.8176 23.2396C47.6675 23.0855 47.4628 23 47.2496 23H33.777C33.4614 23 33.1756 23.1879 33.0504 23.4781L32.9286 23.7629C32.9058 23.7614 32.8839 23.7609 32.8625 23.7609H32.8611C32.5981 23.7609 32.3208 23.906 32.1737 24.1252C32.0345 24.3285 32.0107 24.5437 32.0341 24.7335C32.0539 24.9269 32.1225 25.0953 32.1653 25.2047C32.4113 25.818 32.4972 26.5993 32.5067 26.9338C32.4803 27.0337 32.3949 27.2543 32.3352 27.4059C32.1434 27.9009 31.9814 28.3249 32.0017 28.6986C32.0087 28.8238 32.038 28.9436 32.0907 29.0584C32.0877 29.1419 32.0644 29.282 32.0345 29.3884C32.0047 29.4888 31.9963 29.5942 32.0077 29.6975C32.0191 29.8024 32.0504 29.9033 32.1011 29.9977L33.5703 32.6552C33.621 32.9236 33.7636 33.3505 34.1731 33.761C34.1731 33.7615 34.1746 33.763 34.1766 33.7645C34.272 33.9767 34.4564 34.103 34.694 34.259L35.0737 34.512L35.7178 35.2988C35.8276 35.4578 36.097 36.2505 36.2784 36.9816C36.3227 37.1635 36.434 37.3236 36.5876 37.4339L36.9568 37.6973L36.9747 37.7416V38.2246C36.9747 38.6615 37.3281 39.0154 37.7639 39.0154H37.8544C37.922 39.1694 38.0398 39.3225 38.1685 39.4979C38.251 39.6043 38.2888 39.6659 38.3047 39.6953C38.3946 40.0516 38.6367 40.1967 38.8703 40.3374C38.9215 40.3682 38.9513 40.3871 38.9707 40.4C38.9408 40.3801 38.9135 40.3558 38.8872 40.3279C39.0223 40.4557 39.1908 40.5397 39.3215 40.6058C39.4547 40.6714 39.5551 40.739 39.655 40.8041C39.8583 40.9373 40.1098 41.1033 40.4607 41.1033C40.576 41.1033 40.6913 41.0854 40.8021 41.0476C41.1271 40.9407 41.3498 40.6485 41.3801 40.2966C41.398 40.32 41.4149 40.3414 41.4308 40.3637C41.4328 40.3672 41.4343 40.3707 41.4373 40.3737C41.4388 40.3851 41.4407 40.395 41.4422 40.408C41.4373 40.4164 41.4328 40.4244 41.4293 40.4323C41.3205 40.6361 41.065 41.1127 41.4626 41.8066C41.5481 41.9562 41.5958 42.068 41.643 42.1763C41.7633 42.4506 41.8975 42.7608 42.3806 43.0505C42.5033 43.1231 42.6022 43.2036 42.7131 43.2941C42.894 43.4387 43.1206 43.6206 43.4695 43.7965C43.5679 43.8447 43.6584 43.8949 43.7488 43.9431C44.1106 44.1385 44.5192 44.3591 45.2905 44.5694C45.4296 44.6086 45.5092 44.635 45.5504 44.6494C45.7825 44.8368 46.0151 44.8368 46.3739 44.8368C46.615 44.8368 46.9246 44.8035 47.2516 44.7692C47.5707 44.7349 47.9335 44.6956 48.192 44.6951C48.2352 44.7965 48.2859 44.9138 48.3396 45.0435C48.3495 45.2423 48.436 45.4739 48.6825 45.7209C48.8351 45.8735 49.0388 45.9525 49.2426 45.9525C49.2824 45.9525 49.3216 45.9495 49.3624 45.9431C49.5557 46.0256 49.7505 46.0678 49.9409 46.0678C50.0398 46.0678 50.1332 46.0559 50.2167 46.038C50.3683 46.1831 50.5646 46.2497 50.747 46.3103C50.7485 46.3108 50.75 46.3118 50.7515 46.3118C50.8449 46.4863 51.0045 46.6622 51.2082 46.8869C51.3792 47.0787 51.5005 47.2059 51.5909 47.2959C51.4871 47.4803 51.4547 47.6786 51.5005 47.8893C51.6232 48.4778 52.238 48.6587 52.6873 48.7919C54.0952 49.2049 54.8656 49.2918 54.8974 49.2963C54.9273 49.2998 54.9551 49.3013 54.9834 49.3013C55.2533 49.3013 55.5048 49.1651 55.6509 48.936L55.6678 48.9077L55.8239 49.0115C55.8437 49.107 55.8547 49.1994 55.8487 49.2536C55.6862 49.4593 55.221 50.0945 55.0982 50.6536C55.0133 50.7396 54.8582 50.8688 54.7185 50.9742C53.9974 51.1874 53.2479 51.7023 53.2872 52.5348C53.313 53.0378 53.2892 53.4349 53.2892 53.4368C53.2857 53.4716 53.2857 53.5039 53.2892 53.5372C53.2892 53.572 53.2583 53.6769 53.2395 53.7475C53.1589 54.0322 52.9666 54.7022 53.5431 55.2325C53.6187 55.3021 53.6599 55.3727 53.7156 55.4735C53.8105 55.6415 53.9621 55.9119 54.2847 56.065C54.3358 56.139 54.4044 56.228 54.5048 56.3264C54.5446 56.3706 54.641 56.5396 54.7036 56.649C54.8463 56.8999 54.9914 57.1569 55.1971 57.3462C55.217 57.4158 55.2414 57.5232 55.2598 57.5982C55.3234 57.878 55.3959 58.1912 55.561 58.458V58.5982C55.5595 58.9138 55.551 59.7532 56.3954 60.0275C56.4173 60.0404 56.46 60.0916 56.4923 60.1309C56.6553 60.3282 56.9043 60.6289 57.4525 60.8739C58.12 61.1701 58.2443 61.2402 58.5251 61.4226C58.6468 61.5786 58.8829 62.1 59.0564 62.5945V63.8191C59.0564 63.8917 59.0633 64.0164 59.0713 64.167C59.0807 64.3613 59.1036 64.8111 59.0827 64.9612C59.0002 65.2549 59.0643 65.5392 59.1125 65.7668C59.1269 65.824 59.1453 65.91 59.1533 65.9686C58.9097 66.3776 58.3446 67.3671 58.3168 67.4114C58.2448 67.5396 58.208 67.6843 58.2134 67.8319C58.2279 68.2479 58.2318 68.7737 58.2199 68.8965C58.1951 69.0789 58.2229 69.2791 58.2631 69.5565C58.2845 69.7095 58.3258 70.0003 58.3278 70.1658C57.9923 70.5321 57.2234 71.4391 57.2234 72.0305C57.2234 72.9962 57.2612 73.3808 57.3069 73.5851C57.2761 73.7516 57.1588 74.1373 57.0356 74.4594C57.0023 74.5483 56.9829 74.6462 56.9829 74.7417V75.2983C56.9829 75.5085 57.0669 75.7103 57.215 75.8574L57.3223 75.9658L57.1658 76.8415C57.0559 77.1476 56.9819 77.4871 56.9436 77.6998L56.6499 78.1073C56.4804 78.3484 56.4565 78.6664 56.5922 78.9284C56.635 79.0119 56.6906 79.0844 56.7552 79.1441L56.4531 79.407C56.4387 79.4214 56.4252 79.4348 56.4108 79.4492C56.0391 79.8274 56.1588 80.4372 56.2006 80.6375L56.21 80.6932C56.2269 80.7966 56.2528 80.9149 56.2841 81.0525C56.3532 81.3726 56.4123 81.5838 56.465 81.7473C56.3944 81.8835 56.3681 82.0321 56.379 82.1718C56.4113 82.6027 56.6862 82.7836 56.9625 82.8666C56.9595 82.878 56.9575 82.8859 56.956 82.8929C56.8457 83.4928 57.3323 83.7393 57.6563 83.9003C57.7035 83.9222 57.7353 83.9411 57.7587 83.9545C57.8476 84.0797 57.9525 84.1588 58.0628 84.2104C58.03 84.3054 58.0117 84.4107 58.0117 84.5226C58.0117 84.7169 58.0842 85.1945 58.7099 85.444C58.8968 85.519 59.0275 85.5638 59.1369 85.5901C59.1548 85.6015 59.1761 85.611 59.198 85.6249C59.2735 85.6721 59.3322 85.7268 59.4127 85.8058C59.605 85.9937 59.8953 86.276 60.4375 86.3649C60.6254 86.3972 60.7665 86.4106 60.8948 86.4106C61.0001 86.4106 61.0776 86.4007 61.1661 86.3873C61.2133 86.3828 61.265 86.3744 61.3614 86.3744C62.0965 86.3744 62.9484 85.8302 63.0965 84.9157C63.1477 84.6194 63.0224 84.3188 62.7779 84.1448L62.2879 83.7929C62.266 83.7681 62.2421 83.7388 62.2257 83.7139C62.2059 83.5315 62.1095 83.1324 61.6954 82.1006C61.691 82.0877 61.6835 82.0758 61.6785 82.0614L61.3257 81.3049L61.5871 80.968C61.6532 80.883 61.6999 80.7871 61.7248 80.6842C61.768 80.6727 61.8147 80.6623 61.8515 80.6519C62.1949 80.5659 63.1089 80.3393 63.1089 79.4457C63.1089 78.6022 62.8018 78.1947 62.4767 78.0028C62.676 77.8801 62.8003 77.6674 62.925 77.4462C63.1323 77.0859 63.2292 76.7002 63.3067 76.3891C63.3201 76.3305 63.3375 76.2609 63.3529 76.2012C63.6983 75.9075 63.7292 75.3867 63.6804 74.9458L63.7873 74.8916C64.2192 74.6759 64.6396 74.1968 64.7584 74.0552C64.8772 73.9121 64.9438 73.7326 64.9438 73.5473V73.4931C65.6327 73.3693 66.2962 73.2411 66.4831 73.176C66.823 73.0647 67.1555 72.7307 67.4686 72.188C67.5372 72.0682 67.5725 71.932 67.5725 71.7924V70.8769C67.6873 70.8436 68.0426 70.7293 68.4631 70.4773C68.8344 70.2556 69.0297 69.9679 69.1718 69.7561C69.2324 69.6727 69.2906 69.5837 69.3309 69.5559C69.6614 69.3064 70.1375 68.9296 70.4451 68.5191C70.6867 68.1966 71.3278 67.3144 71.3278 67.3144C71.4809 67.1042 71.5211 66.8298 71.4332 66.5868C71.3626 66.385 71.3049 66.137 71.2771 65.9546C71.4302 65.892 71.5877 65.8204 71.7517 65.7459C72.0718 65.6012 72.4023 65.4506 72.6607 65.3781C72.8118 65.3339 72.8814 65.3224 72.95 65.3125C73.2174 65.2747 73.3734 65.222 73.7884 64.9869C73.9032 64.9199 74.0041 64.8642 74.0956 64.816C74.4773 64.6072 74.7775 64.4447 75.0682 64.0551C75.272 63.7822 75.3868 63.3285 75.7849 61.1978C75.8917 60.6243 76.0368 59.8504 76.1005 59.6268C76.2207 59.4046 76.2486 59.1685 76.2679 58.9946C76.2734 58.9538 76.2779 58.9011 76.2848 58.8604C76.6551 58.6094 77.0865 58.1641 77.3032 57.932C77.663 57.7233 78.0119 57.265 78.0914 56.4822C78.1396 56.0036 78.1133 55.7809 78.083 55.5767C78.0715 55.4932 78.0661 55.4668 78.0884 55.3177L78.0877 55.3178ZM42.7835 36.1656C42.7428 36.106 42.6633 35.7874 42.6633 35.7874C42.6633 35.7874 42.5634 35.6279 42.5037 35.5672C42.4446 35.5061 42.1255 35.4489 41.9257 35.4281C41.8964 35.4251 41.8651 35.4236 41.8353 35.4236C41.6876 35.4236 41.5331 35.4514 41.4272 35.4514C41.4059 35.4514 41.3845 35.4509 41.3686 35.4484C41.3606 35.4469 41.3527 35.445 41.3452 35.445C41.2413 35.445 41.1693 35.5588 41.1146 35.5588C41.1131 35.5588 41.1096 35.5588 41.1081 35.5583C41.1017 35.5583 41.0888 35.5578 41.0748 35.5578C40.9914 35.5578 40.7936 35.5672 40.6266 35.5672C40.5098 35.5672 40.4064 35.5622 40.3721 35.5473C40.3522 35.5389 40.3313 35.5359 40.311 35.5359C40.2568 35.5359 40.2041 35.5588 40.1435 35.5588C40.1221 35.5588 40.0992 35.5558 40.0714 35.5468C40.0322 35.5339 39.9596 35.5304 39.8711 35.5304C39.6942 35.5304 39.4551 35.5468 39.2946 35.5468C39.0546 35.5468 38.6952 35.3281 38.4388 35.2283C38.1788 35.1279 38.0795 35.0687 38.0795 35.0687C38.0795 35.0687 37.2023 34.9296 37.082 34.8799C37.0626 34.8699 37.0442 34.8664 37.0278 34.8664C36.9518 34.8664 36.9011 34.9489 36.7038 34.9489C36.6088 34.9489 36.5159 34.9455 36.419 34.934C36.3882 34.8754 36.3564 34.8272 36.3265 34.7889L35.6064 33.9127L35.1288 33.5941C34.9513 33.4763 34.9071 33.445 34.8992 33.4326C34.9011 33.4291 34.9056 33.4257 34.9046 33.4147C34.9091 33.3983 34.8882 33.3526 34.7287 33.1945C34.3326 32.7965 34.3326 32.3979 34.3326 32.3979L32.7909 29.6077C32.7939 29.5943 32.8948 29.2464 32.8794 28.972C32.8729 28.8771 32.8575 28.7911 32.8148 28.73C32.7964 28.7007 32.7879 28.6559 32.7899 28.6003C32.8083 28.2056 33.2959 27.2589 33.2959 26.9806V26.9756C33.2959 26.6571 33.2173 25.7008 32.8968 24.9032C32.8446 24.7715 32.8192 24.6835 32.8163 24.6283C32.8148 24.5761 32.8312 24.5533 32.8595 24.5533C32.9763 24.5533 33.2954 24.9081 33.2954 24.9081L33.775 23.7919H47.2475L47.6168 24.1711L47.827 24.4405C47.827 24.4405 48.3951 24.4405 48.573 24.4106C48.5864 24.4087 48.5974 24.4077 48.6088 24.4077C48.7569 24.4077 48.7842 24.5896 48.7842 24.5896L48.993 24.5304C48.993 24.5304 49.7096 24.6502 49.8607 24.6502C50.0083 24.6502 50.4869 24.7093 50.4869 24.7093L50.727 24.5602L52.4903 25.5761C52.4903 25.5761 52.9098 25.7853 52.9992 25.7853C53.0912 25.7853 53.2691 26.0845 53.3292 26.2043C53.3884 26.3231 53.449 26.4429 53.4783 26.5636C53.5092 26.6824 53.8084 26.8315 53.8084 26.8315C53.8084 26.8315 53.9266 27.2768 53.9266 27.3986C53.9266 27.5224 53.867 27.9935 53.7477 28.1431C53.6871 28.2187 53.6737 28.2947 53.6737 28.3513C53.6737 28.404 53.6866 28.4388 53.6881 28.4433L53.4793 28.6814V28.6863L53.538 29.1943L55.0887 28.7162L55.3645 28.3568V28.1774L55.5733 27.9985L56.2586 28.0283C56.2586 28.0283 56.5593 27.8191 56.5593 27.67C56.5593 27.5199 57.516 26.9816 57.516 26.9816L59.1909 27.0109L59.4886 26.8315L59.6993 26.6824C59.6993 26.6824 59.8772 26.2933 59.8489 26.175C59.8191 26.0547 60.1163 25.7853 60.1163 25.6954C60.1163 25.6054 60.2952 25.2769 60.2952 25.2769L60.5348 25.3669L60.8638 25.3072L61.1943 25.5756V26.4727L61.4602 27.0661C61.4547 27.0681 61.164 27.1566 61.0432 27.1849C61.0338 27.1879 61.0298 27.1993 61.0198 27.2033C60.9801 27.2182 60.9458 27.2445 60.918 27.2753C60.8703 27.325 60.8265 27.3772 60.7738 27.3941C60.6849 27.424 60.5656 27.5437 60.4776 27.6034C60.3852 27.663 59.999 27.9915 59.8778 28.0532C59.7595 28.1118 59.7873 28.5606 59.7595 28.7092C59.7287 28.8593 59.6084 29.3086 59.6084 29.3086H59.2187C59.1303 29.3086 58.5334 29.5769 58.5334 29.5769L58.0245 30.5038L57.844 31.1017C57.7854 31.2961 57.7665 31.3627 57.7615 31.3681C57.7635 31.3532 57.7829 31.2648 57.7799 31.2165C57.7799 31.1957 57.7769 31.1818 57.77 31.1818C57.7655 31.1818 57.7591 31.1847 57.7536 31.1912C57.6651 31.2826 57.2461 31.7006 57.0961 31.7006C56.9479 31.7006 57.0961 31.4019 56.9191 31.2821V31.2866V31.6698V31.6763V32.3288V32.3333V32.627V32.6335C56.9191 32.7224 57.0344 32.9888 57.0359 32.9913L57.0066 33.3154C57.0066 33.3154 56.8287 33.6146 56.6473 33.705C56.5508 33.7522 56.526 33.7905 56.5205 33.8168C56.5141 33.8387 56.522 33.8511 56.526 33.8551C56.5126 33.8631 56.0181 34.1821 55.9013 34.1821C55.78 34.1821 55.5434 34.2413 55.5434 34.2413L55.2129 34.8695C55.2129 34.8695 54.7353 35.1389 54.6449 35.1995C54.5549 35.2586 54.5549 35.3486 54.3457 35.528C54.291 35.5737 54.2706 35.6229 54.2622 35.6711C54.2403 35.8158 54.3675 35.9738 54.3457 36.1314C54.3173 36.3401 54.4669 36.5796 54.4669 36.5796C54.4669 36.5796 54.5847 36.9673 54.5847 37.0578C54.5847 37.1482 54.8248 37.5359 54.9147 37.6263C54.959 37.6711 54.9669 37.7819 54.9629 37.8798C54.958 37.9802 54.9445 38.0692 54.9445 38.0692V38.0741L55.0877 39.0159L54.2676 39.175L54.0266 38.7774C53.9446 38.6392 53.9212 38.5995 53.9252 38.585C53.9416 38.5706 54.0465 38.6308 54.0783 38.3828V38.3793V38.3778C54.129 37.9797 53.6285 37.9797 53.6285 37.9797V37.7446V37.7401C53.6285 37.5006 53.3094 36.7834 53.3094 36.7834H52.9103L52.3522 36.6229L50.6778 36.3043L49.9602 36.7829H47.6466C46.8514 36.7829 46.2913 37.8987 46.2913 37.8987L46.183 38.7153C46.0269 38.6591 45.8311 38.6328 45.6929 38.4906C45.515 38.3037 45.6353 38.2774 45.4141 38.1581C45.3192 38.1069 45.2799 38.0955 45.264 38.0955C45.2526 38.0955 45.2511 38.1 45.2496 38.1C45.2481 38.1 45.2466 38.0955 45.2352 38.0791C45.1939 38.0195 45.1542 37.7605 45.0747 37.5816C44.9956 37.4012 44.9763 37.2814 44.8351 37.1428C44.695 37.0026 44.695 36.7233 44.5359 36.5841C44.3754 36.446 44.4161 36.3645 44.2979 36.3446C44.2894 36.3431 44.2829 36.3431 44.277 36.3431C44.1701 36.3431 44.1095 36.4912 43.9579 36.604C43.8014 36.7228 43.6587 36.8436 43.4614 36.8635C43.36 36.8734 43.3163 36.8784 43.281 36.8784C43.2447 36.8784 43.2214 36.8729 43.1607 36.8635C43.0405 36.8436 43.0405 36.8436 42.9222 36.7631C42.8009 36.684 42.8431 36.5836 42.783 36.4838C42.7244 36.3853 42.8223 36.2253 42.783 36.1657L42.7835 36.1656ZM56.0271 39.1744C56.0271 39.1744 56.1632 39.2335 56.1404 39.312C56.1175 39.3881 56.2209 39.4472 56.2592 39.573C56.2989 39.6992 56.3566 39.6222 56.3566 39.7181V39.8548L56.2398 39.9701L56.1637 39.893C56.0877 39.816 56.1066 39.7569 56.0276 39.6411C55.95 39.5243 55.9883 39.4264 55.9371 39.3682C55.8824 39.312 56.0271 39.1744 56.0271 39.1744V39.1744ZM40.5506 40.2961C40.5183 40.308 40.4885 40.312 40.4587 40.312C40.2643 40.312 40.0894 40.1053 39.6734 39.898C39.1973 39.6585 39.6734 39.898 39.2743 39.6585C38.8767 39.4199 39.2743 39.6585 38.7982 39.0198C38.6257 38.7912 38.576 38.7261 38.578 38.7261C38.578 38.7261 38.665 38.8374 38.6705 38.8374C38.6734 38.8374 38.6635 38.8225 38.6362 38.7813C38.4756 38.5417 38.4756 38.2226 38.4756 38.2226H37.759V37.585L37.5979 37.1854L37.0408 36.7873C37.0408 36.7873 36.9076 36.2595 36.7337 35.7352C36.8634 35.7317 36.9772 35.7158 37.0662 35.6909C37.2163 35.7232 37.4518 35.768 37.83 35.8286C37.8534 35.8405 37.8887 35.8549 37.9185 35.8699L38.3966 37.0269C38.3966 37.0269 39.1148 38.2226 39.5124 38.3813C39.9115 38.5428 40.7907 40.2167 40.5506 40.2962L40.5506 40.2961ZM77.3065 56.4024C77.2275 57.1995 76.8279 57.2801 76.8279 57.2801C76.8279 57.2801 76.1888 57.9952 75.7922 58.2363C75.3941 58.4773 75.5526 59.0335 75.3926 59.2745C75.2321 59.5111 74.6759 63.2589 74.4364 63.5775C74.1968 63.8975 73.9578 63.9771 73.3997 64.2971C72.8395 64.6142 72.9991 64.4547 72.4429 64.6142C71.8848 64.7747 71.1681 65.1723 70.6896 65.3324C70.2119 65.4914 70.6896 66.8453 70.6896 66.8453C70.6896 66.8453 70.0509 67.723 69.8134 68.042C69.5733 68.3621 69.1742 68.6807 68.8566 68.9197C68.5366 69.1578 68.4571 69.5559 68.0595 69.7959C67.6589 70.0355 67.3428 70.1175 67.3428 70.1175L65.987 69.956L66.7837 70.7517V71.7884C66.7837 71.7884 66.4631 72.3475 66.2236 72.4246C65.987 72.5081 64.1531 72.8266 64.1531 72.8266V73.5433C64.1531 73.5433 63.7536 74.0219 63.435 74.181C63.1144 74.34 62.7978 74.501 62.7978 74.501C62.7978 74.501 63.0379 75.5363 62.7978 75.6153C62.5583 75.6973 62.5583 76.493 62.2387 77.0501C62.1184 77.2603 62.0891 77.3115 62.0772 77.3115C62.0653 77.3115 62.0707 77.2633 62.0275 77.2633C61.9982 77.2633 61.9425 77.2867 61.8396 77.3687C61.693 77.4884 61.6542 77.5187 61.6488 77.5187C61.6423 77.5187 61.6751 77.4795 61.6438 77.4795C61.6279 77.4795 61.5941 77.4939 61.5235 77.5292C61.202 77.6897 61.362 77.8448 61.202 78.1653C61.0424 78.4859 61.7601 78.5649 61.9992 78.644C62.2387 78.723 62.3162 79.0435 62.3162 79.4411C62.3162 79.8387 61.5996 79.8392 61.2825 79.9993C60.9609 80.1598 60.9609 80.4779 60.9609 80.4779L60.4043 81.196L60.9609 82.3918C60.9609 82.3918 61.441 83.5886 61.441 83.8266C61.441 84.0646 61.7596 84.3857 61.7596 84.3857L62.3162 84.7838C62.2387 85.2639 61.7596 85.5795 61.3615 85.5795C61.0956 85.5795 61.0415 85.6158 60.8948 85.6158C60.8198 85.6158 60.7244 85.6058 60.5643 85.5795C60.0847 85.5005 60.0057 85.1814 59.6066 84.9433C59.209 84.7038 59.6066 84.9433 59.0023 84.7038C58.3974 84.4618 59.369 84.0642 59.369 84.0642C59.369 84.0642 59.128 83.5075 58.6489 83.5075C58.1723 83.5075 58.6489 83.5075 58.0117 83.1889C57.3731 82.8689 58.0117 83.1889 58.1723 82.7909C58.2314 82.6393 58.2473 82.603 58.2418 82.603C58.2369 82.603 58.214 82.6338 58.1976 82.6338C58.1847 82.6338 58.1728 82.6159 58.1728 82.5518C58.1728 82.3107 58.0937 82.2317 58.0937 82.2317L57.4541 82.1542C56.8179 82.0737 57.4541 82.1542 57.3756 81.9132C57.2951 81.6736 57.2165 81.5946 57.057 80.8749C56.9959 80.609 56.982 80.5394 56.983 80.5394C56.983 80.5394 56.9979 80.609 57.0008 80.609C57.0023 80.609 56.9954 80.5782 56.9765 80.4778C56.896 80.0797 56.9765 79.9992 56.9765 79.9992L57.6161 79.4411L57.7737 78.5649H57.2941L57.6932 78.0068C57.6932 78.0068 57.7737 77.4476 57.9317 77.049L58.1733 75.6967L57.7737 75.2946V74.738C57.7737 74.738 58.1733 73.7027 58.0937 73.4617C58.0132 73.2237 58.0132 72.266 58.0132 72.0269C58.0132 71.7874 58.7324 70.8302 59.0037 70.5922C59.2776 70.3526 58.9709 69.2383 59.0037 68.9963C59.037 68.7582 59.0037 67.802 59.0037 67.802C59.0037 67.802 59.6891 66.6052 59.8829 66.2882C60.0768 65.9666 59.7676 65.4105 59.8482 65.171C59.9272 64.9314 59.8482 64.0537 59.8482 63.8157V62.4604C59.8482 62.4604 59.37 61.0256 59.0033 60.786C58.639 60.5465 58.4919 60.466 57.7737 60.1484C57.056 59.8268 57.1345 59.4302 56.6385 59.2727C56.145 59.1112 56.4989 58.395 56.2573 58.0729C56.0213 57.7558 56.0213 56.9587 55.7797 56.7996C55.5431 56.6391 55.3031 56.0024 55.0635 55.7629C54.824 55.5233 54.902 55.4443 54.663 55.3648C54.4244 55.2848 54.4244 54.9642 54.078 54.6451C53.7301 54.3265 54.1048 53.927 54.078 53.4846C54.078 53.4846 54.1048 53.0513 54.078 52.4936C54.0497 51.935 55.0635 51.6964 55.0635 51.6964C55.0635 51.6964 55.8592 51.1383 55.8592 50.8992C55.8592 50.6597 56.1793 50.1021 56.4984 49.703C56.8169 49.3039 56.4984 48.5052 56.4984 48.5052L56.0208 48.1876L55.5427 47.6295L54.982 48.5052C54.982 48.5052 54.2659 48.4277 52.9101 48.0286C51.5533 47.629 52.8296 47.629 52.512 47.1514C52.1919 46.6728 52.512 47.1514 51.7923 46.3532C51.5001 46.0282 51.4469 45.9685 51.4638 45.9685C51.4738 45.9685 51.5071 45.9879 51.5324 45.9879C51.5702 45.9879 51.5881 45.9437 51.4738 45.7156C51.3634 45.4934 51.3306 45.4263 51.3122 45.4263C51.2874 45.4263 51.2993 45.5829 51.1353 45.5829C51.098 45.5829 51.0518 45.5749 50.9956 45.557C50.5175 45.3965 50.9956 45.557 50.6781 45.1589C50.612 45.0735 50.5548 45.0426 50.5001 45.0426C50.351 45.0426 50.2213 45.2728 49.941 45.2728C49.8372 45.2728 49.7129 45.2419 49.5618 45.1589C49.3397 45.0342 49.2234 44.988 49.1712 44.981C49.2139 45.0879 49.2422 45.1589 49.2422 45.1589C49.2422 45.1589 49.0653 44.981 49.1588 44.981H49.1717C49.0678 44.729 48.8774 44.2663 48.7656 44.0422C48.7129 43.9358 48.4997 43.9005 48.2164 43.9005C47.6479 43.9005 46.7995 44.0422 46.3731 44.0422C45.7355 44.0422 46.3731 44.0422 45.4954 43.8036C44.6192 43.5641 44.3011 43.325 43.823 43.0855C43.3419 42.8469 43.1838 42.6074 42.7857 42.3678C42.3861 42.1293 42.4657 41.9697 42.1481 41.4101C41.828 40.853 42.3076 40.853 42.2266 40.3102C42.1709 39.942 42.1193 39.8828 42.0889 39.8828C42.0745 39.8828 42.0676 39.8962 42.0676 39.8962C42.0676 39.8962 41.4289 39.019 41.1099 38.7005C40.7923 38.3804 40.3127 37.9018 40.0219 37.7423C39.7267 37.5832 39.517 37.4237 39.2764 37.2642C39.0364 37.1046 39.1184 36.8651 38.8788 36.6265C38.7099 36.4585 38.7019 36.294 38.7123 36.208C38.8952 36.2801 39.0901 36.3358 39.2968 36.3358C39.3843 36.3358 39.4926 36.3323 39.6059 36.3258C39.6979 36.3223 39.7928 36.3179 39.8733 36.3179H39.8768H39.9037C39.9807 36.3372 40.0632 36.3477 40.1452 36.3477C40.2038 36.3477 40.254 36.3422 40.2978 36.3363C40.3942 36.3512 40.4995 36.3541 40.6293 36.3541C40.7331 36.3541 40.8514 36.3507 40.9478 36.3487L41.0681 36.3457C41.084 36.3472 41.0994 36.3472 41.1163 36.3472C41.2923 36.3472 41.4339 36.2915 41.5338 36.2354C41.5795 36.2324 41.6287 36.2284 41.6789 36.2224C41.7296 36.218 41.7828 36.211 41.838 36.211C41.8807 36.2155 41.9249 36.2205 41.9662 36.2269C41.9716 36.2438 41.9776 36.2617 41.9821 36.2776C41.9672 36.4173 41.9707 36.6041 42.0606 36.7965C42.0939 36.9366 42.1834 37.2154 42.485 37.4177C42.6789 37.5479 42.7872 37.5986 43.0352 37.6394C43.157 37.6608 43.2112 37.6657 43.2837 37.6657C43.3309 37.6657 43.3891 37.6622 43.5074 37.6498C43.7509 37.6255 43.9442 37.5499 44.0993 37.4639C44.145 37.543 44.2056 37.6245 44.2832 37.7005C44.2812 37.7005 44.2797 37.7 44.2797 37.7C44.2747 37.7 44.2812 37.7214 44.2911 37.7433C44.3105 37.7915 44.3289 37.8422 44.3537 37.8978C44.3816 37.9585 44.397 38.0325 44.4109 38.0931C44.4517 38.2393 44.4869 38.3769 44.5789 38.5151C44.6688 38.6503 44.8025 38.7616 44.9551 38.8257C44.9978 38.8913 45.052 38.9604 45.1241 39.0364C45.3771 39.2959 45.6683 39.3819 45.8422 39.4345C45.8671 39.443 45.8919 39.449 45.9173 39.4574C45.9864 39.4823 46.0604 39.4902 46.132 39.4952V39.9748L46.2125 40.9315L46.6116 41.4896L46.8526 42.0468L47.6478 42.6059H48.607L49.3222 42.5268C49.3222 42.5268 49.8018 42.0468 49.8018 41.4896C49.8018 41.0562 50.8157 41.008 51.2655 41.008C51.3937 41.008 51.4757 41.0115 51.4757 41.0115L51.2372 41.9692L51.1601 42.7664C51.1601 42.7664 51.3192 43.4035 51.5572 43.8822H52.992C52.992 43.8822 53.0725 44.3588 53.1535 44.8384C53.2311 45.317 53.2311 45.1584 53.2311 45.6365C53.2311 46.1147 53.2311 46.1937 53.3906 46.5933C53.4577 46.7558 53.4681 46.7856 53.4696 46.7856C53.4711 46.7856 53.4696 46.7762 53.4726 46.7762C53.4776 46.7762 53.4945 46.797 53.5516 46.9108C53.6555 47.1241 53.8558 47.1593 53.9771 47.1593C54.0392 47.1593 54.0804 47.1499 54.0804 47.1499L54.5864 47.549H55.0893V47.0704H55.8612L56.8194 47.788L57.136 47.389L57.6186 46.9108L57.9337 46.5118C58.0962 46.3135 58.1752 46.2921 58.2836 46.2921C58.3099 46.2921 58.3407 46.2926 58.374 46.2926C58.4714 46.2926 58.6012 46.2816 58.8109 46.1922C59.3715 45.9526 58.8109 46.1922 59.0047 45.9526C59.0693 45.8736 59.1677 45.8473 59.2691 45.8473C59.4699 45.8473 59.6901 45.9526 59.6901 45.9526L60.4853 46.0326L60.7263 46.4317H61.9221L62.6402 46.6703L63.1164 46.5108C63.1164 46.5108 63.995 46.6703 64.3141 46.7503C64.6342 46.8303 64.4732 47.3084 64.4732 47.3084C64.4732 47.3084 65.0323 47.548 65.2718 47.627C65.5114 47.707 65.7495 48.4252 65.7495 48.4252L66.149 49.0628L68.6991 49.6215C68.6991 49.6215 69.0987 49.9405 69.4173 50.4196C69.7379 50.8972 69.8179 50.8972 70.2165 51.4549C70.5266 51.8888 70.9316 51.9375 71.0971 51.9375C71.1429 51.9375 71.1722 51.933 71.1722 51.933C71.1722 51.933 71.4908 52.2521 72.1269 52.8092C72.7676 53.3678 73.5627 53.2098 74.68 53.4816C75.7957 53.7545 75.7137 53.845 75.7137 53.845L77.3886 54.6421L77.3111 55.2013C77.2266 55.7649 77.3841 55.6053 77.3066 56.4025L77.3065 56.4024Z" fill="#576673"/>
<path d="M62.1355 41.4483C62.1121 41.4374 62.0883 41.4299 62.0644 41.4205C62.0629 41.42 62.0475 41.4155 62.0272 41.4061C61.9412 41.3414 61.8607 41.2972 61.7851 41.257C61.6196 40.9995 61.2906 40.6044 60.8438 40.6044C60.8175 40.6044 60.7926 40.6049 60.7678 40.6089L60.7444 40.6054C60.7166 40.6024 60.6738 40.6004 60.6445 40.5999H60.643C60.568 40.5999 60.4979 40.6109 60.4283 40.6292C60.312 40.5452 60.1699 40.4811 60.0029 40.4533C59.9204 40.4324 59.8225 40.421 59.7136 40.421C59.6098 40.421 59.5412 40.4255 59.485 40.4275L59.4323 40.4299C59.4174 40.4299 59.396 40.4285 59.3702 40.4255C59.3041 40.4185 59.2375 40.4155 59.1749 40.4155C59.0973 40.4155 59.0233 40.42 58.9582 40.425L58.9363 40.4255C58.8931 40.419 58.8513 40.416 58.8051 40.416C58.7678 40.416 58.7196 40.419 58.6684 40.423C58.5765 40.3857 58.4503 40.3489 58.2972 40.3489C58.0313 40.3489 57.7813 40.4608 57.5885 40.6675C57.4752 40.7843 57.3703 40.8892 57.3688 40.8907C57.2927 40.9667 57.2311 41.0572 57.1919 41.1581L57.1178 41.3419C57.0785 41.4359 57.0592 41.5358 57.0592 41.6362V41.661C56.9787 41.8578 56.9816 42.082 57.0741 42.2852C57.2038 42.568 57.4871 42.7504 57.7972 42.7504C57.8529 42.7504 57.9369 42.7395 57.9925 42.7286C58.0681 42.7136 58.2356 42.6779 58.4711 42.4984C58.5432 42.4835 58.6138 42.4686 58.6486 42.4592C58.7097 42.4448 58.7987 42.4269 58.8966 42.3906C58.9065 42.3911 58.9159 42.3926 58.9244 42.3956C58.983 42.4065 59.0248 42.4125 59.0591 42.4174L59.0949 42.4269L59.1808 42.4448C59.235 42.4582 59.2847 42.4681 59.3369 42.4781C59.4915 42.7216 59.7261 42.8364 59.9452 42.8637C59.9746 42.8732 60.0024 42.8851 60.0088 42.8866C60.0571 42.906 60.1087 42.9209 60.1599 42.9308C60.1694 42.9423 60.1808 42.9537 60.1912 42.9656C60.0844 43.1023 60.0103 43.2643 60.0103 43.4422V43.4601C59.9745 43.6619 60.0088 43.8712 60.1043 44.0516C60.2404 44.309 60.485 44.482 60.7946 44.5351C60.8816 44.552 60.9492 44.556 61.0004 44.556C61.0202 44.556 61.0401 44.5555 61.06 44.5545C61.2041 44.6007 61.3015 44.6171 61.479 44.6345C61.5843 44.6455 61.6743 44.648 61.7538 44.648C61.9099 44.648 62.0237 44.6365 62.0237 44.6365C62.1812 44.6201 62.3239 44.5565 62.4427 44.4621C62.5614 44.5048 62.6837 44.5341 62.801 44.5341C62.8055 44.5341 62.8104 44.5341 62.8144 44.5327C62.9059 44.5625 62.9918 44.5724 63.0694 44.5724C63.2473 44.5724 63.385 44.5177 63.4804 44.474C63.5202 44.474 63.5579 44.472 63.5952 44.467C63.8039 44.5545 63.9744 44.5704 64.037 44.5709L64.287 44.5714C64.4903 44.5714 64.6796 44.4944 64.8223 44.3627H64.8794H64.9455C65.1955 44.4432 65.3198 44.4432 65.373 44.4432C65.4172 44.4432 65.4644 44.4263 65.5126 44.4183C65.6577 44.555 65.8401 44.648 66.0414 44.648C66.0876 44.648 66.1368 44.6435 66.1865 44.6345C66.1895 44.6345 66.2049 44.6311 66.2248 44.6276C66.3187 44.6604 66.4191 44.6768 66.5225 44.6768C66.7218 44.6768 66.8903 44.6147 66.9723 44.5794C67.0295 44.5535 67.0727 44.5103 67.1189 44.474C67.2556 44.5814 67.4246 44.648 67.6085 44.648H67.7938C67.9022 44.648 68.012 44.6261 68.1094 44.5819L68.256 44.5182C68.5468 44.3915 68.7307 44.1062 68.7307 43.7906C68.7307 43.475 68.5428 43.1913 68.2531 43.066L68.1065 43.0034C68.0061 42.9592 67.8992 42.9378 67.7938 42.9378C67.6761 42.9378 67.5637 42.9721 67.4559 43.0233C67.3108 42.8742 67.1125 42.7802 66.8888 42.7802H66.1886C66.1239 42.7802 66.0618 42.7917 66.0017 42.8061C65.8327 42.6321 65.6945 42.5625 65.5991 42.5297C65.5872 42.5253 65.5579 42.5168 65.5236 42.5069C65.4008 42.3806 65.2398 42.2947 65.0574 42.2703L65.0345 42.2673L65.0166 42.2514C64.87 42.1133 64.6747 42.0362 64.4744 42.0362H64.0698L63.8283 42.0357H63.4754C63.4198 42.0148 63.3537 42.0099 63.2886 42.0009C63.1171 41.8628 62.8959 41.7639 62.636 41.659C62.4521 41.5884 62.1355 41.4483 62.1355 41.4483L62.1355 41.4483ZM60.0466 42.0795C59.9711 42.0795 59.9527 41.8573 59.9527 41.8573L59.9005 41.7659C59.9005 41.7659 59.8056 41.7097 59.6396 41.7097C59.4755 41.7097 59.4388 41.6913 59.2703 41.6555C59.1058 41.6178 59.2703 41.6555 59.0685 41.6178C58.8663 41.5805 59.0491 41.5079 59.0491 41.5079L59.236 41.4339L59.0859 41.3966C59.0859 41.3966 58.9343 41.4195 58.826 41.4195C58.7992 41.4195 58.7753 41.419 58.7564 41.415C58.7509 41.413 58.7455 41.412 58.7415 41.412C58.6729 41.412 58.735 41.5472 58.6983 41.5989C58.6655 41.6551 58.5353 41.6729 58.4617 41.6908C58.3856 41.7092 58.1103 41.7659 58.1103 41.7659C58.1103 41.7659 57.9423 41.9314 57.8509 41.9498C57.8201 41.9552 57.8066 41.9607 57.7982 41.9607C57.7838 41.9607 57.8131 41.9423 57.8509 41.8867C57.908 41.8046 57.8509 41.8032 57.8509 41.8032V41.6372L57.9249 41.4528C57.9249 41.4528 58.0353 41.3429 58.165 41.2082C58.2122 41.1576 58.2554 41.1407 58.2967 41.1407C58.3643 41.1407 58.4269 41.1879 58.4955 41.2082C58.5268 41.2167 58.5641 41.2202 58.6003 41.2202C58.6744 41.2202 58.7534 41.2082 58.8046 41.2082C58.823 41.2082 58.8374 41.2097 58.8469 41.2127C58.8583 41.2172 58.8792 41.2192 58.901 41.2192C58.9647 41.2192 59.0685 41.2077 59.1749 41.2077C59.2127 41.2077 59.2504 41.2092 59.2887 41.2127C59.3513 41.2207 59.395 41.2212 59.4318 41.2212C59.5104 41.2212 59.5665 41.2127 59.7141 41.2127C59.9348 41.2127 59.7141 41.2127 59.8622 41.2321C60.0113 41.25 60.064 41.3926 60.064 41.3926L60.2315 41.5641C60.2315 41.5641 60.7101 41.7301 60.9114 41.7674C60.9348 41.7709 60.9512 41.7738 60.9656 41.7738C61.0724 41.7738 60.9114 41.657 60.9114 41.657C60.9114 41.657 60.7832 41.417 60.6733 41.3986C60.6485 41.3941 60.641 41.3931 60.644 41.3931C60.647 41.3931 60.7275 41.4046 60.7881 41.4046C60.808 41.4046 60.8279 41.4026 60.8408 41.3991C60.8408 41.3986 60.8408 41.3986 60.8438 41.3986C60.9059 41.3986 61.1539 41.7336 61.1902 41.8047C61.2275 41.8787 61.4666 41.9707 61.5595 42.0442C61.6509 42.1198 61.8179 42.1744 61.8179 42.1744C61.8179 42.1744 62.1479 42.321 62.3328 42.3946C62.3751 42.4115 62.4213 42.4309 62.4655 42.4503C62.4347 42.5173 62.4014 42.6048 62.392 42.7251C62.3507 42.7385 62.3199 42.7693 62.2836 42.7887C62.2821 42.7872 62.2801 42.7872 62.2757 42.7857C62.2647 42.7708 62.2493 42.7649 62.2309 42.7649C62.1812 42.7649 62.1042 42.8061 62.0192 42.8061C61.9914 42.8061 61.9586 42.8006 61.9253 42.7862C61.8661 42.7579 61.8448 42.7485 61.8368 42.7485C61.8274 42.7485 61.8537 42.7664 61.8537 42.7664C61.8537 42.7664 61.8095 42.7798 61.7513 42.7828C61.4059 42.665 61.2424 42.6545 61.1793 42.6545L61.1902 42.6361C61.1902 42.6361 61.3 42.5989 61.3199 42.4701H61.06H60.8413C60.728 42.4701 60.7837 42.322 60.7653 42.2117C60.7558 42.1625 60.731 42.1496 60.6962 42.1496C60.6634 42.1496 60.6251 42.1605 60.5923 42.1605C60.5804 42.1605 60.5714 42.159 60.561 42.156C60.5396 42.1511 60.5148 42.1491 60.4919 42.1491C60.4492 42.1491 60.4164 42.156 60.4164 42.156H60.306C60.3045 42.1531 60.1177 42.0795 60.0466 42.0795L60.0466 42.0795ZM61.5749 43.8508C61.391 43.8324 61.3741 43.8324 61.1808 43.7589C61.1331 43.7395 61.1052 43.7325 61.0883 43.7325C61.0521 43.7325 61.07 43.7668 61.0009 43.7668C60.986 43.7668 60.9611 43.7638 60.9318 43.7589C60.7275 43.7216 60.8021 43.5551 60.8021 43.5551V43.4547C60.906 43.5019 61.0168 43.5347 61.1341 43.5347C61.1395 43.5347 61.149 43.5347 61.1559 43.5342C61.2265 43.5491 61.2936 43.5556 61.3612 43.5556C61.404 43.5556 61.4432 43.5526 61.48 43.5486C61.5128 43.5551 61.5461 43.5541 61.5789 43.5586L61.8269 43.7554C61.8284 43.7663 61.8269 43.7738 61.8304 43.7847C61.8319 43.8066 61.8403 43.8319 61.8473 43.8558C61.8179 43.8573 61.7901 43.8587 61.7533 43.8587C61.6987 43.8578 61.637 43.8563 61.5749 43.8508L61.5749 43.8508ZM66.6498 43.8578C66.6498 43.8578 66.5852 43.8876 66.5231 43.8876C66.4952 43.8876 66.4659 43.8806 66.447 43.8578C66.4301 43.8369 66.3779 43.8294 66.3183 43.8294H66.3133C66.3228 43.7996 66.3461 43.7748 66.3546 43.742C66.368 43.6863 66.3581 43.6301 66.3596 43.574H66.8769C66.861 43.6152 66.8536 43.658 66.8441 43.7017C66.8257 43.7097 66.8014 43.7166 66.7606 43.7325C66.6309 43.7772 66.6498 43.8578 66.6498 43.8578L66.6498 43.8578ZM67.9409 43.7946L67.7943 43.8583H67.6552C67.6582 43.8468 67.6582 43.8339 67.6606 43.822L67.6701 43.815L67.7948 43.7315L67.9409 43.7946ZM63.8283 42.829H64.4744L64.6762 43.0208L64.9505 43.0581L64.9878 43.1878C64.9878 43.1878 65.288 43.2619 65.3417 43.2798C65.36 43.2882 65.3914 43.3155 65.4177 43.3439L65.3402 43.4984C65.3153 43.5432 65.3029 43.5934 65.289 43.6411C65.1975 43.6182 65.0832 43.575 65.0832 43.575H64.8809C64.6772 43.575 64.7512 43.575 64.5281 43.5566C64.4545 43.5511 64.4297 43.5496 64.4212 43.5496C64.4043 43.5496 64.4491 43.5566 64.2885 43.5566C64.0505 43.5566 64.2885 43.7832 64.2885 43.7832H64.0698C64.0698 43.7832 63.9207 43.7787 63.7542 43.652C63.707 43.6162 63.6767 43.6043 63.6509 43.6043C63.5863 43.6043 63.5718 43.6853 63.4779 43.6853H63.3104C63.1464 43.6853 63.3104 43.6853 63.1827 43.7439C63.125 43.7703 63.0912 43.7832 63.0709 43.7832C63.043 43.7832 63.0281 43.7638 62.9988 43.7236C62.9869 43.7077 62.9769 43.7027 62.9615 43.7027C62.9242 43.7027 62.8825 43.7449 62.801 43.7449C62.7791 43.7449 62.7498 43.7385 62.7175 43.7285C62.7081 43.6739 62.6981 43.6217 62.6777 43.5705C62.71 43.5625 62.7568 43.5491 62.8229 43.5213H62.887H63.5331C63.6782 43.5213 63.623 43.4457 63.623 43.4457C63.623 43.4457 63.549 43.3369 63.5331 43.2812C63.5147 43.2266 63.5703 43.1167 63.4948 43.0606C63.4799 43.0491 63.4799 43.0506 63.4779 43.0471C63.5191 42.9786 63.5485 42.9095 63.5703 42.8319H63.6061L63.8283 42.8305L63.8283 42.829Z" fill="#576673"/>
<path d="M61.8886 38.8121C61.7445 38.6833 61.5581 38.6147 61.3658 38.6147C61.3215 38.6147 61.2783 38.6182 61.2316 38.6262C60.995 38.6669 60.7913 38.8131 60.675 39.0218C60.672 39.0283 60.6665 39.0367 60.663 39.0427C60.6153 39.1152 60.5706 39.1689 60.5661 39.1744C60.3504 39.4507 60.3415 39.8379 60.5462 40.1236C60.6973 40.3359 60.9379 40.4551 61.1889 40.4551C61.2097 40.4551 61.2316 40.4546 61.2495 40.4532C61.3141 40.4661 61.3782 40.4715 61.4428 40.4715C61.6396 40.4715 61.7957 40.4104 61.8712 40.3741C62.1411 40.2409 62.3116 39.9666 62.3116 39.6639V39.5441C62.3116 39.317 62.2146 39.1003 62.0457 38.9507L61.8886 38.8121ZM61.5228 39.6629C61.5228 39.6629 61.488 39.6793 61.4438 39.6793C61.4224 39.6793 61.3961 39.6748 61.3703 39.6629C61.3439 39.651 61.3146 39.647 61.2883 39.647C61.2356 39.647 61.1894 39.6629 61.1894 39.6629C61.1894 39.6629 61.2619 39.571 61.3345 39.4611C61.3623 39.4199 61.3703 39.409 61.3703 39.409C61.3703 39.409 61.3593 39.4224 61.3583 39.4224C61.3583 39.4224 61.3598 39.4189 61.3653 39.406L61.5228 39.5436V39.6629Z" fill="#576673"/>
</svg>
