<svg width="110" height="110" viewBox="0 0 110 110" fill="none" xmlns="http://www.w3.org/2000/svg">
<rect width="110" height="110" fill="#F2F7FB"/>
<path d="M80.2708 52.9694L76.3923 48.3678L75.0777 45.5413L71.7907 43.5695L70.6076 37.8503L68.8327 37.2587L66.861 32H66.3352L65.4808 36.01V39.0994L64.7578 41.1369L63.509 41.9256L62.3259 41.005L57.7902 38.1128L59.4337 35.4172L59.1712 33.8394L54.3072 32.7874L53.7814 34.102L51.9411 34.1677L50.429 36.731V37.8487H48.5231L47.011 36.4685L43.6583 38.112L42.3437 41.4648L41.7522 40.2817L40.3062 41.5962V42.7139L38.9917 44.6199L36.4938 45.5404L33.0753 46.0005C33.0753 46.0005 29.9202 49.1557 29.8544 49.3533C29.7887 49.5505 29 52.1799 29 52.1799L30.052 53.4286L29.8548 55.2689L32.1555 61.3164L31.9583 64.143L31.3011 64.9974L32.1555 65.918L35.7051 66.7067L38.0715 64.8007L42.0815 65.4579L43.5936 63.4862L46.2891 62.6975L52.7309 61.5144L56.412 62.6975L58.1869 66.7075L59.4357 65.5897L60.8159 62.9608L61.013 64.0785L60.4215 66.7075L61.8017 67.1675L64.1682 70.3227L66.3375 71.7029H69.164L71.4648 72.0976L74.2913 70.3227H76.1316L77.8409 66.0502L79.8783 62.8293C79.8783 62.8293 81.6533 57.308 81.6533 57.1101C81.6525 56.9125 80.2706 52.9695 80.2706 52.9695L80.2708 52.9694ZM78.8332 62.3421L76.8734 65.4399C76.8363 65.4993 76.8045 65.5614 76.7782 65.6259L75.3562 69.1806H74.289C74.0743 69.1806 73.8636 69.2411 73.6816 69.3555L71.225 70.8978L69.3549 70.5775C69.2907 70.5668 69.2262 70.5608 69.1617 70.5608H66.6677L64.9545 69.4706L62.7131 66.4819C62.5737 66.2963 62.3809 66.1569 62.1602 66.084L61.7595 65.9505L62.1244 64.329C62.1574 64.1816 62.161 64.0286 62.1347 63.8797L61.9376 62.7619C61.8523 62.2811 61.4711 61.9071 60.9883 61.8318C60.9294 61.8227 60.8708 61.8183 60.8123 61.8183C60.3932 61.8183 60.0009 62.0497 59.8017 62.4293L58.574 64.768L57.4532 62.2354C57.3213 61.9374 57.0684 61.71 56.7581 61.61L53.0771 60.4269C52.9639 60.3903 52.8456 60.3719 52.7277 60.3719C52.6588 60.3719 52.5895 60.3783 52.5214 60.3907L46.0796 61.5737C46.0409 61.5805 46.0023 61.5897 45.9648 61.6012L43.2701 62.3899C43.0371 62.458 42.8319 62.5983 42.685 62.7914L41.5892 64.2207L38.2543 63.6742C38.1926 63.6638 38.1309 63.6594 38.0695 63.6594C37.811 63.6594 37.5573 63.7475 37.3529 63.9124L35.4142 65.4742L32.8175 64.8974L32.8609 64.8417C32.9979 64.6636 33.0796 64.4489 33.0951 64.225L33.2923 61.3985C33.3038 61.2335 33.2792 61.0678 33.2202 60.9129L31.0171 55.1192L31.1848 53.5506C31.2178 53.2411 31.123 52.9316 30.9227 52.6934L30.269 51.9166C30.5004 51.1474 30.7657 50.2656 30.8812 49.8895C31.2445 49.4788 32.4522 48.2416 33.6086 47.0813L36.6439 46.6726C36.7268 46.661 36.8076 46.6411 36.8865 46.6124L39.3844 45.6919C39.6055 45.6102 39.7963 45.4625 39.9298 45.2689L41.2443 43.3629C41.3757 43.1721 41.4462 42.9458 41.4462 42.7148V42.1747C41.6605 42.4459 41.9892 42.608 42.3417 42.608C42.3588 42.608 42.3759 42.6077 42.3931 42.6069C42.8436 42.5861 43.2403 42.3029 43.4048 41.8827L44.5572 38.9434L46.813 37.838L47.7506 38.694C47.961 38.886 48.2354 38.9928 48.521 38.9928H50.427C51.0579 38.9928 51.569 38.4817 51.569 37.8508V37.045L52.605 35.2883L53.8203 35.2449C54.272 35.2289 54.6716 34.9473 54.8401 34.5275L55.0074 34.1088L58.1706 34.7928L58.2363 35.1863L56.8143 37.5185C56.4904 38.0495 56.6509 38.7418 57.1752 39.0764L61.6659 41.9404L62.8068 42.8279C63.0123 42.9876 63.2597 43.0685 63.5079 43.0685C63.719 43.0685 63.9305 43.0103 64.1177 42.892L65.3665 42.1033C65.5828 41.9663 65.7473 41.7607 65.8329 41.5197L66.5559 39.4823C66.5993 39.3596 66.6216 39.2306 66.6216 39.1003V36.1308L66.8271 35.1664L67.7624 37.6608C67.8835 37.9834 68.144 38.234 68.4707 38.3431L69.6214 38.7267L70.6714 43.8015C70.736 44.1138 70.9284 44.385 71.2024 44.5495L74.1891 46.3416L75.3562 48.8507C75.3992 48.9419 75.4534 49.0275 75.5183 49.1048L79.261 53.5454C79.7637 54.9849 80.2918 56.5361 80.4711 57.118C80.2564 57.8685 79.5167 60.2138 78.8332 62.3421L78.8332 62.3421Z" fill="#576673"/>
<path d="M73.9148 74.7609L71.5623 75.3361L70.0459 74.4996L69.7842 74.9175L70.9341 78.4205L72.7119 78.9435L74.6466 76.7216L74.3332 74.7088L73.9148 74.7609ZM72.3319 77.6413L71.8328 77.4947L71.4986 76.4765C71.5197 76.4777 71.5408 76.4781 71.5627 76.4781C71.6535 76.4781 71.7444 76.4674 71.834 76.4455L73.3895 76.0651L73.4373 76.3722L72.3319 77.6413Z" fill="#576673"/>
</svg>
